<svg width="120" height="120" viewBox="0 0 120 120" fill="none" xmlns="http://www.w3.org/2000/svg">
<g clip-path="url(#clip0_57_441)">
<path d="M75 37C75 33.134 78.134 30 82 30H112.5C116.642 30 120 33.3579 120 37.5V45H90V53H112.5C116.642 53 120 56.3579 120 60.5V83C120 86.866 116.866 90 113 90H82.5C78.3579 90 75 86.6421 75 82.5V75H105V67H82C78.134 67 75 63.866 75 60V37Z" fill="#D32CE6"/>
<path d="M2.53284e-06 37.5062C8.44388e-07 37.5042 0 37.5021 0 37.5C0 36.9822 0.0524666 36.4767 0.152373 35.9885C0.85172 32.5709 3.87563 30 7.5 30H37.5C41.6421 30 45 33.3579 45 37.5V45H15L15 75H45V82.5C45 86.6421 41.6421 90 37.5 90H7.5C3.35786 90 0 86.6421 0 82.5L2.53284e-06 37.5062Z" fill="#D32CE6"/>
<path fill-rule="evenodd" clip-rule="evenodd" d="M15.6065 82.076C17.1965 86.047 18.3825 90.185 19.7605 94.245C20.5505 96.571 21.5455 97.365 24.1155 97.473C24.6683 96.7035 25.1484 95.8843 25.5495 95.026C27.0495 91.036 28.4395 86.997 29.9385 83.007C30.2453 82.4159 30.6831 81.9029 31.2185 81.507C32.1105 80.712 33.0615 79.986 33.8235 79.366C33.9105 78.39 33.9645 77.775 34.0235 77.078C34.6695 76.593 35.3335 76.099 36.0305 75.578C36.3232 73.918 36.6168 72.2593 36.9115 70.602L37.4685 70.587C37.6123 71.0992 37.8386 71.5845 38.1385 72.024C38.7352 72.7887 39.5008 73.4048 40.3755 73.824C42.4645 74.466 43.0065 74.907 43.0505 77.189C43.1395 81.723 43.1595 86.257 43.2225 90.789C43.2445 92.419 43.3055 94.05 43.3555 95.914C46.1314 96.4808 49.0101 96.268 51.6725 95.299C51.5505 90.099 51.4325 85.075 51.3095 79.799L55.4615 77.421C57.9239 83.7355 60.947 89.8168 64.4945 95.5919C67.6285 95.5099 73.6945 91.467 76.1305 87.974C74.4725 84.86 72.7485 81.76 71.1585 78.594C69.9935 76.276 68.9405 73.894 67.9675 71.486C67.7342 70.6479 67.6737 69.7712 67.7895 68.909C66.6755 65.481 65.5605 62.053 64.4945 58.775C70.1155 56.894 75.0945 53.708 80.3135 51.075C85.5775 48.416 90.8135 45.692 96.0495 42.975C96.5939 42.6419 97.1145 42.2713 97.6075 41.866C97.1325 41.166 96.8305 40.72 96.4305 40.128C96.9845 39.697 97.4945 39.301 98.2055 38.746C98.2715 37.754 98.3495 36.591 98.4325 35.354C102.009 33.387 105.559 31.366 109.169 29.474C112.849 27.546 116.591 25.745 120.155 23.963C120.099 20.023 119.771 19.391 116.77 17.501L102.859 26.162C101.921 23.853 100.998 21.744 100.2 19.585C98.7515 15.672 98.1645 15.221 93.4595 15.074C92.5715 18.993 91.6595 22.996 90.8765 26.466C84.8265 30.119 79.1035 33.559 73.3975 37.027C69.4885 39.402 65.5865 41.787 61.7225 44.233C60.6542 45.0199 59.6359 45.8726 58.6735 46.786C54.9805 48.975 50.7915 51.457 46.4865 54.01C45.7925 53.958 44.9785 53.895 44.2865 53.842C43.6711 52.6126 43.1135 51.5016 42.6135 50.509C41.0505 50.755 39.8665 50.943 38.6725 51.133C37.8105 52.588 38.3345 53.812 39.1615 54.933C40.5175 56.774 40.4245 57.76 38.5115 58.907C37.1425 59.728 35.6795 60.392 34.1695 61.171C34.3565 61.743 34.5245 62.261 34.7225 62.871C35.0575 62.98 35.4515 63.111 35.8645 63.248C35.5235 65.34 33.8545 65.898 32.3645 66.581C30.8745 67.264 29.2455 67.647 27.8265 68.439C24.4715 70.312 21.2045 72.354 17.8975 74.319C14.7265 76.206 14.2065 78.585 15.6065 82.076ZM94.9785 21.631L96.6105 20.704C97.3155 22.315 97.9555 23.771 98.5535 25.141C96.6185 27.165 95.6395 27.66 94.4165 27.361C94.5995 25.486 94.7865 23.6 94.9785 21.631V21.631ZM53.4895 72.131C53.9485 73.538 54.2895 74.589 54.6705 75.763C51.5785 76.65 50.6445 73.269 53.4895 72.134V72.131Z" fill="#1A1B2A"/>
</g>
<defs>
<clipPath id="clip0_57_441">
<rect width="120" height="120" fill="white"/>
</clipPath>
</defs>
</svg>
