<svg width="59" height="43" viewBox="0 0 59 43" fill="none" xmlns="http://www.w3.org/2000/svg">
<g filter="url(#filter0_d_2_52454)">
<path d="M8.98233 12.6035L9.11273 12.5686C9.52421 12.4583 9.88556 12.4392 10.1968 12.5111C10.5984 12.596 10.8482 12.821 10.946 13.1862L10.988 13.3426C11.0827 13.6962 11.0414 14.0986 10.8642 14.5498C10.8391 14.6186 10.7773 14.747 10.6785 14.935C10.5841 15.1156 10.4535 15.3586 10.2869 15.6642C10.2433 15.6635 10.2116 15.6844 10.1919 15.7269C10.1723 15.7694 10.1555 15.8112 10.1416 15.8522L9.47122 16.6188C9.44265 16.6513 9.39614 16.698 9.33167 16.7587C9.26564 16.8137 9.19827 16.8752 9.12956 16.9433C9.05929 17.0056 8.99849 17.0685 8.94716 17.1319C8.90008 17.188 8.88119 17.2335 8.89051 17.2683C8.90294 17.3146 8.96208 17.3267 9.06796 17.3046L9.95422 17.1696L10.7972 17.186C10.7972 17.186 10.8376 17.2093 10.9184 17.256C11.0035 17.2953 11.0692 17.3087 11.1156 17.2963L11.3409 17.5807C11.4047 17.6568 11.4276 17.719 11.4095 17.7673C11.3956 17.8083 11.3988 17.8664 11.419 17.9418C11.4252 17.965 11.4314 17.9882 11.4376 18.0113C11.4481 18.0272 11.4601 18.0488 11.4736 18.0762L11.392 18.154C11.4463 18.3568 11.4528 18.5663 11.4113 18.7824L11.3733 18.9883L11.3213 19.142C11.3213 19.142 11.313 19.169 11.2965 19.2232C11.2841 19.2699 11.2713 19.3262 11.2578 19.3919C11.2444 19.4576 11.2338 19.5226 11.2262 19.5867C11.217 19.6451 11.2155 19.6859 11.2217 19.7091L10.7191 20.7196C10.7079 20.7474 10.6794 20.7799 10.6334 20.8171C10.5859 20.8484 10.5407 20.8885 10.4979 20.9373C10.4535 20.9802 10.418 21.0332 10.3914 21.0962C10.3633 21.1535 10.3593 21.2198 10.3795 21.2951L10.4284 21.4777L10.3554 21.5531C10.3622 21.6942 10.3018 21.7818 10.1743 21.8159C10.1395 21.8253 10.1124 21.817 10.0931 21.7911C10.0722 21.7594 10.0505 21.7249 10.028 21.6874C10.0114 21.6484 9.99046 21.6167 9.96531 21.5924C9.93861 21.5623 9.90787 21.5519 9.87309 21.5612C9.8615 21.5643 9.84779 21.5711 9.83196 21.5816C9.82037 21.5847 9.80376 21.5922 9.78213 21.6042C9.84333 22.0413 9.61023 22.3305 9.08284 22.4718C9.01992 22.5383 8.93905 22.619 8.84022 22.7138C8.74718 22.8071 8.63542 22.9116 8.50492 23.0273C8.40878 23.109 8.31533 23.1775 8.22457 23.2329C8.13381 23.2882 8.07601 23.2696 8.05116 23.1768C8.05116 23.1768 8.04014 23.1705 8.01809 23.1577C8.00184 23.1435 7.99139 23.1276 7.98673 23.1102C7.59699 23.3016 7.44316 23.4578 7.52524 23.5786C7.55505 23.6203 7.56359 23.6522 7.55086 23.6743C7.54548 23.7005 7.52696 23.7241 7.49529 23.7451L7.40665 23.7968C7.37923 23.8103 7.3636 23.8331 7.35978 23.8652L6.76863 24.0236C6.63533 24.0593 6.50338 24.0885 6.37277 24.1111C6.24371 24.1394 6.11388 24.1649 5.98328 24.1875L5.51725 24.2564L5.26793 24.2301C5.15273 24.2175 5.04567 24.212 4.94673 24.2136C4.84779 24.2153 4.75987 24.2233 4.68298 24.2377L4.12365 24.341L3.96126 24.2913C3.86035 24.2625 3.71831 24.254 3.53512 24.2658C3.35618 24.2702 3.21548 24.2551 3.11302 24.2205C3.0626 24.0787 3.01685 23.9543 2.97575 23.8473C2.94045 23.7387 2.9127 23.6468 2.89252 23.5714C2.59436 22.4587 2.61411 21.0371 2.95176 19.3068C2.96521 19.2411 3.00902 19.0337 3.0832 18.6846C3.16317 18.3339 3.27428 17.8445 3.41653 17.2163C3.51419 16.7925 3.59432 16.4077 3.6569 16.0617C3.71793 15.7099 3.76355 15.3933 3.79374 15.1119C3.82705 14.8421 3.95292 14.5817 4.17138 14.3306L4.28485 14.1977C4.34777 14.1311 4.4198 14.087 4.50093 14.0652C4.55889 14.0497 4.62942 14.0463 4.71253 14.0551C4.79564 14.0639 4.87662 14.0764 4.95548 14.0925C5.03435 14.1086 5.10742 14.1263 5.17469 14.1456C5.24041 14.159 5.28274 14.1663 5.30168 14.1675L5.56498 14.246L5.63407 14.33C5.87327 14.6199 6.11168 14.7331 6.34929 14.6694C6.471 14.6368 6.59074 14.5737 6.70851 14.48C6.83207 14.3848 6.94963 14.2787 7.06119 14.1619C7.17854 14.0435 7.28932 13.9237 7.39353 13.8026C7.49619 13.6757 7.59113 13.5664 7.67837 13.4747C8.10142 13.0135 8.53607 12.7231 8.98233 12.6035ZM6.80827 17.4255C6.91983 17.3087 7.0333 17.1758 7.14868 17.0268C7.26251 16.8721 7.36899 16.7131 7.46813 16.5499C7.57306 16.3851 7.66562 16.2206 7.74581 16.0562C7.8318 15.8903 7.89482 15.743 7.93486 15.6142L7.98452 15.4518C7.97604 15.4665 7.98178 15.4184 8.00174 15.3075C8.02595 15.1892 8.04917 15.0556 8.07141 14.9068C8.0921 14.7522 8.10988 14.5983 8.12477 14.4453C8.13966 14.2922 8.13857 14.1838 8.12149 14.12C8.1044 14.0563 8.06399 14.0329 8.00024 14.05C7.97705 14.0562 7.95041 14.0727 7.92029 14.0994C7.33883 14.9198 6.94655 15.7393 6.74346 16.5577C6.67694 16.8427 6.66619 17.0692 6.71123 17.2372C6.73142 17.3126 6.76376 17.3753 6.80827 17.4255ZM6.00081 20.4278C6.0741 20.6318 6.03578 20.9061 5.88584 21.2506L5.72799 21.6004C5.6775 21.7133 5.66312 21.8103 5.68486 21.8915C5.69728 21.9378 5.73522 21.9867 5.79866 22.038L6.25072 21.9169C6.33185 21.8951 6.44678 21.8488 6.5955 21.7779C6.75001 21.7055 6.87073 21.6576 6.95766 21.6343L7.02442 21.7096C6.94329 21.7313 6.8326 21.7703 6.69237 21.8265C6.55638 21.8754 6.42195 21.93 6.28907 21.9905C6.15619 22.0509 6.04224 22.1125 5.94724 22.1752C5.85224 22.238 5.81017 22.2896 5.82104 22.3302C5.83347 22.3765 5.88102 22.3917 5.96371 22.3758C6.04485 22.3541 6.14048 22.3284 6.25059 22.2989C6.26798 22.2943 6.29561 22.2931 6.33349 22.2954C6.36982 22.2918 6.39668 22.2877 6.41406 22.2831C6.44304 22.2753 6.46255 22.267 6.47259 22.2581C6.48107 22.2434 6.5027 22.2314 6.53747 22.2221C6.60123 22.205 6.67967 22.1964 6.77282 22.1963L6.82094 22.202C7.41899 21.6753 7.79138 21.1873 7.93809 20.738C7.96241 20.7128 7.97338 20.6726 7.97099 20.6174C7.96861 20.5621 7.9877 20.529 8.02827 20.5182L8.15721 19.7475C8.17179 19.6629 8.16977 19.5858 8.15113 19.5162C8.11697 19.3887 8.02739 19.2978 7.88239 19.2435C7.73739 19.1892 7.57097 19.1592 7.38312 19.1536C7.19373 19.1423 6.9974 19.1514 6.79414 19.181C6.59512 19.2033 6.42317 19.2338 6.27828 19.2726C6.28543 19.4384 6.25378 19.6333 6.18332 19.8571C6.1529 19.9523 6.12248 20.0474 6.09206 20.1425C6.06164 20.2376 6.03122 20.3327 6.00081 20.4278ZM5.22623 21.3621C5.24983 21.3807 5.2636 21.4205 5.26753 21.4815C5.2695 21.512 5.27147 21.5426 5.27344 21.5731C5.27541 21.6036 5.27448 21.6349 5.27065 21.667L5.25872 21.8659C5.24951 21.9243 5.25267 21.9824 5.2682 22.0404C5.29616 22.1447 5.36576 22.1726 5.47701 22.1242C5.44285 21.9967 5.44578 21.8686 5.48583 21.7398C5.52587 21.6111 5.5257 21.4713 5.48532 21.3207C5.45582 21.2105 5.41788 21.1617 5.37152 21.1741C5.31936 21.1881 5.27093 21.2508 5.22623 21.3621ZM12.0941 18.7485L12.6943 14.9725C12.7104 14.8937 12.7222 14.7756 12.7298 14.6183C12.7431 14.4594 12.757 14.2911 12.7715 14.1133C12.786 13.9355 12.797 13.7679 12.8045 13.6106C12.8179 13.4517 12.8326 13.3329 12.8487 13.254C12.9666 12.5578 13.2603 12.1126 13.7301 11.9184C13.8077 11.8603 13.8813 11.822 13.9508 11.8033C14.003 11.7894 14.0656 11.7912 14.1387 11.8089C14.216 11.8192 14.2898 11.8398 14.3602 11.8707C14.4348 11.8942 14.5008 11.92 14.558 11.9481C14.621 11.9747 14.6628 11.9915 14.6833 11.9984L14.7842 12.0273C14.8267 12.0469 14.8519 12.0713 14.8596 12.1002C14.8659 12.1234 14.8668 12.1387 14.8626 12.146L15.039 12.2479C15.1933 12.3369 15.3371 12.3636 15.4704 12.3279C15.5515 12.3062 15.6209 12.2752 15.6784 12.2349C15.7359 12.1946 15.7925 12.1391 15.8481 12.0683C15.9021 11.9917 15.9617 11.9012 16.0269 11.7968C16.0905 11.6866 16.1698 11.5535 16.2647 11.3976C16.6087 10.8272 16.972 10.4907 17.3545 10.3882C17.4589 10.3602 17.5509 10.379 17.6306 10.4447C17.7087 10.5045 17.7768 10.5266 17.8347 10.5111C17.8985 10.494 17.9749 10.4549 18.0642 10.3937C18.1518 10.3267 18.218 10.2841 18.2628 10.2659L19.3209 9.83332C19.623 9.7089 19.9031 9.74566 20.1611 9.94363C20.4191 10.1416 20.601 10.4376 20.7066 10.8317L20.851 11.3707C20.8104 11.3816 20.8021 11.4086 20.8261 11.4519C20.8486 11.4894 20.8637 11.5226 20.8715 11.5516C20.8792 11.5805 20.8789 11.6024 20.8704 11.6171L20.8324 11.8229C20.812 11.9091 20.7986 11.9749 20.792 12.0201C20.7855 12.0653 20.7823 12.0879 20.7823 12.0879C20.7761 12.0647 20.7705 12.0787 20.7655 12.1297C20.7663 12.1792 20.7645 12.2418 20.7599 12.3175C20.7596 12.3859 20.7593 12.4544 20.759 12.5228C20.7572 12.5854 20.7533 12.6175 20.7475 12.619L20.6884 13.1287C20.6846 13.1608 20.6843 13.2292 20.6875 13.3339C20.6892 13.4328 20.6837 13.5399 20.6711 13.6551C20.6585 13.7703 20.6356 13.882 20.6025 13.9903C20.5736 14.0912 20.5225 14.167 20.4491 14.2177C20.3742 14.2626 20.3191 14.3582 20.2837 14.5043C20.2525 14.6431 20.2187 14.795 20.1822 14.9601C20.1499 15.1178 20.1124 15.2676 20.0697 15.4095C20.027 15.5514 19.9587 15.6443 19.8648 15.6881L19.6504 15.7921C19.623 15.8056 19.5927 15.82 19.5594 15.8351C19.5247 15.8444 19.4914 15.8595 19.4598 15.8804C19.4065 15.9134 19.3708 15.954 19.3527 16.0023C19.3388 16.0433 19.3257 16.0872 19.3134 16.134C19.3069 16.1792 19.293 16.2202 19.2718 16.2569C19.2506 16.2937 19.211 16.3198 19.1531 16.3353C19.0951 16.3509 19.0667 16.3491 19.0678 16.3302C19.0748 16.3097 19.0917 16.2803 19.1187 16.242C19.1458 16.2037 19.1749 16.1618 19.2061 16.1161C19.2432 16.0689 19.2636 16.0293 19.2674 15.9972L19.2853 15.8899C19.303 15.8169 19.3361 15.7552 19.3848 15.7049C19.4319 15.6488 19.4768 15.5963 19.5197 15.5476C19.5625 15.4988 19.593 15.4503 19.6111 15.402C19.6334 15.3463 19.6266 15.286 19.5906 15.2211C19.5732 15.2258 19.5543 15.2246 19.5338 15.2177C19.5175 15.2034 19.4891 15.2017 19.4485 15.2126L19.2138 15.2755C19.2247 15.3161 19.2216 15.351 19.2047 15.3804C19.1919 15.4025 19.1879 15.4222 19.1926 15.4396C19.1972 15.457 19.21 15.4815 19.2309 15.5132L19.0856 15.7012L18.952 15.9326C18.8824 15.9513 18.8249 15.9915 18.7794 16.0534C18.7381 16.108 18.7012 16.1675 18.6689 16.2321C18.6365 16.2967 18.607 16.3605 18.5804 16.4235C18.5522 16.4808 18.5194 16.5206 18.482 16.5431L18.4641 16.6504C18.3131 16.7592 18.2516 16.8657 18.2796 16.97C18.2889 17.0048 18.3239 17.0544 18.3847 17.1189C18.4439 17.1776 18.5083 17.2442 18.578 17.3187C18.6519 17.3858 18.72 17.4545 18.7823 17.5248C18.843 17.5893 18.8804 17.6476 18.8944 17.6998C18.935 17.6889 19.004 17.7263 19.1015 17.812C19.199 17.8977 19.3093 18.0079 19.4323 18.1426C19.5554 18.2774 19.6845 18.4229 19.8196 18.5793C19.9604 18.7341 20.0916 18.876 20.2131 19.0049L20.2909 19.0866C20.2894 19.0808 20.2859 19.091 20.2805 19.1173C20.2794 19.1363 20.278 19.1428 20.2765 19.137C20.2811 19.1544 20.2989 19.1745 20.3299 19.1973C20.3608 19.22 20.3786 19.2401 20.3833 19.2575C20.3759 19.2532 20.3636 19.2535 20.3462 19.2581C20.294 19.2721 20.2618 19.3025 20.2495 19.3492C20.243 19.3945 20.2438 19.4439 20.252 19.4977C20.2644 19.544 20.2768 19.5904 20.2892 19.6367C20.3075 19.6816 20.3189 19.7127 20.3236 19.73C20.3344 19.7706 20.3165 19.7847 20.2697 19.7724C20.2272 19.7528 20.172 19.721 20.1044 19.677C20.0367 19.633 19.9674 19.5832 19.8966 19.5276C19.8243 19.4663 19.7674 19.4163 19.726 19.3777C19.6213 19.3809 19.5714 19.4036 19.5765 19.4457C19.5874 19.4863 19.6187 19.5338 19.6706 19.5882C19.7283 19.6411 19.7904 19.699 19.8569 19.7619C19.9235 19.8248 19.9637 19.8824 19.9777 19.9345C19.9886 19.9751 19.9772 20.0371 19.9437 20.1207C19.9117 20.21 19.8674 20.2995 19.8107 20.3892C19.754 20.479 19.6942 20.5571 19.6313 20.6237C19.5683 20.6902 19.5121 20.7239 19.4627 20.7248C19.18 20.6204 19.0068 20.5767 18.9431 20.5938C18.8445 20.6202 18.7987 20.7039 18.8054 20.845C18.0972 21.0534 17.4571 20.8553 16.8852 20.2507C16.8082 20.172 16.6959 20.0312 16.5484 19.8285C16.4009 19.6258 16.2439 19.4224 16.0775 19.2186C15.9169 19.0132 15.764 18.8367 15.6189 18.6892C15.4722 18.536 15.3641 18.4687 15.2946 18.4873C15.2308 18.5044 15.18 18.5584 15.1423 18.6492C15.1088 18.7328 15.0807 18.8366 15.058 18.9607C15.0354 19.0847 15.0158 19.2204 14.9994 19.3677C14.9872 19.5076 14.9742 19.6447 14.9604 19.7788L14.9426 19.8861L14.8819 20.0421L14.8206 20.161C14.7909 20.2124 14.7637 20.2849 14.7391 20.3785C14.7145 20.4721 14.6877 20.5693 14.6589 20.6702C14.6343 20.7638 14.6096 20.8573 14.585 20.9509C14.5588 21.0387 14.5317 21.1112 14.5035 21.1684L14.1142 21.9063L14.0413 21.9817L13.9371 22.1494C13.924 22.1467 13.8902 22.1713 13.8358 22.2232C13.7813 22.275 13.7161 22.3329 13.64 22.3967C13.5713 22.4648 13.4981 22.5279 13.4205 22.586C13.3503 22.6483 13.2861 22.6872 13.2282 22.7028C13.1876 22.7136 13.0846 22.6884 12.9191 22.6272C12.7594 22.5644 12.5863 22.4865 12.3999 22.3936C12.2209 22.3049 12.0556 22.2094 11.9039 22.1072C11.7507 21.9992 11.6648 21.9104 11.6462 21.8408C11.5965 21.6554 11.5688 21.4361 11.5631 21.1829C11.5558 20.924 11.5853 20.6863 11.6515 20.4697C11.6804 20.3688 11.7081 20.2403 11.7345 20.0841C11.7668 19.9264 11.811 19.7437 11.8672 19.5361C11.9068 19.3826 11.9504 19.2436 11.9977 19.1191C12.0451 18.9946 12.0773 18.8711 12.0941 18.7485ZM16.3477 14.385L15.3733 16.9381C15.3598 17.0039 15.3593 17.0599 15.3718 17.1063C15.3842 17.1526 15.4074 17.193 15.4415 17.2273C15.5142 17.3135 15.5811 17.308 15.642 17.2109L17.6224 14.2391C18.0324 13.6136 18.255 12.7403 18.29 11.619C18.2967 11.4122 18.2853 11.2538 18.2558 11.1437C18.2139 10.9872 18.1407 10.9229 18.0364 10.9509C17.9958 10.9617 17.9592 10.9871 17.9263 11.0269C17.8935 11.0668 17.8623 11.1124 17.8326 11.1639C17.8013 11.2095 17.7722 11.2515 17.7452 11.2898C17.7182 11.3281 17.6873 11.3519 17.6525 11.3612C17.6409 11.3643 17.6162 11.3647 17.5783 11.3624L17.4908 11.3486C17.4587 11.3448 17.4268 11.3534 17.3951 11.3743C17.4138 11.4438 17.4685 11.4975 17.5594 11.5352C17.6255 11.5734 17.6324 11.6337 17.5799 11.7161C17.4872 11.7409 17.4491 11.7729 17.4658 11.8119C17.4825 11.8509 17.5115 11.8897 17.5529 11.9283C17.5943 11.9669 17.6262 12.0049 17.6487 12.0424C17.6712 12.0799 17.6447 12.1087 17.5694 12.1289C17.4593 12.1584 17.3537 12.2395 17.2526 12.3722C17.1515 12.5049 17.051 12.6746 16.9511 12.8815C16.8555 13.0811 16.759 13.3119 16.6615 13.5741C16.5625 13.8305 16.4579 14.1007 16.3477 14.385ZM18.9278 16.5727C18.9851 16.6009 19.017 16.6389 19.0236 16.6868C19.0302 16.7347 19.023 16.777 19.0017 16.8138C18.9848 16.8432 18.9581 16.8596 18.9218 16.8632C18.8897 16.8593 18.8607 16.8205 18.8347 16.7467C18.7748 16.7317 18.7446 16.7119 18.7442 16.6871C18.7422 16.6566 18.7513 16.6324 18.7713 16.6146C18.7957 16.5895 18.8252 16.5722 18.86 16.5629C18.8948 16.5536 18.9174 16.5569 18.9278 16.5727ZM27.6868 9.73472L26.6553 10.0577C26.5757 10.0852 26.4714 10.1598 26.3425 10.2813C26.212 10.397 26.083 10.4719 25.9555 10.5061C25.7642 10.5574 25.6344 10.4555 25.5661 10.2005C25.4212 10.2393 25.355 10.2819 25.3674 10.3282C25.3705 10.3398 25.3788 10.3593 25.3924 10.3868C25.4102 10.4068 25.4206 10.4227 25.4238 10.4343C25.4346 10.4748 25.3821 10.5107 25.2662 10.5417C24.9358 10.6302 24.7329 10.8927 24.6572 11.3292C24.5989 11.6678 24.6194 12.0226 24.7188 12.3935C24.7545 12.5268 24.8103 12.5957 24.886 12.6003C24.9676 12.6032 25.0924 12.5822 25.2605 12.5372L25.4865 12.4766C25.7299 12.4114 25.8749 12.3384 25.9216 12.2575L25.9916 12.1363C26.0043 12.1143 26.0167 12.114 26.0287 12.1357C26.0465 12.1557 26.0562 12.1687 26.0578 12.1745C26.0582 12.1992 26.063 12.229 26.0724 12.2637L26.1849 12.3361C26.1849 12.3361 26.1851 12.3484 26.1855 12.3732C26.1902 12.3906 26.1917 12.3964 26.1902 12.3906C26.198 12.4195 26.2252 12.4402 26.272 12.4525C26.323 12.4575 26.3559 12.4642 26.3706 12.4727C26.4633 12.4478 26.5203 12.417 26.5415 12.3803C26.5387 12.3003 26.5818 12.2639 26.6707 12.2711C26.758 12.2726 26.8249 12.2671 26.8712 12.2547C26.9002 12.2469 26.9226 12.2378 26.9384 12.2273L26.933 12.0331C26.9291 11.9721 26.947 11.9579 26.9869 11.9907C27.0209 12.0251 27.0374 12.0518 27.0362 12.0707C27.0393 12.0823 27.0338 12.0962 27.0195 12.1125C27.011 12.1272 26.9996 12.1426 26.9853 12.1589C26.971 12.1751 26.9678 12.1977 26.9755 12.2267C26.9895 12.2789 27.0215 12.3635 27.0715 12.4805C27.1257 12.5902 27.1622 12.6799 27.1808 12.7494C27.1148 12.8044 27.0893 12.8485 27.1045 12.8817C27.1196 12.9149 27.1542 12.9398 27.2083 12.9563C27.2609 12.9671 27.3198 12.9668 27.3851 12.9555C27.4562 12.9427 27.5126 12.9214 27.5543 12.8916C27.5615 13.4052 27.2627 13.8549 26.6579 14.2405C26.4664 14.3602 26.2037 14.4927 25.87 14.638C25.5362 14.7834 25.1462 14.9158 24.6999 15.0354C24.5609 15.0727 24.4726 15.1491 24.4353 15.2647C24.4022 15.373 24.3853 15.4955 24.3847 15.6323C24.3841 15.7691 24.3814 15.9096 24.3765 16.0538C24.3701 16.1922 24.3306 16.3115 24.2581 16.4116C24.2923 16.5391 24.2461 16.7379 24.1197 17.0078C24.0973 17.0635 24.0877 17.0971 24.0908 17.1087C24.0892 17.1029 24.1337 17.1065 24.2242 17.1195C24.3189 17.1252 24.4238 17.1344 24.539 17.147C24.6542 17.1596 24.7657 17.1701 24.8735 17.1785C24.9814 17.1869 25.0498 17.1872 25.0788 17.1794C25.1135 17.1701 25.151 17.1476 25.1912 17.112C25.2355 17.0691 25.2515 17.0244 25.2391 16.978C25.2298 16.9433 25.212 16.9232 25.1857 16.9178C25.1594 16.9124 25.131 16.9107 25.1005 16.9127C25.0757 16.9131 25.0518 16.9164 25.0286 16.9226C25.0054 16.9288 24.9923 16.9262 24.9892 16.9146C24.9861 16.903 25.0096 16.8749 25.0598 16.8304C25.1084 16.7801 25.1289 16.7405 25.1211 16.7115L25.5351 16.7962L25.6857 16.6627C25.7776 16.5884 25.8467 16.545 25.8931 16.5326C25.9105 16.5279 25.913 16.549 25.9007 16.5958C25.8869 16.6368 25.8687 16.6851 25.8464 16.7408C25.824 16.7965 25.8009 16.8492 25.777 16.8991C25.7589 16.9475 25.7506 16.9745 25.7522 16.9803C25.7724 17.0557 25.8833 17.0756 26.085 17.0402C26.1209 17.012 26.1375 16.9578 26.1347 16.8778C26.1361 16.7905 26.1419 16.7424 26.1519 16.7335C26.2747 16.9366 26.4143 17.0172 26.5708 16.9753C26.6345 16.9582 26.6977 16.904 26.7602 16.8127C26.8269 16.7141 26.9211 16.6485 27.0428 16.6159C27.1124 16.5972 27.1781 16.6107 27.24 16.6562C27.3061 16.6944 27.3508 16.7104 27.374 16.7042C27.3972 16.698 27.3917 16.6311 27.3575 16.5036C27.448 16.5166 27.5017 16.555 27.5188 16.6188C27.539 16.6941 27.512 16.779 27.4379 16.8734C27.3623 16.962 27.2839 17.0171 27.2028 17.0389C27.179 17.1819 27.1538 17.3315 27.1274 17.4877C27.1067 17.6423 27.0417 17.7591 26.9324 17.8381L26.931 17.6242C26.9303 17.6678 26.8691 17.7526 26.7475 17.8783C26.6302 17.9967 26.4877 18.1374 26.3202 18.3003L25.5488 19.0381L23.4972 19.5878L22.9868 19.8736C22.9219 19.9097 22.8373 19.9417 22.733 19.9696C22.4084 20.0566 22.0998 20.0057 21.807 19.8171C21.6054 19.6909 21.4329 19.5105 21.2892 19.2756C21.144 19.035 21.0395 18.7959 20.9758 18.5583C20.9432 18.4366 20.9139 18.2923 20.8878 18.1253C20.8601 17.9526 20.8176 17.759 20.7601 17.5446C20.7717 17.5415 20.7805 17.4584 20.7865 17.2953C20.7967 17.1248 20.8031 16.9399 20.8055 16.7404C20.808 16.541 20.8086 16.3576 20.8072 16.1903C20.8116 16.0214 20.8123 15.9311 20.8092 15.9195L20.8705 15.8006L20.9056 15.5489C20.9175 15.4774 20.9195 15.4272 20.9118 15.3982C20.9098 15.3677 20.9204 15.3493 20.9436 15.3431L21.7582 11.081C21.769 11.0284 21.7742 10.9898 21.7738 10.965C21.7718 10.9345 21.7739 10.9308 21.7801 10.954C21.777 10.9424 21.7718 10.9345 21.7644 10.9303L21.8663 10.7539C21.899 10.6209 21.9647 10.4604 22.0634 10.2725C22.1663 10.0772 22.2795 9.88535 22.403 9.69698C22.5249 9.50282 22.6478 9.32391 22.7717 9.16028C22.8955 8.99664 22.9968 8.87632 23.0756 8.79932C23.1829 8.68981 23.2713 8.62574 23.3409 8.6071L25.5058 7.78476C25.8326 7.65992 26.0163 7.59206 26.0569 7.58119C26.1902 7.54547 26.2789 7.54034 26.323 7.5658C26.4625 7.55326 26.6149 7.53105 26.7803 7.49916C26.9499 7.45992 27.1111 7.43538 27.2637 7.42553C27.4164 7.41569 27.5521 7.43524 27.6708 7.48418C27.7879 7.52733 27.8683 7.63004 27.9117 7.79231C27.918 7.8155 27.922 7.84235 27.924 7.87288C27.9318 7.90186 27.9366 7.93161 27.9386 7.96215C27.9491 7.97798 27.9849 8.0305 28.0461 8.11971C28.1057 8.20312 28.1713 8.29734 28.2429 8.40238C28.3203 8.50587 28.3598 8.56051 28.3614 8.56631C28.3676 8.58949 28.3738 8.61267 28.38 8.63586C28.3862 8.65904 28.3903 8.6859 28.3923 8.71643L28.4909 8.7366C28.4982 8.74084 28.5066 8.76035 28.5159 8.79512C28.5294 8.82255 28.537 8.83916 28.5385 8.84495C28.5463 8.87393 28.534 8.96728 28.5018 9.12501L28.4434 9.28973C28.3719 9.27783 28.3219 9.28814 28.2933 9.32063C28.269 9.34579 28.2499 9.37885 28.236 9.41984C28.2222 9.46082 28.2112 9.50103 28.2031 9.54047C28.1935 9.5741 28.1684 9.59636 28.1278 9.60723C28.0931 9.61654 28.0494 9.61582 27.9968 9.60506C27.9442 9.5943 27.8861 9.59747 27.8223 9.61455C27.7528 9.63318 27.7076 9.67324 27.6868 9.73472ZM26.6899 11.856C26.746 11.9031 26.7734 11.9361 26.7723 11.9551C26.7696 11.9682 26.7509 11.9794 26.7161 11.9888C26.6856 11.9907 26.6485 11.9913 26.6048 11.9906C26.5611 11.9899 26.5219 11.9942 26.4871 12.0035C26.4227 12.0643 26.3672 12.1009 26.3209 12.1133C26.2919 12.1211 26.2751 12.1162 26.2704 12.0989C26.2611 12.0641 26.2858 12.0171 26.3445 11.9579C26.4031 11.8987 26.4557 11.8629 26.502 11.8505C26.56 11.8349 26.6226 11.8368 26.6899 11.856ZM26.6106 12.4643C26.5816 12.472 26.5679 12.4788 26.5695 12.4846C26.571 12.4904 26.5755 12.4954 26.5828 12.4997C26.5944 12.4966 26.6037 12.4848 26.6106 12.4643ZM26.7054 13.1656C26.6034 13.2489 26.5563 13.305 26.5641 13.3339C26.5734 13.3687 26.6584 13.3615 26.8192 13.3122C26.9103 13.2815 26.9855 13.249 27.0446 13.2145C27.1021 13.1742 27.127 13.1396 27.1192 13.1107C27.1068 13.0643 27.0401 13.0356 26.9191 13.0245C26.8712 13.0311 26.8277 13.0428 26.7887 13.0594C26.7481 13.0703 26.7204 13.1057 26.7054 13.1656ZM26.0007 13.4569C25.9192 13.4539 25.8856 13.4909 25.9 13.5678C25.8962 13.5999 25.9261 13.6074 25.9899 13.5903C26.0594 13.5717 26.1232 13.5546 26.1811 13.539C26.3086 13.5049 26.3615 13.4472 26.3398 13.3661C26.3227 13.3023 26.2765 13.2806 26.2011 13.3007C26.1316 13.3194 26.0648 13.3714 26.0007 13.4569ZM22.7081 16.1561C22.6096 16.1825 22.5704 16.2334 22.5906 16.3087C22.6201 16.4188 22.6726 16.4638 22.7479 16.4436C22.7769 16.4358 22.7888 16.4109 22.7838 16.3688C22.7802 16.3324 22.755 16.2616 22.7081 16.1561ZM25.361 17.0851C25.2941 17.0906 25.258 17.1065 25.2526 17.1328C25.2515 17.1518 25.2619 17.1676 25.284 17.1803C25.306 17.193 25.3279 17.1934 25.3495 17.1814C25.3711 17.1694 25.375 17.1373 25.361 17.0851ZM25.0675 17.4154C25.0945 17.3771 25.1056 17.3492 25.101 17.3318C25.0854 17.2739 25.0255 17.2589 24.9212 17.2868C24.8864 17.2962 24.8758 17.3145 24.8894 17.342C24.9072 17.362 24.9316 17.3835 24.9625 17.4062C24.9977 17.4216 25.0263 17.4357 25.0484 17.4484C25.0762 17.4596 25.0791 17.4588 25.0571 17.4461C25.0686 17.443 25.0721 17.4328 25.0675 17.4154ZM25.789 17.222C25.818 17.2143 25.8309 17.2046 25.8278 17.193C25.8142 17.1656 25.7906 17.147 25.757 17.1374C25.7234 17.1278 25.695 17.1261 25.6718 17.1323C25.6544 17.137 25.6465 17.1422 25.648 17.148C25.6427 17.1743 25.6583 17.198 25.6951 17.2192C25.7376 17.2389 25.7676 17.2464 25.785 17.2417C25.7908 17.2402 25.7921 17.2336 25.789 17.222ZM25.2033 17.5746C25.2617 17.5838 25.3096 17.5772 25.3471 17.5548C25.3845 17.5323 25.4059 17.5079 25.4113 17.4816C25.4209 17.448 25.4161 17.4182 25.3967 17.3924C25.3758 17.3607 25.3414 17.3482 25.2935 17.3548C25.1892 17.3828 25.1486 17.4402 25.1719 17.5271C25.175 17.5387 25.1855 17.5546 25.2033 17.5746ZM27.0319 17.1313C26.9882 17.1305 26.9673 17.1454 26.9693 17.176C26.9697 17.2007 26.9902 17.2076 27.0308 17.1968C27.0424 17.1937 27.0427 17.1718 27.0319 17.1313ZM34.9114 7.79888L33.8799 8.12187C33.8003 8.14941 33.696 8.22393 33.5671 8.34545C33.4366 8.46117 33.3076 8.53611 33.1801 8.57027C32.9888 8.62152 32.8591 8.51964 32.7907 8.26463C32.6458 8.30346 32.5796 8.34605 32.592 8.39241C32.5951 8.40401 32.6035 8.42351 32.617 8.45094C32.6348 8.47101 32.6453 8.48685 32.6484 8.49844C32.6593 8.53901 32.6067 8.57482 32.4908 8.60588C32.1605 8.6944 31.9575 8.95688 31.8819 9.39332C31.8235 9.73196 31.8441 10.0867 31.9434 10.4577C31.9792 10.5909 32.0349 10.6599 32.1107 10.6644C32.1922 10.6674 32.317 10.6464 32.4851 10.6014L32.7111 10.5408C32.9545 10.4756 33.0996 10.4025 33.1462 10.3217L33.2163 10.2005C33.229 10.1784 33.2413 10.1782 33.2534 10.1998C33.2712 10.2199 33.2808 10.2328 33.2824 10.2386C33.2828 10.2634 33.2877 10.2931 33.297 10.3279L33.4095 10.4002C33.4095 10.4002 33.4098 10.4126 33.4102 10.4373C33.4148 10.4547 33.4164 10.4605 33.4148 10.4547C33.4226 10.4837 33.4499 10.5044 33.4966 10.5167C33.5477 10.5216 33.5805 10.5284 33.5952 10.5368C33.688 10.512 33.7449 10.4812 33.7661 10.4445C33.7633 10.3645 33.8064 10.3281 33.8953 10.3353C33.9826 10.3367 34.0495 10.3313 34.0959 10.3188C34.1248 10.3111 34.1472 10.302 34.1631 10.2915L34.1576 10.0973C34.1537 10.0362 34.1716 10.0221 34.2115 10.0549C34.2455 10.0893 34.262 10.1159 34.2609 10.1349C34.264 10.1464 34.2584 10.1604 34.2441 10.1766C34.2356 10.1913 34.2242 10.2068 34.21 10.223C34.1957 10.2393 34.1924 10.2619 34.2002 10.2909C34.2142 10.343 34.2461 10.4276 34.2961 10.5447C34.3504 10.6544 34.3868 10.744 34.4055 10.8136C34.3394 10.8685 34.314 10.9126 34.3291 10.9458C34.3442 10.9791 34.3788 11.0039 34.433 11.0205C34.4855 11.0313 34.5445 11.031 34.6098 11.0197C34.6809 11.0069 34.7373 10.9855 34.779 10.9557C34.7862 11.4694 34.4874 11.919 33.8826 12.3047C33.691 12.4244 33.4284 12.5569 33.0946 12.7022C32.7608 12.8475 32.3708 12.98 31.9246 13.0996C31.7855 13.1368 31.6973 13.2133 31.6599 13.3289C31.6268 13.4371 31.6099 13.5597 31.6093 13.6965C31.6087 13.8333 31.606 13.9738 31.6011 14.118C31.5947 14.2563 31.5553 14.3756 31.4827 14.4758C31.5169 14.6033 31.4707 14.802 31.3443 15.0719C31.322 15.1276 31.3123 15.1613 31.3154 15.1729C31.3139 15.1671 31.3583 15.1707 31.4488 15.1837C31.5435 15.1894 31.6484 15.1985 31.7636 15.2112C31.8788 15.2238 31.9903 15.2343 32.0982 15.2427C32.206 15.251 32.2744 15.2513 32.3034 15.2436C32.3382 15.2342 32.3756 15.2118 32.4158 15.1762C32.4602 15.1332 32.4762 15.0886 32.4637 15.0422C32.4544 15.0074 32.4366 14.9874 32.4103 14.982C32.3841 14.9766 32.3556 14.9749 32.3251 14.9769C32.3004 14.9773 32.2764 14.9806 32.2532 14.9868C32.2301 14.993 32.2169 14.9903 32.2138 14.9787C32.2107 14.9671 32.2342 14.9391 32.2844 14.8946C32.3331 14.8443 32.3535 14.8046 32.3457 14.7757L32.7598 14.8604L32.9103 14.7269C33.0022 14.6526 33.0714 14.6092 33.1177 14.5968C33.1351 14.5921 33.1377 14.6132 33.1254 14.6599C33.1115 14.7009 33.0934 14.7493 33.071 14.8049C33.0487 14.8606 33.0256 14.9134 33.0017 14.9633C32.9835 15.0116 32.9753 15.0387 32.9768 15.0445C32.997 15.1198 33.108 15.1398 33.3097 15.1044C33.3456 15.0761 33.3621 15.022 33.3593 14.942C33.3608 14.8546 33.3665 14.8065 33.3765 14.7976C33.4993 15.0008 33.6389 15.0814 33.7954 15.0394C33.8592 15.0224 33.9223 14.9682 33.9848 14.8769C34.0515 14.7783 34.1458 14.7126 34.2675 14.68C34.337 14.6614 34.4027 14.6748 34.4646 14.7204C34.5308 14.7586 34.5754 14.7745 34.5986 14.7683C34.6218 14.7621 34.6163 14.6953 34.5821 14.5678C34.6726 14.5808 34.7264 14.6192 34.7434 14.6829C34.7636 14.7583 34.7367 14.8431 34.6626 14.9375C34.5869 15.0261 34.5085 15.0813 34.4274 15.103C34.4036 15.2461 34.3785 15.3957 34.352 15.5519C34.3313 15.7065 34.2663 15.8233 34.157 15.9023L34.1556 15.6883C34.1549 15.732 34.0937 15.8167 33.9722 15.9425C33.8548 16.0609 33.7124 16.2015 33.5448 16.3645L32.7735 17.1022L30.7218 17.652L30.2114 17.9378C30.1466 17.9738 30.0619 18.0058 29.9576 18.0338C29.6331 18.1207 29.3244 18.0699 29.0316 17.8812C28.8301 17.7551 28.6575 17.5746 28.5138 17.3398C28.3686 17.0992 28.2641 16.8601 28.2005 16.6225C28.1679 16.5008 28.1385 16.3564 28.1124 16.1895C28.0848 16.0168 28.0422 15.8232 27.9848 15.6088C27.9964 15.6056 28.0051 15.5225 28.0111 15.3594C28.0214 15.189 28.0277 15.004 28.0302 14.8046C28.0326 14.6052 28.0332 14.4218 28.0318 14.2544C28.0363 14.0855 28.0369 13.9953 28.0338 13.9837L28.0951 13.8648L28.1302 13.6131C28.1421 13.5416 28.1442 13.4913 28.1364 13.4624C28.1344 13.4318 28.145 13.4135 28.1682 13.4073L28.9829 9.14518C28.9936 9.0926 28.9988 9.05395 28.9984 9.02921C28.9964 8.99868 28.9985 8.99501 29.0048 9.01819C29.0016 9.0066 28.9964 8.99868 28.9891 8.99444L29.0909 8.81808C29.1236 8.68508 29.1893 8.52461 29.288 8.33666C29.391 8.14135 29.5042 7.94952 29.6276 7.76115C29.7495 7.56698 29.8724 7.38808 29.9963 7.22444C30.1202 7.06081 30.2215 6.94049 30.3002 6.86348C30.4075 6.75397 30.496 6.6899 30.5655 6.67127L32.7304 5.84892C33.0573 5.72408 33.241 5.65622 33.2815 5.64535C33.4148 5.60964 33.5035 5.60451 33.5476 5.62996C33.6871 5.61743 33.8396 5.59522 34.0049 5.56332C34.1746 5.52409 34.3357 5.49954 34.4884 5.4897C34.641 5.47985 34.7767 5.4994 34.8954 5.54834C35.0126 5.59149 35.0929 5.6942 35.1364 5.85648C35.1426 5.87966 35.1467 5.90652 35.1486 5.93705C35.1564 5.96603 35.1613 5.99578 35.1632 6.02631C35.1737 6.04214 35.2095 6.09466 35.2707 6.18387C35.3303 6.26728 35.3959 6.36151 35.4676 6.46655C35.545 6.57004 35.5845 6.62468 35.586 6.63048C35.5922 6.65366 35.5984 6.67684 35.6047 6.70002C35.6109 6.7232 35.615 6.75006 35.6169 6.78059L35.7155 6.80076C35.7229 6.80501 35.7312 6.82451 35.7405 6.85929C35.7541 6.88671 35.7616 6.90332 35.7632 6.90912C35.7709 6.9381 35.7587 7.03145 35.7264 7.18918L35.6681 7.35389C35.5965 7.342 35.5465 7.3523 35.5179 7.3848C35.4936 7.40995 35.4745 7.44302 35.4607 7.484C35.4468 7.52499 35.4358 7.5652 35.4278 7.60463C35.4181 7.63827 35.393 7.66052 35.3525 7.67139C35.3177 7.68071 35.274 7.67999 35.2214 7.66923C35.1689 7.65847 35.1107 7.66163 35.047 7.67871C34.9774 7.69735 34.9322 7.7374 34.9114 7.79888ZM33.9145 9.92019C33.9706 9.96727 33.9981 10.0003 33.9969 10.0192C33.9943 10.0324 33.9755 10.0436 33.9408 10.0529C33.9102 10.0549 33.8731 10.0555 33.8294 10.0548C33.7858 10.0541 33.7465 10.0584 33.7118 10.0677C33.6473 10.1284 33.5919 10.165 33.5455 10.1775C33.5165 10.1852 33.4997 10.1804 33.4951 10.163C33.4857 10.1282 33.5104 10.0813 33.5691 10.0221C33.6278 9.96285 33.6803 9.92704 33.7267 9.91462C33.7846 9.89909 33.8472 9.90095 33.9145 9.92019ZM33.8352 10.5284C33.8063 10.5362 33.7925 10.543 33.7941 10.5488C33.7956 10.5546 33.8001 10.5596 33.8074 10.5638C33.819 10.5607 33.8283 10.5489 33.8352 10.5284ZM33.93 11.2298C33.8281 11.313 33.781 11.3691 33.7887 11.3981C33.798 11.4329 33.8831 11.4256 34.0438 11.3763C34.135 11.3457 34.2101 11.3131 34.2692 11.2787C34.3267 11.2384 34.3516 11.2038 34.3439 11.1748C34.3314 11.1285 34.2647 11.0997 34.1437 11.0887C34.0958 11.0953 34.0524 11.1069 34.0133 11.1236C33.9728 11.1345 33.945 11.1699 33.93 11.2298ZM33.2254 11.5211C33.1438 11.5181 33.1102 11.5551 33.1246 11.632C33.1208 11.664 33.1508 11.6715 33.2145 11.6545C33.2841 11.6358 33.3478 11.6187 33.4058 11.6032C33.5333 11.569 33.5862 11.5114 33.5644 11.4303C33.5473 11.3665 33.5011 11.3447 33.4258 11.3649C33.3562 11.3835 33.2894 11.4356 33.2254 11.5211ZM29.9328 14.2203C29.8342 14.2467 29.7951 14.2975 29.8153 14.3729C29.8448 14.483 29.8972 14.528 29.9725 14.5078C30.0015 14.5 30.0135 14.4751 30.0084 14.4329C30.0049 14.3966 29.9797 14.3257 29.9328 14.2203ZM32.5856 15.1493C32.5188 15.1548 32.4826 15.1707 32.4773 15.197C32.4761 15.2159 32.4866 15.2317 32.5086 15.2445C32.5307 15.2572 32.5525 15.2576 32.5741 15.2456C32.5958 15.2336 32.5996 15.2015 32.5856 15.1493ZM32.2921 15.4795C32.3191 15.4412 32.3303 15.4134 32.3256 15.396C32.3101 15.3381 32.2502 15.3231 32.1458 15.351C32.1111 15.3603 32.1005 15.3787 32.114 15.4061C32.1318 15.4262 32.1562 15.4476 32.1871 15.4704C32.2223 15.4858 32.2509 15.4999 32.273 15.5126C32.3008 15.5238 32.3037 15.523 32.2817 15.5103C32.2933 15.5072 32.2967 15.4969 32.2921 15.4795ZM33.0136 15.2862C33.0426 15.2784 33.0555 15.2688 33.0524 15.2572C33.0389 15.2297 33.0153 15.2112 32.9816 15.2016C32.948 15.192 32.9196 15.1903 32.8964 15.1965C32.879 15.2011 32.8711 15.2064 32.8727 15.2122C32.8673 15.2384 32.883 15.2622 32.9197 15.2834C32.9622 15.3031 32.9922 15.3106 33.0096 15.3059C33.0154 15.3044 33.0167 15.2978 33.0136 15.2862ZM32.4279 15.6388C32.4863 15.648 32.5342 15.6414 32.5717 15.6189C32.6092 15.5965 32.6306 15.5721 32.636 15.5458C32.6456 15.5122 32.6407 15.4824 32.6214 15.4565C32.6004 15.4249 32.566 15.4123 32.5181 15.419C32.4138 15.4469 32.3733 15.5044 32.3966 15.5913C32.3997 15.6029 32.4101 15.6187 32.4279 15.6388ZM34.2565 15.1954C34.2128 15.1947 34.192 15.2096 34.1939 15.2401C34.1943 15.2649 34.2148 15.2718 34.2554 15.2609C34.267 15.2578 34.2674 15.236 34.2565 15.1954ZM42.2412 14.5747L41.2966 14.8744C41.1333 14.6821 40.9125 14.6232 40.6343 14.6978C40.4489 14.7475 40.3095 14.8531 40.2161 15.0148L39.4082 14.7468C39.4009 14.7425 39.3667 14.7424 39.3056 14.7463C39.243 14.7445 39.2078 14.729 39.2 14.7001L38.6929 14.7894L38.5215 14.9844C38.4744 15.0405 38.4115 15.107 38.3327 15.184C38.2613 15.2653 38.1704 15.3549 38.06 15.4528C37.9839 15.5166 37.9053 15.5594 37.8242 15.5812C37.7257 15.6076 37.6547 15.5862 37.6114 15.5171C37.5561 15.5195 37.4941 15.5547 37.4254 15.6228L37.1891 15.8538C36.9571 16.0775 36.7948 16.2018 36.702 16.2266C36.5977 16.2546 36.5124 16.2029 36.4462 16.0715L36.3476 16.0514C36.3271 16.0444 36.294 15.9788 36.2482 15.8544L36.1912 15.7113C36.1761 15.678 36.1631 15.6411 36.1523 15.6006C35.9954 15.0152 36.1237 14.3348 36.5371 13.5594C36.5864 13.4654 36.6557 13.3413 36.7448 13.187C36.8339 13.0327 36.9465 12.8503 37.0827 12.6399C37.3207 12.2531 37.4989 11.9445 37.6173 11.714C37.6334 11.6351 37.6822 11.5506 37.7636 11.4604C37.8493 11.3629 37.9041 11.2893 37.928 11.2394L38.7735 9.45681C38.8546 9.43507 38.9034 9.39714 38.92 9.34301C38.9365 9.28888 38.9506 9.26026 38.9622 9.25716L40.4905 6.40648C40.4131 6.30299 40.3193 6.266 40.2092 6.2955C40.128 6.31724 40.0278 6.37205 39.9085 6.45993C39.7876 6.54201 39.6953 6.59159 39.6315 6.60868C39.5794 6.62265 39.5419 6.64511 39.5191 6.67606C39.5022 6.70545 39.4868 6.74064 39.4729 6.78163C39.4633 6.81526 39.45 6.84678 39.433 6.87617C39.4218 6.90401 39.3931 6.92415 39.3467 6.93657C39.3061 6.94744 39.2393 6.95293 39.1461 6.95304C39.0588 6.9516 38.962 6.94959 38.8557 6.94701C38.7552 6.94288 38.6555 6.94165 38.5565 6.94331C38.4576 6.94498 38.3791 6.95357 38.3212 6.9691C38.298 6.97532 38.2634 6.997 38.2175 7.03416C38.1773 7.06976 38.137 7.093 38.0964 7.10387C38.0558 7.11474 38.0208 7.11169 37.9915 7.09472C37.9621 7.07775 37.9387 7.0716 37.9213 7.07625C37.8865 7.08557 37.8635 7.10415 37.8524 7.13199C37.8412 7.15983 37.8316 7.19347 37.8235 7.2329C37.8139 7.26654 37.7992 7.30463 37.7796 7.34716C37.7642 7.38235 37.7319 7.41273 37.6829 7.4383L37.5531 7.51034C37.4924 7.53902 37.3974 7.55517 37.2679 7.5588C37.1384 7.56244 37.0042 7.58289 36.8651 7.62016L36.7548 7.55652C36.5344 7.42924 36.3998 7.34418 36.351 7.30134C36.2934 7.24845 36.2498 7.16696 36.2203 7.05684C36.1799 6.90616 36.1648 6.74559 36.1751 6.57513C36.1853 6.40467 36.1929 6.29393 36.1979 6.24291C36.2251 6.04306 36.2863 5.87757 36.3816 5.74643C36.4827 5.61374 36.6347 5.52022 36.8376 5.46587C36.8723 5.45655 36.9079 5.45013 36.9442 5.44661C36.979 5.43729 37.0174 5.4301 37.0595 5.42502L38.3342 5.27914L40.479 4.55538C40.4732 4.55693 40.4813 4.56407 40.5034 4.5768C40.5238 4.58373 40.5486 4.58331 40.5776 4.57555C40.6529 4.55536 40.757 4.51504 40.8899 4.45459C41.027 4.38679 41.1304 4.34357 41.1999 4.32494C41.2231 4.31872 41.2644 4.31075 41.3239 4.30102C41.3877 4.28394 41.4312 4.27229 41.4543 4.26608C41.5065 4.2521 41.5558 4.2389 41.6021 4.22648C41.6527 4.20671 41.7004 4.18771 41.7453 4.16949C41.7673 4.18222 41.8046 4.19396 41.8572 4.20472C41.9156 4.21393 41.9792 4.23105 42.048 4.25609C42.1168 4.28113 42.18 4.32009 42.2377 4.37297C42.2996 4.4185 42.3422 4.48474 42.3655 4.57167C42.4214 4.78031 42.5763 4.90651 42.8303 4.95026L42.9376 4.96811C42.9453 4.99709 42.9752 5.03879 43.027 5.09323C43.0773 5.14186 43.1102 5.19516 43.1258 5.25312C43.1537 5.35744 43.1535 5.47242 43.125 5.59806C43.1008 5.71636 43.0926 5.79 43.1003 5.81897C43.1143 5.87113 43.1501 5.92365 43.2078 5.97653C43.2654 6.02942 43.3005 6.07904 43.3129 6.1254C43.3284 6.18336 43.3204 6.22279 43.2887 6.2437C43.2613 6.25726 43.2522 6.28143 43.2615 6.3162C43.2615 6.3162 43.2714 6.3415 43.2912 6.39211C43.311 6.44272 43.3369 6.51651 43.3691 6.61348C43.3889 6.66408 43.3897 6.71355 43.3716 6.76189L43.2993 6.87444C43.3117 6.92081 43.3022 7.00102 43.2706 7.11507C43.2448 7.22757 43.2156 7.35032 43.1829 7.48331C43.1487 7.61051 43.1166 7.73403 43.0865 7.85388C43.0608 7.96638 43.0533 8.04292 43.0642 8.08349C43.0922 8.18781 43.1562 8.27624 43.2564 8.34878C43.2479 8.36347 43.2236 8.38863 43.1835 8.42423C43.1476 8.45249 43.1335 8.48111 43.1412 8.51008C43.1475 8.53327 43.1558 8.55277 43.1662 8.56861L43.1166 8.731L42.9255 8.92196C42.9255 8.92196 42.9315 8.93277 42.9435 8.9544C42.954 8.97024 42.9584 8.97526 42.9569 8.96946C42.9615 8.98685 42.9538 9.00444 42.9337 9.02224C42.9137 9.04005 42.9059 9.05764 42.9106 9.07503L41.8067 10.9362L41.7778 11.0371C41.7751 11.0502 41.7609 11.0665 41.735 11.0858C41.7134 11.0978 41.7064 11.1183 41.7142 11.1473L41.4882 11.2079C41.528 11.2407 41.5499 11.2876 41.5538 11.3487C41.5578 11.4097 41.5433 11.4602 41.5105 11.5L41.4353 11.5668L41.4174 11.6741C41.4078 11.7077 41.3916 11.74 41.3688 11.7709C41.3445 11.7961 41.3213 11.8023 41.2993 11.7896C41.273 11.7842 41.2676 11.7639 41.283 11.7287C41.2984 11.6935 41.3241 11.6618 41.36 11.6335L41.3801 11.535C41.3828 11.5218 41.3958 11.5121 41.4189 11.5059C41.4421 11.4997 41.4543 11.4871 41.4554 11.4682C41.4561 11.4245 41.4381 11.3921 41.4014 11.3709C41.3646 11.3497 41.3345 11.3764 41.311 11.451L41.2294 11.5288L40.9365 11.8961C40.8524 11.9994 40.8196 12.0858 40.8382 12.1554C40.8771 12.3002 41.1086 12.3531 41.533 12.314C41.5693 12.3104 41.668 12.2964 41.8292 12.2719C41.9887 12.2415 42.157 12.2089 42.334 12.1739C42.5168 12.1373 42.685 12.1046 42.8388 12.0759C42.9969 12.0397 43.0888 12.012 43.1147 11.9926L43.2824 12.0968C43.2971 12.1053 43.3102 12.108 43.3218 12.1048C43.3508 12.0971 43.4036 12.1202 43.4801 12.1742C43.5567 12.2282 43.6075 12.3016 43.6323 12.3943C43.6696 12.5334 43.6532 12.7273 43.5831 12.9759L43.5006 13.2589C43.4621 13.3934 43.4223 13.5346 43.3811 13.6822C43.3383 13.8241 43.2809 13.9576 43.2088 14.0825C43.1367 14.2074 43.0425 14.3196 42.9263 14.4191C42.8159 14.517 42.6679 14.5908 42.4825 14.6405C42.3608 14.6731 42.2803 14.6512 42.2412 14.5747ZM42.3368 7.28142C42.3391 7.24354 42.3402 7.2246 42.3402 7.2246C42.3371 7.21301 42.3253 7.20374 42.3048 7.19681C42.2859 7.19567 42.2635 7.20478 42.2376 7.22414C42.216 7.23615 42.2009 7.2495 42.1925 7.2642C42.1898 7.27734 42.1958 7.28815 42.2105 7.29664C42.231 7.30357 42.2731 7.2985 42.3368 7.28142ZM40.6064 11.7423C40.6567 11.7909 40.7062 11.7901 40.7548 11.7398C40.8019 11.6837 40.82 11.6353 40.8092 11.5948C40.8014 11.5658 40.7612 11.5548 40.6885 11.5619C40.5943 11.5809 40.5557 11.6223 40.5727 11.6861C40.5743 11.6919 40.5855 11.7106 40.6064 11.7423ZM39.8071 11.854C39.7576 11.8548 39.7368 11.8697 39.7445 11.8987C39.7581 11.9261 39.7794 11.9359 39.8083 11.9282C39.8199 11.9251 39.8195 11.9003 39.8071 11.854ZM41.2698 11.8534C41.2466 11.8596 41.2342 11.8598 41.2327 11.854C41.2327 11.854 41.2348 11.8503 41.239 11.843C41.2475 11.8283 41.2578 11.8317 41.2698 11.8534ZM39.7829 12.494C39.8119 12.4863 39.8249 12.4766 39.8217 12.465C39.8093 12.4186 39.7834 12.3914 39.744 12.3833C39.7088 12.3679 39.6775 12.367 39.65 12.3806C39.6269 12.3868 39.6184 12.4015 39.6246 12.4246C39.6292 12.442 39.6689 12.4625 39.7435 12.486C39.7729 12.5029 39.786 12.5056 39.7829 12.494ZM38.1187 15.0457C38.2346 15.0147 38.311 14.929 38.3479 14.7886C38.2983 14.6963 38.2355 14.6821 38.1595 14.7459C38.0834 14.8098 38.0555 14.8794 38.0756 14.9548C38.0803 14.9721 38.0946 15.0025 38.1187 15.0457ZM38.0434 15.1125C38.0608 15.1078 38.0737 15.0981 38.0822 15.0835C38.0675 15.075 38.0483 15.0615 38.0247 15.0429C37.9996 15.0186 37.9754 15.0096 37.9522 15.0158C37.9464 15.0173 37.9443 15.021 37.9459 15.0268C37.9483 15.0821 37.9808 15.1106 38.0434 15.1125ZM37.9492 15.352C37.9152 15.4108 37.8961 15.4439 37.8919 15.4512C37.8876 15.4586 37.8905 15.4578 37.9006 15.4489C37.9106 15.44 37.922 15.4245 37.9347 15.4025C37.9475 15.3804 37.9523 15.3636 37.9492 15.352ZM47.4522 4.60631C47.5265 4.6982 47.6003 4.84614 47.6736 5.05012C47.6996 5.12391 47.7302 5.21509 47.7655 5.32365C47.8051 5.42487 47.8468 5.52241 47.8905 5.61627C47.9343 5.71014 47.9808 5.79086 48.03 5.85844C48.0834 5.91867 48.1362 5.94179 48.1883 5.92782C48.3158 5.89365 48.3782 5.83657 48.3754 5.75657C48.371 5.67077 48.3794 5.6095 48.4007 5.57276L48.4759 5.506C48.496 5.4882 48.5149 5.44276 48.5326 5.36969C48.5545 5.28928 48.5736 5.20964 48.5897 5.13077C48.6043 5.04611 48.617 4.97749 48.6277 4.92492C48.6369 4.86655 48.6446 4.84895 48.6509 4.87213L48.7122 4.75321L48.7728 4.59719L48.7907 4.48992C48.7957 4.43889 48.8325 4.37933 48.9012 4.31122C48.9699 4.24312 48.9903 4.15691 48.9624 4.05259L49.4938 2.94117L49.5203 2.83156C49.5488 2.70592 49.6093 2.5841 49.7019 2.46611C49.7946 2.34812 49.9073 2.21232 50.04 2.05872L50.0602 1.96014C50.064 1.92806 50.0889 1.89344 50.1349 1.85628C50.1808 1.81912 50.2333 1.78331 50.2924 1.74884C50.35 1.70858 50.4062 1.67488 50.461 1.64776C50.5159 1.62064 50.552 1.60476 50.5694 1.6001C50.6853 1.56904 50.7997 1.57876 50.9126 1.62925C51.024 1.67395 51.1363 1.73392 51.2496 1.80915C51.3614 1.87858 51.4682 1.95247 51.5699 2.03081C51.6775 2.10759 51.7825 2.16331 51.8849 2.19797C51.9734 2.52832 52.0203 2.76113 52.0255 2.89639C52.1008 2.87621 52.1312 2.90844 52.1166 2.9931C52.1063 3.07041 52.0737 3.1692 52.019 3.28947C51.9685 3.40238 51.9101 3.52053 51.8438 3.6439C51.7759 3.76147 51.7308 3.8481 51.7084 3.90378C51.5647 4.27151 51.4379 4.56327 51.328 4.77907C51.2223 4.98752 51.1243 5.1318 51.034 5.21191L50.95 5.281L50.7729 5.52412C50.7687 5.53147 50.7575 5.55931 50.7394 5.60764C50.7213 5.65598 50.7018 5.71088 50.681 5.77236C50.6645 5.82649 50.6442 5.8785 50.6203 5.92838C50.6007 5.97092 50.5822 5.99452 50.5648 5.99918C50.5242 6.01005 50.4876 5.95463 50.455 5.83292C50.427 5.7286 50.3899 5.68266 50.3435 5.69508C50.3145 5.70284 50.2889 5.73457 50.2665 5.79025C50.2442 5.84593 50.2384 5.89406 50.2493 5.93463C50.285 6.06792 50.3493 6.12215 50.442 6.0973C50.4513 6.13208 50.4388 6.21306 50.4046 6.34026C50.3688 6.46166 50.3237 6.59486 50.2694 6.73986C50.2193 6.87751 50.1632 7.00435 50.1012 7.12037C50.0433 7.22905 49.9912 7.2896 49.9448 7.30202C49.9275 7.30668 49.8857 7.28992 49.8196 7.25173C49.7534 7.21355 49.6972 7.20067 49.6508 7.21309C49.6102 7.22396 49.5701 7.25957 49.5304 7.31991C49.4906 7.38025 49.4447 7.41741 49.3925 7.43138C49.3403 7.44536 49.2802 7.41799 49.2121 7.34928C49.1187 7.4178 49.0937 7.5332 49.1372 7.69547C49.1713 7.82297 49.2319 7.87508 49.3188 7.85179C49.3362 7.84713 49.3723 7.83124 49.4272 7.80412C49.4862 7.76965 49.5197 7.7669 49.5274 7.79588C49.529 7.80168 49.5033 7.8334 49.4504 7.89105C49.4018 7.94135 49.3507 8.01717 49.2971 8.11849C49.2419 8.21402 49.1996 8.33408 49.17 8.47866C49.1446 8.6159 49.1568 8.77725 49.2065 8.9627C49.2376 9.07862 49.2589 9.13502 49.2705 9.13191C49.2747 9.12456 49.2801 9.09828 49.2866 9.05305L49.2928 8.90231C49.293 8.74075 49.3155 8.65087 49.3603 8.63265L49.3869 8.52304C49.4912 8.49509 49.5472 8.4956 49.555 8.52458C49.5659 8.56515 49.5325 8.61447 49.4549 8.67254C49.383 8.72905 49.3596 8.80367 49.3844 8.8964C49.3906 8.91958 49.3961 8.93987 49.4007 8.95725C49.4112 8.97309 49.4187 8.9897 49.4234 9.00708C49.4327 9.04186 49.4144 9.07782 49.3684 9.11498C49.3209 9.14634 49.2073 9.1861 49.0277 9.23424C48.9523 9.25442 48.9286 9.31668 48.9566 9.421C48.9737 9.48475 49.0118 9.54596 49.071 9.60464C49.1345 9.65597 49.1981 9.67309 49.2618 9.65601C49.3024 9.64514 49.3422 9.63137 49.3812 9.6147C49.426 9.59649 49.4755 9.59565 49.5296 9.61221L49.5094 9.71079C49.441 9.71048 49.3807 9.71732 49.3286 9.73129C49.1779 9.77167 49.0827 9.8686 49.0431 10.0221C49.0019 10.1698 49.0102 10.3166 49.068 10.4627C49.126 10.4471 49.1638 10.4494 49.1816 10.4695C49.2052 10.488 49.2159 10.5162 49.2136 10.5541C49.2171 10.5904 49.2164 10.6341 49.2115 10.6851C49.2107 10.7288 49.2166 10.7738 49.229 10.8202C49.2725 10.9824 49.2657 11.0961 49.2086 11.1611L49.1014 11.283C49.093 11.2977 49.1057 11.3222 49.1398 11.3565C49.1723 11.3851 49.1967 11.4065 49.2129 11.4208C49.2733 11.4605 49.2754 11.5034 49.2195 11.5495L49.1355 11.6186L48.9629 12.7829L48.8495 12.9158C48.8252 12.941 48.8006 12.9537 48.7759 12.9542C48.738 12.9519 48.6861 12.9782 48.62 13.0332C48.5598 13.0866 48.4859 13.1468 48.3982 13.2138C48.3179 13.285 48.2274 13.3527 48.1266 13.417C48.0273 13.4871 47.9197 13.5376 47.8038 13.5687C47.7401 13.5858 47.5953 13.5438 47.3694 13.4428C47.3621 13.4386 47.334 13.415 47.2853 13.3722C47.2381 13.3352 47.1799 13.2917 47.1106 13.242C47.0487 13.1964 46.9847 13.1546 46.9186 13.1164C46.854 13.084 46.7985 13.074 46.7522 13.0864C46.5841 13.1315 46.4239 13.1247 46.2715 13.0661C46.1192 13.0076 46.0205 12.8943 45.9755 12.7262C45.9553 12.6509 45.9441 12.5513 45.9421 12.4277L45.9655 10.707C45.9684 10.5323 45.9742 10.3568 45.9829 10.1805C45.9973 10.0027 46.0052 9.82359 46.0066 9.64309C46.0164 9.4479 46.0133 9.26239 45.9972 9.08655C45.9854 8.90337 45.9643 8.73198 45.934 8.5724C45.6755 8.3497 45.4539 8.06744 45.2692 7.72561L45.1619 7.70777L45.0897 7.43827C45.0804 7.4035 45.0614 7.35579 45.0327 7.29515C45.004 7.2345 44.9724 7.17463 44.938 7.11554C44.9035 7.05645 44.864 7.00181 44.8195 6.95161C44.775 6.90142 44.7323 6.8694 44.6913 6.85553L44.584 6.83769L44.4365 6.63495C44.3753 6.54575 44.305 6.43413 44.2257 6.30012C44.1463 6.1661 44.0491 6.012 43.9341 5.83783C43.931 5.82624 43.9033 5.78086 43.851 5.70169C43.7987 5.62252 43.7441 5.53466 43.6872 5.43811C43.6303 5.34155 43.5778 5.25001 43.5298 5.1635C43.4817 5.07698 43.4575 5.02135 43.4571 4.99662C43.469 4.32256 43.8286 3.76345 44.5357 3.31929C44.7447 3.19498 44.9564 3.10409 45.1708 3.04664C45.9822 2.82923 46.6198 3.05282 47.0836 3.71743C47.1641 3.8325 47.234 3.96596 47.2934 4.11778C47.3569 4.26225 47.4099 4.42509 47.4522 4.60631ZM49.7402 2.92174C49.7923 2.90776 49.8217 2.87816 49.8282 2.83293C49.8374 2.77456 49.8439 2.72933 49.8477 2.69725C49.8558 2.65782 49.8309 2.64587 49.7729 2.6614C49.7034 2.68003 49.6833 2.74441 49.7128 2.85452C49.7206 2.8835 49.7297 2.90591 49.7402 2.92174ZM49.6711 8.15805C49.6421 8.16581 49.6268 8.1668 49.6253 8.161C49.6253 8.161 49.6295 8.15365 49.638 8.13895C49.6465 8.12426 49.6575 8.13062 49.6711 8.15805ZM18.1004 27.8325L17.0688 28.1555C16.9892 28.1831 16.885 28.2576 16.756 28.3791C16.6255 28.4948 16.4965 28.5698 16.369 28.6039C16.1778 28.6552 16.048 28.5533 15.9797 28.2983C15.8348 28.3371 15.7685 28.3797 15.781 28.4261C15.7841 28.4377 15.7924 28.4572 15.806 28.4846C15.8238 28.5047 15.8342 28.5205 15.8373 28.5321C15.8482 28.5727 15.7957 28.6085 15.6798 28.6395C15.3494 28.7281 15.1464 28.9905 15.0708 29.427C15.0125 29.7656 15.033 30.1204 15.1324 30.4913C15.1681 30.6246 15.2238 30.6935 15.2996 30.6981C15.3811 30.7011 15.506 30.68 15.674 30.635L15.9001 30.5744C16.1435 30.5092 16.2885 30.4362 16.3352 30.3554L16.4052 30.2341C16.4179 30.2121 16.4303 30.2119 16.4423 30.2335C16.4601 30.2536 16.4698 30.2665 16.4713 30.2723C16.4717 30.297 16.4766 30.3268 16.4859 30.3616L16.5985 30.4339C16.5985 30.4339 16.5987 30.4463 16.5991 30.471C16.6038 30.4884 16.6053 30.4942 16.6038 30.4884C16.6115 30.5174 16.6388 30.538 16.6856 30.5503C16.7366 30.5553 16.7695 30.562 16.7842 30.5705C16.8769 30.5456 16.9339 30.5149 16.9551 30.4781C16.9523 30.3981 16.9953 30.3617 17.0842 30.369C17.1716 30.3704 17.2384 30.3649 17.2848 30.3525C17.3138 30.3447 17.3362 30.3356 17.352 30.3252L17.3466 30.131C17.3426 30.0699 17.3606 30.0558 17.4004 30.0886C17.4345 30.1229 17.4509 30.1496 17.4498 30.1685C17.4529 30.1801 17.4473 30.194 17.433 30.2103C17.4245 30.225 17.4132 30.2404 17.3989 30.2567C17.3846 30.2729 17.3813 30.2956 17.3891 30.3245C17.4031 30.3767 17.4351 30.4613 17.4851 30.5783C17.5393 30.688 17.5757 30.7777 17.5944 30.8472C17.5284 30.9022 17.5029 30.9463 17.518 30.9795C17.5331 31.0127 17.5678 31.0376 17.6219 31.0542C17.6745 31.0649 17.7334 31.0646 17.7987 31.0534C17.8698 31.0405 17.9262 31.0192 17.9679 30.9894C17.9751 31.503 17.6763 31.9527 17.0715 32.3384C16.8799 32.458 16.6173 32.5905 16.2835 32.7358C15.9498 32.8812 15.5598 33.0136 15.1135 33.1332C14.9744 33.1705 14.8862 33.2469 14.8488 33.3625C14.8157 33.4708 14.7989 33.5933 14.7983 33.7301C14.7977 33.867 14.7949 34.0075 14.7901 34.1516C14.7837 34.29 14.7442 34.4093 14.6717 34.5095C14.7058 34.637 14.6597 34.8357 14.5332 35.1056C14.5109 35.1613 14.5013 35.1949 14.5044 35.2065C14.5028 35.2007 14.5473 35.2043 14.6377 35.2174C14.7324 35.2231 14.8374 35.2322 14.9525 35.2448C15.0677 35.2574 15.1793 35.2679 15.2871 35.2763C15.3949 35.2847 15.4633 35.285 15.4923 35.2772C15.5271 35.2679 15.5646 35.2454 15.6047 35.2098C15.6491 35.1669 15.6651 35.1222 15.6527 35.0759C15.6434 35.0411 15.6256 35.021 15.5993 35.0156C15.573 35.0102 15.5446 35.0085 15.514 35.0105C15.4893 35.0109 15.4653 35.0142 15.4422 35.0205C15.419 35.0267 15.4058 35.024 15.4027 35.0124C15.3996 35.0008 15.4232 34.9727 15.4734 34.9282C15.522 34.8779 15.5424 34.8383 15.5347 34.8093L15.9487 34.894L16.0993 34.7605C16.1912 34.6862 16.2603 34.6428 16.3067 34.6304C16.3241 34.6258 16.3266 34.6468 16.3143 34.6936C16.3004 34.7346 16.2823 34.7829 16.26 34.8386C16.2376 34.8943 16.2145 34.9471 16.1906 34.9969C16.1725 35.0453 16.1642 35.0723 16.1657 35.0781C16.1859 35.1535 16.2969 35.1734 16.4986 35.138C16.5345 35.1098 16.5511 35.0557 16.5483 34.9756C16.5497 34.8883 16.5554 34.8402 16.5655 34.8313C16.6882 35.0344 16.8279 35.115 16.9843 35.0731C17.0481 35.056 17.1112 35.0018 17.1737 34.9105C17.2405 34.8119 17.3347 34.7463 17.4564 34.7137C17.5259 34.695 17.5917 34.7085 17.6536 34.754C17.7197 34.7922 17.7644 34.8082 17.7875 34.802C17.8107 34.7958 17.8052 34.7289 17.7711 34.6014C17.8615 34.6144 17.9153 34.6528 17.9324 34.7166C17.9526 34.7919 17.9256 34.8768 17.8515 34.9712C17.7759 35.0598 17.6975 35.115 17.6163 35.1367C17.5925 35.2797 17.5674 35.4293 17.5409 35.5855C17.5202 35.7401 17.4553 35.8569 17.346 35.9359L17.3446 35.722C17.3438 35.7657 17.2827 35.8504 17.1611 35.9761C17.0437 36.0945 16.9013 36.2352 16.7337 36.3981L15.9624 37.1359L13.9108 37.6856L13.4004 37.9715C13.3355 38.0075 13.2509 38.0395 13.1466 38.0674C12.822 38.1544 12.5133 38.1035 12.2205 37.9149C12.019 37.7888 11.8464 37.6083 11.7027 37.3735C11.5575 37.1329 11.4531 36.8937 11.3894 36.6561C11.3568 36.5344 11.3274 36.3901 11.3013 36.2232C11.2737 36.0504 11.2311 35.8568 11.1737 35.6424C11.1853 35.6393 11.1941 35.5562 11.2001 35.3931C11.2103 35.2226 11.2166 35.0377 11.2191 34.8383C11.2216 34.6388 11.2221 34.4554 11.2208 34.2881C11.2252 34.1192 11.2259 34.0289 11.2228 34.0173L11.2841 33.8984L11.3191 33.6468C11.331 33.5752 11.3331 33.525 11.3253 33.496C11.3234 33.4655 11.334 33.4471 11.3572 33.4409L12.1718 29.1788C12.1826 29.1263 12.1877 29.0876 12.1873 29.0629C12.1854 29.0323 12.1875 29.0287 12.1937 29.0518C12.1906 29.0403 12.1854 29.0323 12.178 29.0281L12.2798 28.8517C12.3125 28.7187 12.3782 28.5583 12.4769 28.3703C12.5799 28.175 12.6931 27.9832 12.8166 27.7948C12.9385 27.6006 13.0613 27.4217 13.1852 27.2581C13.3091 27.0945 13.4104 26.9741 13.4891 26.8971C13.5965 26.7876 13.6849 26.7236 13.7544 26.7049L15.9194 25.8826C16.2462 25.7577 16.4299 25.6899 16.4705 25.679C16.6038 25.6433 16.6924 25.6382 16.7365 25.6636C16.876 25.6511 17.0285 25.6289 17.1939 25.597C17.3635 25.5577 17.5246 25.5332 17.6773 25.5234C17.8299 25.5135 17.9656 25.5331 18.0843 25.582C18.2015 25.6251 18.2818 25.7279 18.3253 25.8901C18.3315 25.9133 18.3356 25.9402 18.3376 25.9707C18.3453 25.9997 18.3502 26.0294 18.3522 26.06C18.3626 26.0758 18.3984 26.1283 18.4596 26.2175C18.5192 26.3009 18.5849 26.3952 18.6565 26.5002C18.7339 26.6037 18.7734 26.6583 18.7749 26.6641C18.7812 26.6873 18.7874 26.7105 18.7936 26.7337C18.7998 26.7569 18.8039 26.7837 18.8059 26.8142L18.9044 26.8344C18.9118 26.8387 18.9201 26.8582 18.9294 26.8929C18.943 26.9204 18.9506 26.937 18.9521 26.9428C18.9599 26.9718 18.9476 27.0651 18.9153 27.2228L18.857 27.3875C18.7855 27.3757 18.7354 27.386 18.7069 27.4185C18.6825 27.4436 18.6635 27.4767 18.6496 27.5177C18.6357 27.5586 18.6248 27.5989 18.6167 27.6383C18.6071 27.6719 18.582 27.6942 18.5414 27.705C18.5066 27.7144 18.463 27.7136 18.4104 27.7029C18.3578 27.6921 18.2996 27.6953 18.2359 27.7124C18.1663 27.731 18.1212 27.7711 18.1004 27.8325ZM17.1034 29.9538C17.1595 30.0009 17.187 30.0339 17.1859 30.0529C17.1832 30.066 17.1645 30.0773 17.1297 30.0866C17.0992 30.0885 17.062 30.0892 17.0184 30.0884C16.9747 30.0877 16.9355 30.092 16.9007 30.1013C16.8362 30.1621 16.7808 30.1987 16.7344 30.2111C16.7055 30.2189 16.6887 30.2141 16.684 30.1967C16.6747 30.1619 16.6994 30.1149 16.758 30.0557C16.8167 29.9965 16.8692 29.9607 16.9156 29.9483C16.9735 29.9327 17.0362 29.9346 17.1034 29.9538ZM17.0242 30.5621C16.9952 30.5699 16.9815 30.5766 16.983 30.5824C16.9846 30.5882 16.989 30.5932 16.9964 30.5975C17.008 30.5944 17.0172 30.5826 17.0242 30.5621ZM17.1189 31.2635C17.017 31.3467 16.9699 31.4028 16.9777 31.4318C16.987 31.4665 17.072 31.4593 17.2327 31.41C17.3239 31.3794 17.399 31.3468 17.4581 31.3123C17.5157 31.2721 17.5405 31.2374 17.5328 31.2085C17.5204 31.1621 17.4537 31.1334 17.3327 31.1223C17.2848 31.129 17.2413 31.1406 17.2023 31.1573C17.1617 31.1681 17.1339 31.2035 17.1189 31.2635ZM16.4143 31.5548C16.3327 31.5518 16.2992 31.5887 16.3136 31.6656C16.3097 31.6977 16.3397 31.7052 16.4034 31.6881C16.473 31.6695 16.5367 31.6524 16.5947 31.6369C16.7222 31.6027 16.7751 31.545 16.7533 31.4639C16.7363 31.4002 16.69 31.3784 16.6147 31.3986C16.5452 31.4172 16.4784 31.4693 16.4143 31.5548ZM13.1217 34.2539C13.0232 34.2803 12.984 34.3312 13.0042 34.4065C13.0337 34.5166 13.0861 34.5616 13.1615 34.5414C13.1904 34.5337 13.2024 34.5087 13.1973 34.4666C13.1938 34.4303 13.1686 34.3594 13.1217 34.2539ZM15.7745 35.183C15.7077 35.1885 15.6716 35.2043 15.6662 35.2306C15.6651 35.2496 15.6755 35.2654 15.6976 35.2781C15.7196 35.2909 15.7414 35.2912 15.7631 35.2792C15.7847 35.2672 15.7885 35.2351 15.7745 35.183ZM15.481 35.5132C15.508 35.4749 15.5192 35.4471 15.5145 35.4297C15.499 35.3717 15.4391 35.3567 15.3348 35.3847C15.3 35.394 15.2894 35.4123 15.3029 35.4398C15.3207 35.4599 15.3451 35.4813 15.3761 35.504C15.4113 35.5195 15.4399 35.5335 15.4619 35.5463C15.4898 35.5574 15.4927 35.5567 15.4706 35.5439C15.4822 35.5408 15.4857 35.5306 15.481 35.5132ZM16.2026 35.3199C16.2315 35.3121 16.2445 35.3024 16.2414 35.2908C16.2278 35.2634 16.2042 35.2449 16.1706 35.2352C16.1369 35.2256 16.1085 35.2239 16.0853 35.2301C16.068 35.2348 16.06 35.24 16.0616 35.2458C16.0562 35.2721 16.0719 35.2959 16.1086 35.3171C16.1512 35.3367 16.1811 35.3442 16.1985 35.3396C16.2043 35.338 16.2057 35.3314 16.2026 35.3199ZM15.6169 35.6725C15.6752 35.6817 15.7232 35.675 15.7606 35.6526C15.7981 35.6301 15.8195 35.6057 15.8249 35.5794C15.8345 35.5458 15.8296 35.5161 15.8103 35.4902C15.7894 35.4585 15.755 35.446 15.707 35.4526C15.6027 35.4806 15.5622 35.538 15.5855 35.625C15.5886 35.6365 15.5991 35.6524 15.6169 35.6725ZM17.4454 35.2291C17.4017 35.2284 17.3809 35.2433 17.3829 35.2738C17.3833 35.2985 17.4038 35.3055 17.4443 35.2946C17.4559 35.2915 17.4563 35.2697 17.4454 35.2291ZM25.227 24.0035C25.2977 23.966 25.3707 23.9371 25.4461 23.9169C25.5794 23.8812 25.7031 23.8791 25.8171 23.9107C25.9312 23.9422 26.0333 23.9987 26.1234 24.0802C26.2178 24.1543 26.2995 24.2504 26.3684 24.3686C26.4358 24.481 26.4866 24.6009 26.5207 24.7284C26.5363 24.7864 26.5389 24.854 26.5285 24.9313C26.5224 25.0013 26.5113 25.0757 26.4952 25.1546C26.4775 25.2276 26.4619 25.297 26.4485 25.3627C26.4392 25.4211 26.4393 25.4677 26.4486 25.5025C26.4626 25.5546 26.4995 25.5882 26.5595 25.6032C26.6178 25.6124 26.6556 25.6489 26.6727 25.7126C26.6789 25.7358 26.6557 25.7886 26.6033 25.871C26.5566 25.9518 26.5333 25.9922 26.5333 25.9922C26.5472 26.0444 26.5483 26.1062 26.5364 26.1777C26.5287 26.2419 26.5145 26.3047 26.4937 26.3662C26.4787 26.4261 26.4622 26.4803 26.444 26.5286C26.4244 26.5711 26.4132 26.599 26.4105 26.6121C26.3472 26.6539 26.325 26.722 26.3441 26.8163C26.3616 26.9048 26.3555 26.9747 26.3258 27.0262L26.1603 27.3128L25.8689 28.4158C25.8662 28.4289 25.8598 28.4399 25.8498 28.4488C25.8398 28.4577 25.8402 28.4825 25.851 28.523L25.7469 28.6907C25.7756 28.7514 25.7994 28.7823 25.8183 28.7834C25.8372 28.7845 25.856 28.7733 25.8745 28.7497C25.8988 28.7245 25.9195 28.6973 25.9364 28.6679C25.9592 28.6369 25.9851 28.6176 26.0141 28.6098C26.0198 28.6083 26.0243 28.6133 26.0274 28.6249C26.06 28.7466 26.0638 28.8418 26.0388 28.9107C26.018 28.9721 25.9832 29.028 25.9346 29.0783C25.8902 29.1213 25.8429 29.165 25.7927 29.2095C25.7425 29.254 25.7094 29.3157 25.6932 29.3946C25.6515 29.4244 25.6317 29.4546 25.6336 29.4851C25.6356 29.5156 25.6412 29.5483 25.6506 29.5831C25.6583 29.612 25.6566 29.6404 25.6454 29.6683C25.6401 29.6946 25.6055 29.7163 25.5417 29.7333C25.4027 29.7706 25.3264 29.8687 25.3131 30.0275C25.2998 30.1864 25.3133 30.3412 25.3537 30.4919C25.3785 30.5846 25.3641 30.6816 25.3105 30.7829C25.2554 30.8785 25.1814 30.9387 25.0887 30.9635C25.0586 30.9902 25.0428 31.0472 25.0414 31.1346C25.0384 31.2161 25.0425 31.2896 25.0538 31.3549C25.0635 31.4144 25.07 31.4499 25.0731 31.4615C25.0557 31.4662 25.0381 31.4585 25.0203 31.4384C25.0025 31.4183 24.9849 31.4106 24.9675 31.4153C24.9153 31.4292 24.8842 31.3941 24.874 31.3099C24.8697 31.2241 24.8725 31.1302 24.8824 31.0281C24.8966 30.9187 24.9138 30.8209 24.9342 30.7347C24.9546 30.6485 24.9663 30.6112 24.9695 30.6228C24.9446 30.53 24.8945 30.4938 24.8192 30.514C24.4772 30.6056 24.3272 30.7296 24.3692 30.8861C24.3723 30.8977 24.3843 30.9193 24.4052 30.951L24.3468 31.1157C24.4725 31.1442 24.5562 31.2366 24.5982 31.3931C24.6215 31.48 24.6187 31.574 24.5898 31.6749C24.5667 31.7742 24.5146 31.8348 24.4335 31.8565C24.3756 31.872 24.3135 31.8607 24.2474 31.8225C24.2057 31.8523 24.1902 31.8875 24.2011 31.9281C24.2135 31.9745 24.2523 32.0262 24.3172 32.0833C24.3807 32.1347 24.4132 32.1632 24.4147 32.169C24.4105 32.1764 24.3852 32.1863 24.3388 32.1987C24.2983 32.2095 24.2569 32.2175 24.2148 32.2226C24.1711 32.2219 24.134 32.2225 24.1035 32.2245C24.073 32.2264 24.0664 32.2251 24.0838 32.2204C23.991 32.2453 23.954 32.2925 23.9726 32.362C23.982 32.3968 24.0007 32.4321 24.029 32.468L24.1276 32.4882C24.1349 32.4925 24.1425 32.5091 24.1502 32.538C24.1623 32.5597 24.1683 32.5705 24.1683 32.5705C24.1745 32.5937 24.1706 32.6258 24.1568 32.6667C24.1487 32.7062 24.1493 32.7433 24.1587 32.7781C24.0884 32.8404 24.0771 32.9024 24.1247 32.9642C24.1781 33.0244 24.2149 33.0922 24.2351 33.1675C24.2521 33.2313 24.2085 33.2772 24.1042 33.3051C24.0173 33.3284 23.9676 33.3169 23.9552 33.2705C23.9427 33.2241 23.9076 33.2087 23.8496 33.2242C23.7974 33.2382 23.7776 33.2684 23.79 33.3148C23.7978 33.3437 23.7968 33.375 23.7872 33.4087C23.776 33.4365 23.7813 33.491 23.8031 33.5721C23.89 33.8967 23.8524 34.0807 23.6901 34.1242C23.6321 34.1397 23.5806 34.1908 23.5355 34.2774C23.4946 34.3567 23.4647 34.3958 23.4458 34.3946C23.421 34.3951 23.3846 34.352 23.3366 34.2655C23.3424 34.2639 23.3141 34.3088 23.2516 34.4001C23.1875 34.4856 23.1113 34.5837 23.0229 34.6943C22.933 34.7991 22.8357 34.8998 22.7311 34.9961C22.628 35.0983 22.5417 35.1587 22.4722 35.1773C22.3794 35.2021 22.3214 35.1711 22.2981 35.0842C22.2733 34.9914 22.2232 34.9552 22.1478 34.9754C22.1073 34.9862 22.0798 34.9998 22.0656 35.016C22.0586 35.0365 22.0546 35.0562 22.0535 35.0752C22.0539 35.0999 22.0477 35.1233 22.035 35.1454C22.0296 35.1716 22.0074 35.1931 21.9684 35.2098C21.8255 35.2791 21.6871 35.2727 21.5533 35.1906C21.4195 35.1084 21.2966 34.986 21.1847 34.8235C21.0728 34.6609 20.9744 34.4792 20.8895 34.2783C20.8089 34.0701 20.7453 33.879 20.6987 33.7051L20.4425 32.7489C20.4269 32.6909 20.4133 32.6169 20.4016 32.5269C20.3899 32.4368 20.3782 32.3468 20.3665 32.2568C20.3533 32.1609 20.3416 32.0709 20.3314 31.9866C20.3213 31.9024 20.3092 31.8342 20.2952 31.782C20.275 31.7067 20.2582 31.6553 20.2446 31.6279C20.1657 31.2639 20.0868 30.8999 20.0079 30.5359C19.9275 30.1662 19.8507 29.7985 19.7776 29.433C19.6905 29.0153 19.6126 28.62 19.5437 28.2471C19.4748 27.8742 19.4269 27.533 19.3999 27.2234C19.3897 27.1392 19.3963 27.0132 19.4197 26.8454C19.4489 26.6761 19.4852 26.4987 19.5286 26.3131C19.5694 26.1407 19.6413 26.0034 19.7444 25.9012C19.8459 25.7933 19.9604 25.7222 20.0879 25.688C20.2502 25.6446 20.391 25.6255 20.5105 25.6307C20.6284 25.6302 20.7356 25.648 20.8323 25.6843C20.9332 25.7131 21.033 25.7609 21.1316 25.8277C21.2345 25.8871 21.3492 25.9557 21.4757 26.0337L21.652 26.1355L21.8313 26.2831C21.877 26.3143 21.9161 26.3908 21.9487 26.5125L22 26.7038C22.005 26.7459 22.0115 26.7815 22.0192 26.8104C22.027 26.8394 22.034 26.8655 22.0402 26.8887C22.1085 27.1437 22.1746 27.2626 22.2383 27.2456L22.3051 27.3208C22.3229 27.3409 22.3352 27.3407 22.3422 27.3202C22.3491 27.2997 22.3553 27.2763 22.3606 27.2501C22.3718 27.2222 22.3845 27.2002 22.3988 27.1839C22.4115 27.1619 22.4334 27.1622 22.4643 27.185C22.5055 27.3852 22.5556 27.6761 22.6144 28.0579C22.6129 28.1453 22.6026 28.2226 22.5833 28.2898C22.5625 28.3513 22.5615 28.4168 22.5801 28.4864C22.5956 28.5443 22.6371 28.6295 22.7045 28.7419C22.7776 28.8527 22.8243 28.9458 22.8445 29.0212C22.8678 29.1081 22.8775 29.2484 22.8734 29.442C22.8723 29.461 22.8663 29.4967 22.8556 29.5493C22.8448 29.6019 22.8377 29.6566 22.8343 29.7134C22.8309 29.7702 22.8318 29.8197 22.8368 29.8618C22.8404 29.8981 22.8595 29.9116 22.8943 29.9023C23.0102 29.8713 23.1312 29.755 23.2574 29.5535C23.3877 29.3446 23.5014 29.0501 23.5983 28.6701C23.6664 28.391 23.7493 28.0395 23.847 27.6158C23.9431 27.1863 24.065 26.6909 24.2127 26.1295C24.4878 25.093 24.8259 24.3843 25.227 24.0035ZM26.1247 26.1017C26.1514 26.1318 26.1821 26.1422 26.2169 26.1329C26.2501 26.1178 26.2731 26.0992 26.2858 26.0772C26.2985 26.0551 26.2989 26.0333 26.2869 26.0117C26.2749 25.99 26.2391 25.9841 26.1796 25.9938C26.1259 26.002 26.1076 26.038 26.1247 26.1017ZM26.3071 27.8604C26.2781 27.8682 26.2628 27.8692 26.2613 27.8634C26.2613 27.8634 26.2655 27.856 26.274 27.8413C26.2767 27.8282 26.2877 27.8346 26.3071 27.8604ZM26.2683 27.8895L26.2892 27.9677C26.2487 27.9786 26.2355 27.9759 26.2498 27.9596C26.2625 27.9376 26.2687 27.9142 26.2683 27.8895ZM26.2487 28.0252C26.2255 28.0314 26.2132 28.0316 26.2116 28.0258C26.2116 28.0258 26.2174 28.0242 26.229 28.0211C26.2448 28.0107 26.2514 28.012 26.2487 28.0252ZM26.2169 28.0803C26.1879 28.088 26.1727 28.089 26.1711 28.0832C26.1711 28.0832 26.1754 28.0759 26.1838 28.0612C26.1881 28.0538 26.1991 28.0602 26.2169 28.0803ZM26.1471 28.3412C26.1123 28.3505 26.0999 28.3508 26.11 28.3419C26.12 28.333 26.1324 28.3327 26.1471 28.3412ZM26.1066 28.3987C26.0834 28.4049 26.071 28.4051 26.0695 28.3993C26.0695 28.3993 26.0708 28.3927 26.0735 28.3796C26.082 28.3649 26.093 28.3712 26.1066 28.3987ZM26.0771 28.4625C26.0481 28.4702 26.0328 28.4712 26.0313 28.4654C26.0282 28.4538 26.0287 28.4444 26.033 28.437C26.043 28.4281 26.0546 28.425 26.0678 28.4277C26.0751 28.4319 26.0782 28.4435 26.0771 28.4625ZM26.0569 28.5611C26.0337 28.5673 26.0213 28.5675 26.0198 28.5617C26.0198 28.5617 26.0211 28.5551 26.0238 28.542C26.0323 28.5273 26.0433 28.5336 26.0569 28.5611ZM25.1689 29.6283C25.3195 29.5879 25.3786 29.5069 25.346 29.3851C25.3061 29.3523 25.2688 29.3406 25.234 29.3499C25.1993 29.3592 25.1713 29.3823 25.15 29.419C25.1331 29.4484 25.1242 29.4849 25.1235 29.5286C25.127 29.5649 25.1421 29.5982 25.1689 29.6283ZM24.9716 29.97C24.9426 29.9777 24.9289 29.9845 24.9304 29.9903C24.932 29.9961 24.943 30.0025 24.9635 30.0094C24.9898 30.0148 24.9925 30.0016 24.9716 29.97ZM24.419 32.289L24.4376 32.3586C24.4028 32.3679 24.3889 32.3623 24.3958 32.3418C24.4086 32.3198 24.4163 32.3022 24.419 32.289ZM33.3731 23.7402L32.3416 24.0632C32.262 24.0907 32.1577 24.1653 32.0288 24.2868C31.8983 24.4025 31.7693 24.4774 31.6418 24.5116C31.4505 24.5628 31.3207 24.461 31.2524 24.206C31.1075 24.2448 31.0413 24.2874 31.0537 24.3337C31.0568 24.3453 31.0652 24.3648 31.0787 24.3923C31.0965 24.4123 31.107 24.4282 31.1101 24.4398C31.1209 24.4803 31.0684 24.5162 30.9525 24.5472C30.6222 24.6357 30.4192 24.8982 30.3436 25.3347C30.2852 25.6733 30.3057 26.0281 30.4051 26.399C30.4409 26.5323 30.4966 26.6012 30.5723 26.6057C30.6539 26.6087 30.7787 26.5877 30.9468 26.5427L31.1728 26.4821C31.4162 26.4169 31.5613 26.3439 31.6079 26.263L31.6779 26.1418C31.6907 26.1197 31.703 26.1195 31.715 26.1412C31.7328 26.1612 31.7425 26.1742 31.7441 26.18C31.7445 26.2047 31.7494 26.2345 31.7587 26.2692L31.8712 26.3416C31.8712 26.3416 31.8714 26.3539 31.8719 26.3787C31.8765 26.3961 31.8781 26.4019 31.8765 26.3961C31.8843 26.425 31.9116 26.4457 31.9583 26.458C32.0094 26.463 32.0422 26.4697 32.0569 26.4782C32.1496 26.4533 32.2066 26.4225 32.2278 26.3858C32.225 26.3058 32.2681 26.2694 32.357 26.2766C32.4443 26.2781 32.5112 26.2726 32.5575 26.2602C32.5865 26.2524 32.6089 26.2433 32.6248 26.2328L32.6193 26.0386C32.6154 25.9776 32.6333 25.9634 32.6732 25.9962C32.7072 26.0306 32.7237 26.0573 32.7226 26.0762C32.7257 26.0878 32.7201 26.1017 32.7058 26.118C32.6973 26.1326 32.6859 26.1481 32.6716 26.1644C32.6574 26.1806 32.6541 26.2032 32.6619 26.2322C32.6758 26.2844 32.7078 26.369 32.7578 26.486C32.8121 26.5957 32.8485 26.6853 32.8671 26.7549C32.8011 26.8099 32.7757 26.8539 32.7908 26.8872C32.8059 26.9204 32.8405 26.9453 32.8946 26.9618C32.9472 26.9726 33.0062 26.9723 33.0715 26.961C33.1426 26.9482 33.199 26.9269 33.2407 26.8971C33.2479 27.4107 32.9491 27.8604 32.3443 28.246C32.1527 28.3657 31.89 28.4982 31.5563 28.6435C31.2225 28.7889 30.8325 28.9213 30.3863 29.0409C30.2472 29.0782 30.159 29.1546 30.1216 29.2702C30.0885 29.3785 30.0716 29.501 30.071 29.6378C30.0704 29.7746 30.0677 29.9151 30.0628 30.0593C30.0564 30.1977 30.017 30.317 29.9444 30.4171C29.9786 30.5446 29.9324 30.7434 29.806 31.0133C29.7836 31.069 29.774 31.1026 29.7771 31.1142C29.7756 31.1084 29.82 31.112 29.9105 31.125C30.0052 31.1307 30.1101 31.1399 30.2253 31.1525C30.3405 31.1651 30.452 31.1756 30.5599 31.184C30.6677 31.1924 30.7361 31.1927 30.7651 31.1849C30.7999 31.1756 30.8373 31.1531 30.8775 31.1175C30.9219 31.0746 30.9379 31.0299 30.9254 30.9835C30.9161 30.9488 30.8983 30.9287 30.872 30.9233C30.8457 30.9179 30.8173 30.9162 30.7868 30.9182C30.7621 30.9186 30.7381 30.9219 30.7149 30.9281C30.6917 30.9343 30.6786 30.9317 30.6755 30.9201C30.6724 30.9085 30.6959 30.8804 30.7461 30.8359C30.7948 30.7856 30.8152 30.746 30.8074 30.717L31.2215 30.8017L31.372 30.6682C31.4639 30.5939 31.5331 30.5505 31.5794 30.5381C31.5968 30.5334 31.5994 30.5545 31.587 30.6013C31.5732 30.6423 31.5551 30.6906 31.5327 30.7463C31.5104 30.802 31.4872 30.8547 31.4633 30.9046C31.4452 30.953 31.437 30.98 31.4385 30.9858C31.4587 31.0612 31.5696 31.0811 31.7714 31.0457C31.8073 31.0175 31.8238 30.9633 31.821 30.8833C31.8225 30.796 31.8282 30.7479 31.8382 30.739C31.961 30.9421 32.1006 31.0227 32.2571 30.9808C32.3208 30.9637 32.384 30.9095 32.4465 30.8182C32.5132 30.7196 32.6074 30.654 32.7292 30.6214C32.7987 30.6027 32.8644 30.6162 32.9263 30.6617C32.9925 30.6999 33.0371 30.7159 33.0603 30.7097C33.0835 30.7034 33.078 30.6366 33.0438 30.5091C33.1343 30.5221 33.188 30.5605 33.2051 30.6243C33.2253 30.6996 33.1984 30.7845 33.1243 30.8789C33.0486 30.9675 32.9702 31.0226 32.8891 31.0444C32.8653 31.1874 32.8402 31.337 32.8137 31.4932C32.793 31.6478 32.728 31.7646 32.6187 31.8436L32.6173 31.6297C32.6166 31.6733 32.5554 31.758 32.4338 31.8838C32.3165 32.0022 32.174 32.1429 32.0065 32.3058L31.2352 33.0436L29.1835 33.5933L28.6731 33.8791C28.6082 33.9152 28.5236 33.9471 28.4193 33.9751C28.0948 34.0621 27.7861 34.0112 27.4933 33.8226C27.2918 33.6964 27.1192 33.516 26.9755 33.2811C26.8303 33.0405 26.7258 32.8014 26.6622 32.5638C26.6296 32.4421 26.6002 32.2978 26.5741 32.1308C26.5465 31.9581 26.5039 31.7645 26.4464 31.5501C26.458 31.547 26.4668 31.4639 26.4728 31.3008C26.4831 31.1303 26.4894 30.9454 26.4919 30.7459C26.4943 30.5465 26.4949 30.3631 26.4935 30.1958C26.498 30.0268 26.4986 29.9366 26.4955 29.925L26.5568 29.8061L26.5919 29.5544C26.6038 29.4829 26.6059 29.4327 26.5981 29.4037C26.5961 29.3732 26.6067 29.3548 26.6299 29.3486L27.4446 25.0865C27.4553 25.0339 27.4605 24.9953 27.4601 24.9705C27.4581 24.94 27.4602 24.9363 27.4664 24.9595C27.4633 24.9479 27.4581 24.94 27.4508 24.9358L27.5526 24.7594C27.5853 24.6264 27.651 24.4659 27.7497 24.278C27.8527 24.0827 27.9659 23.8908 28.0893 23.7025C28.2112 23.5083 28.3341 23.3294 28.458 23.1658C28.5818 23.0021 28.6832 22.8818 28.7619 22.8048C28.8692 22.6953 28.9576 22.6312 29.0272 22.6126L31.1921 21.7903C31.5189 21.6654 31.7026 21.5976 31.7432 21.5867C31.8765 21.551 31.9652 21.5458 32.0093 21.5713C32.1488 21.5588 32.3013 21.5365 32.4666 21.5047C32.6363 21.4654 32.7974 21.4409 32.9501 21.431C33.1027 21.4212 33.2384 21.4407 33.3571 21.4897C33.4743 21.5328 33.5546 21.6355 33.5981 21.7978C33.6043 21.821 33.6084 21.8478 33.6103 21.8784C33.6181 21.9074 33.623 21.9371 33.6249 21.9676C33.6354 21.9835 33.6712 22.036 33.7324 22.1252C33.792 22.2086 33.8576 22.3028 33.9292 22.4079C34.0067 22.5114 34.0462 22.566 34.0477 22.5718C34.0539 22.595 34.0601 22.6182 34.0663 22.6414C34.0726 22.6645 34.0766 22.6914 34.0786 22.7219L34.1772 22.7421C34.1845 22.7463 34.1929 22.7658 34.2022 22.8006C34.2158 22.828 34.2233 22.8447 34.2249 22.8505C34.2326 22.8794 34.2204 22.9728 34.1881 23.1305L34.1297 23.2952C34.0582 23.2833 34.0082 23.2936 33.9796 23.3261C33.9553 23.3513 33.9362 23.3844 33.9223 23.4253C33.9085 23.4663 33.8975 23.5065 33.8894 23.546C33.8798 23.5796 33.8547 23.6019 33.8142 23.6127C33.7794 23.622 33.7357 23.6213 33.6831 23.6106C33.6306 23.5998 33.5724 23.603 33.5086 23.62C33.4391 23.6387 33.3939 23.6787 33.3731 23.7402ZM32.3762 25.8615C32.4323 25.9086 32.4598 25.9416 32.4586 25.9606C32.4559 25.9737 32.4372 25.9849 32.4024 25.9943C32.3719 25.9962 32.3348 25.9968 32.2911 25.9961C32.2475 25.9954 32.2082 25.9997 32.1735 26.009C32.109 26.0698 32.0536 26.1064 32.0072 26.1188C31.9782 26.1266 31.9614 26.1217 31.9568 26.1044C31.9474 26.0696 31.9721 26.0226 32.0308 25.9634C32.0895 25.9042 32.142 25.8684 32.1883 25.8559C32.2463 25.8404 32.3089 25.8423 32.3762 25.8615ZM32.2969 26.4698C32.2679 26.4775 32.2542 26.4843 32.2558 26.4901C32.2573 26.4959 32.2618 26.5009 32.2691 26.5052C32.2807 26.5021 32.29 26.4903 32.2969 26.4698ZM32.3917 27.1711C32.2897 27.2544 32.2427 27.3105 32.2504 27.3394C32.2597 27.3742 32.3448 27.367 32.5055 27.3177C32.5967 27.287 32.6718 27.2545 32.7309 27.22C32.7884 27.1797 32.8133 27.1451 32.8055 27.1161C32.7931 27.0698 32.7264 27.0411 32.6054 27.03C32.5575 27.0366 32.514 27.0483 32.475 27.0649C32.4345 27.0758 32.4067 27.1112 32.3917 27.1711ZM31.6871 27.4624C31.6055 27.4594 31.5719 27.4964 31.5863 27.5733C31.5825 27.6054 31.6125 27.6129 31.6762 27.5958C31.7457 27.5772 31.8095 27.5601 31.8675 27.5445C31.995 27.5104 32.0478 27.4527 32.0261 27.3716C32.009 27.3078 31.9628 27.2861 31.8875 27.3062C31.8179 27.3249 31.7511 27.3769 31.6871 27.4624ZM28.3945 30.1616C28.2959 30.188 28.2568 30.2389 28.277 30.3142C28.3065 30.4243 28.3589 30.4693 28.4342 30.4491C28.4632 30.4413 28.4752 30.4164 28.4701 30.3743C28.4666 30.3379 28.4414 30.267 28.3945 30.1616ZM31.0473 31.0906C30.9805 31.0961 30.9443 31.112 30.939 31.1383C30.9378 31.1572 30.9483 31.1731 30.9703 31.1858C30.9924 31.1985 31.0142 31.1989 31.0358 31.1869C31.0575 31.1749 31.0613 31.1428 31.0473 31.0906ZM30.7538 31.4209C30.7808 31.3826 30.792 31.3547 30.7873 31.3373C30.7718 31.2794 30.7118 31.2644 30.6075 31.2923C30.5728 31.3017 30.5621 31.32 30.5757 31.3475C30.5935 31.3675 30.6179 31.3889 30.6488 31.4117C30.684 31.4271 30.7126 31.4412 30.7347 31.4539C30.7625 31.4651 30.7654 31.4643 30.7434 31.4516C30.755 31.4485 30.7584 31.4383 30.7538 31.4209ZM31.4753 31.2275C31.5043 31.2198 31.5172 31.2101 31.5141 31.1985C31.5006 31.1711 31.477 31.1525 31.4433 31.1429C31.4097 31.1333 31.3813 31.1316 31.3581 31.1378C31.3407 31.1425 31.3328 31.1477 31.3344 31.1535C31.329 31.1798 31.3447 31.2035 31.3814 31.2247C31.4239 31.2444 31.4539 31.2519 31.4713 31.2472C31.4771 31.2457 31.4784 31.2391 31.4753 31.2275ZM30.8896 31.5801C30.948 31.5893 30.9959 31.5827 31.0334 31.5602C31.0708 31.5378 31.0923 31.5134 31.0976 31.4871C31.1073 31.4535 31.1024 31.4237 31.083 31.3979C31.0621 31.3662 31.0277 31.3537 30.9798 31.3603C30.8755 31.3883 30.835 31.4457 30.8583 31.5326C30.8614 31.5442 30.8718 31.5601 30.8896 31.5801ZM32.7182 31.1368C32.6745 31.136 32.6536 31.1509 32.6556 31.1815C32.656 31.2062 32.6765 31.2131 32.7171 31.2023C32.7287 31.1992 32.729 31.1773 32.7182 31.1368ZM36.5409 20.8416C36.6501 20.7626 36.7454 20.7122 36.8265 20.6905C36.9946 20.6455 37.143 20.6895 37.2719 20.8227C37.4008 20.9559 37.4986 21.1471 37.5654 21.3963C37.5793 21.4485 37.5914 21.5167 37.6015 21.6009C37.6175 21.6836 37.6313 21.77 37.643 21.86C37.6605 21.9485 37.6736 22.032 37.6822 22.1104C37.695 22.1815 37.7061 22.2345 37.7154 22.2692C37.7325 22.333 37.7785 22.389 37.8536 22.4372C37.9271 22.4796 37.9772 22.5625 38.004 22.6857L38.0752 23.0207C38.0922 23.0845 38.1126 23.1256 38.1362 23.1441L38.2691 23.2576C38.236 23.3659 38.2318 23.4664 38.2567 23.5591C38.2691 23.6055 38.2925 23.6582 38.327 23.7173C38.3657 23.769 38.4052 23.8237 38.4455 23.8812C38.49 23.9314 38.5316 23.9824 38.5703 24.0341C38.609 24.0858 38.6367 24.1312 38.6534 24.1702C38.6333 24.188 38.6605 24.2895 38.7349 24.4745C38.8078 24.6538 38.895 24.8633 38.9965 25.1032C39.1039 25.3416 39.2091 25.5836 39.3122 25.8293C39.4138 26.0691 39.4832 26.2586 39.5204 26.3977C39.5329 26.4441 39.5432 26.4941 39.5513 26.5478C39.5653 26.6 39.5764 26.6529 39.5846 26.7067C39.8171 26.253 39.9762 25.3749 40.062 24.0723C40.0951 23.6162 40.1183 23.2622 40.1315 23.0101C40.1505 22.7566 40.1633 22.6072 40.1698 22.562C40.2213 21.9891 40.3024 21.4922 40.4132 21.0712C40.3923 21.0395 40.3819 21.0237 40.3819 21.0237C40.3772 21.0063 40.382 20.9894 40.3963 20.9732C40.4164 20.9554 40.4241 20.9378 40.4194 20.9204L40.5034 20.8513L40.6867 20.4575C40.7072 20.4644 40.7433 20.4485 40.7951 20.4098C40.8453 20.3653 40.8767 20.332 40.8894 20.31L41.0029 20.1771L41.7533 19.8828C41.7642 19.9234 41.7834 19.9369 41.8108 19.9233C41.844 19.9082 41.8751 19.8968 41.9041 19.889L42.0166 19.9613C42.0514 19.952 42.0959 19.9557 42.15 19.9722C42.2041 19.9888 42.2358 20.0144 42.2452 20.0492C42.2498 20.0666 42.25 20.079 42.2458 20.0863L42.2567 20.4747C42.2103 20.4871 42.1947 20.51 42.2098 20.5432C42.2249 20.5764 42.2356 20.6046 42.2418 20.6278L42.1805 20.7467C42.1805 20.7467 42.1836 20.7583 42.1898 20.7815C42.2002 20.7973 42.2063 20.8081 42.2078 20.8139C42.228 20.8893 42.2154 21.0045 42.17 21.1595C42.1303 21.313 42.1276 21.4535 42.1618 21.581L42.2084 21.7548C42.0366 21.9251 41.9778 22.1117 42.0322 22.3145C42.0508 22.384 42.0917 22.4321 42.1547 22.4587L42.0582 23.2113L41.9447 23.3442C41.9305 23.3605 41.9168 23.4138 41.9038 23.5043C41.895 23.5874 41.8856 23.68 41.8757 23.782C41.8658 23.8841 41.8564 23.9766 41.8476 24.0597C41.8373 24.1371 41.83 24.1794 41.8257 24.1867C41.8355 24.2462 41.8247 24.2988 41.7935 24.3445C41.768 24.3886 41.7404 24.4363 41.7107 24.4878C41.6853 24.5318 41.6687 24.586 41.6611 24.6501C41.6519 24.7085 41.6713 24.781 41.7193 24.8675C41.7291 25.0201 41.69 25.2449 41.6018 25.5419C41.5275 25.7978 41.5294 26.0365 41.6073 26.2578C41.6131 26.2563 41.6109 26.2942 41.6005 26.3715C41.5886 26.443 41.5704 26.5255 41.5457 26.6191C41.5269 26.7111 41.5036 26.7981 41.4759 26.8801C41.4524 26.9547 41.432 26.9943 41.4146 26.999L41.3626 27.1527C41.3306 27.242 41.3257 27.293 41.3477 27.3057L41.3757 27.9318L41.3057 28.0531C41.36 28.2559 41.3859 28.4105 41.3834 28.5168C41.3718 28.5199 41.3598 28.5448 41.3475 28.5916C41.3336 28.6326 41.3213 28.6794 41.3106 28.7319C41.3056 28.783 41.2991 28.8282 41.291 28.8676C41.2887 28.9055 41.2861 28.9186 41.2829 28.9071C41.2829 28.9071 41.2913 28.9266 41.3079 28.9656C41.3246 29.0046 41.3496 29.0631 41.3829 29.1412C41.3996 29.1802 41.3995 29.2144 41.3825 29.2438L41.2054 29.4869L41.1036 29.6633C41.0166 29.6865 40.9264 29.7325 40.833 29.801C40.7438 29.8622 40.6577 29.9349 40.5747 30.0193C40.4975 30.1021 40.4313 30.1912 40.3761 30.2868C40.3225 30.3881 40.2885 30.4811 40.2739 30.5657L40.256 30.673C40.243 30.7635 40.189 30.8401 40.094 30.9028C39.999 30.9655 39.909 31.0238 39.824 31.0776L39.5801 31.2455C39.5759 31.2528 39.5606 31.2538 39.5344 31.2484C39.5154 31.2473 39.503 31.2475 39.4973 31.249C39.4741 31.2552 39.4532 31.2701 39.4347 31.2937C39.4235 31.3216 39.3976 31.3409 39.3571 31.3518L39.3369 31.4504C39.163 31.497 39.051 31.496 39.0006 31.4473L38.6673 31.49C38.6627 31.4727 38.6389 31.4418 38.5959 31.3974C38.5588 31.3514 38.515 31.3041 38.4647 31.2555C38.4144 31.2068 38.3686 31.1632 38.3272 31.1246C38.2916 31.0845 38.273 31.0615 38.2714 31.0557C38.2652 31.0325 38.2677 31.007 38.2789 30.9792C38.2901 30.9513 38.2879 30.9084 38.2724 30.8505C38.2646 30.8215 38.2288 30.769 38.1649 30.6929C38.1011 30.6169 38.0424 30.5021 37.9888 30.3488C37.9264 30.1853 37.8807 30.061 37.8516 29.9756C37.8209 29.8844 37.768 29.7681 37.6929 29.6268L37.5732 29.3886C37.5356 29.3179 37.4947 29.2233 37.4505 29.1047C37.4106 28.9787 37.3543 28.8385 37.2819 28.684L37.1397 28.5358C37.1308 28.5257 37.1246 28.5025 37.121 28.4662C37.1218 28.4225 37.1177 28.3957 37.1088 28.3856C37.1041 28.3683 37.0722 28.3302 37.013 28.2716C36.958 28.2055 36.8895 28.1121 36.8074 27.9912C36.7296 27.863 36.6447 27.7087 36.5529 27.5283C36.4654 27.3406 36.3874 27.1192 36.3191 26.8642C36.3051 26.812 36.293 26.7438 36.2829 26.6596C36.2712 26.5695 36.2552 26.4869 36.2351 26.4115C36.2024 26.2898 36.1577 26.2273 36.1009 26.2238C36.0341 26.2293 36.0007 26.2786 36.0008 26.3718C35.997 26.4039 35.9793 26.4769 35.9477 26.591C35.9204 26.6977 35.8962 26.816 35.8751 26.9459C35.8524 27.07 35.8393 27.1946 35.8355 27.3199C35.8361 27.4377 35.863 27.5268 35.9164 27.587L35.9855 27.671C36.0992 27.6778 36.1504 27.6952 36.1392 27.723C36.1281 27.7508 36.0974 27.787 36.0472 27.8315C35.9954 27.8702 35.9402 27.9192 35.8815 27.9784C35.8213 28.0318 35.7997 28.0904 35.8168 28.1541L35.7415 28.2209C35.8498 28.254 35.9156 28.314 35.9389 28.401C35.9544 28.4589 35.9472 28.5478 35.9172 28.6677C35.8872 28.7875 35.8793 28.8859 35.8937 28.9628C35.8984 28.9802 35.9191 28.9995 35.9558 29.0207C35.9779 29.0334 35.9841 29.0566 35.9745 29.0902L35.9138 29.2463L35.8332 29.2585C35.7811 29.2725 35.7344 29.3533 35.6932 29.501L35.6808 29.8025C35.6817 29.852 35.6655 29.8843 35.6322 29.8994C35.6048 29.9129 35.595 29.9342 35.6027 29.9632C35.6059 29.9748 35.6097 29.9893 35.6144 30.0067C35.6233 30.0167 35.6338 30.0325 35.6458 30.0542L35.753 30.072C35.7662 30.0747 35.7745 30.0942 35.778 30.1305C35.7858 30.1595 35.7905 30.1769 35.792 30.1827C35.8137 30.2638 35.8177 30.3249 35.8038 30.3659C35.7942 30.3995 35.778 30.4318 35.7552 30.4627C35.7367 30.4863 35.7197 30.5157 35.7043 30.5509C35.6932 30.5788 35.6961 30.6246 35.7132 30.6883C35.7241 30.7289 35.7154 30.7778 35.6873 30.835C35.6634 30.8849 35.636 30.945 35.6052 31.0154C35.5743 31.0858 35.5495 31.167 35.5307 31.259C35.5176 31.3495 35.5282 31.4584 35.5624 31.5859C35.5686 31.6091 35.5545 31.6377 35.5202 31.6718C35.4858 31.7058 35.4456 31.7414 35.3997 31.7786C35.3537 31.8158 35.3136 31.8514 35.2792 31.8854C35.2449 31.9195 35.2308 31.9481 35.237 31.9713C35.1539 31.9625 35.0719 31.9348 34.9911 31.8881C34.9161 31.8399 34.8235 31.8305 34.7134 31.86C34.2823 31.7581 34.0233 31.5449 33.9363 31.2203C33.8897 31.0465 33.8992 30.8731 33.9647 30.7003C33.9059 29.3681 34.0656 27.9587 34.4437 26.4722C34.4479 26.3717 34.468 26.2266 34.5041 26.0368C34.5444 25.8396 34.5869 25.6388 34.6315 25.4343C34.6819 25.2282 34.7274 25.0389 34.7682 24.8665C34.809 24.6941 34.8332 24.5758 34.8408 24.5116C34.8875 24.4308 34.9031 24.3614 34.8875 24.3034L34.9512 24.1932C34.943 24.1395 34.9319 24.0866 34.9179 24.0344C34.9098 23.9807 34.8987 23.9278 34.8847 23.8756L34.8148 23.6148C34.7935 23.5584 34.7774 23.5099 34.7665 23.4693C34.7557 23.4288 34.7463 23.394 34.7386 23.365C34.6889 23.1796 34.663 23.025 34.6609 22.9013C34.672 22.1778 35.0524 21.6038 35.8021 21.1793C36.03 21.0561 36.2762 20.9435 36.5409 20.8416ZM35.6321 27.8123C35.7388 27.8396 35.7911 27.838 35.7892 27.8075C35.7914 27.7696 35.7755 27.7335 35.7415 27.6991C35.7059 27.659 35.6691 27.6378 35.6313 27.6355C35.5918 27.6274 35.5845 27.6698 35.6094 27.7625C35.6156 27.7857 35.6232 27.8023 35.6321 27.8123ZM35.0018 31.615C34.9925 31.5802 34.9826 31.5549 34.9721 31.5391C34.9193 31.5968 34.8735 31.6463 34.8349 31.6877C34.7963 31.7291 34.7786 31.7556 34.7817 31.7672C34.7863 31.7846 34.8472 31.7682 34.9642 31.7183C35.0033 31.7016 35.0158 31.6672 35.0018 31.615ZM45.1271 18.6713L47.4917 18.0378C47.5786 18.0145 47.7106 17.9853 47.8875 17.9503C48.063 17.9095 48.1941 17.8775 48.2811 17.8542C48.4318 17.8138 48.5482 17.7733 48.6305 17.7326C48.7859 17.7096 48.9592 17.6725 49.1504 17.6213C49.22 17.6026 49.309 17.5757 49.4176 17.5403C49.5304 17.4977 49.6461 17.4543 49.7647 17.4101C49.8833 17.3659 49.9969 17.3261 50.1054 17.2908C50.2182 17.2482 50.3094 17.2175 50.379 17.1989C50.5354 17.157 50.6572 17.1709 50.7442 17.2408C50.8297 17.3048 50.9255 17.4189 51.0316 17.5831C51.0104 17.6198 51.0033 17.6745 51.0104 17.7472C51.0174 17.8198 51.0187 17.894 51.0141 17.9698C51.0154 18.044 50.9998 18.1134 50.9674 18.1779C50.9393 18.2352 50.8773 18.2704 50.7814 18.2837C50.7954 18.3358 50.7775 18.3965 50.7277 18.4658C50.6764 18.5292 50.6647 18.6131 50.6927 18.7174C50.7004 18.7464 50.7105 18.7841 50.723 18.8305C50.7396 18.8695 50.7511 18.9006 50.7573 18.9237L50.0208 19.2702C50.0208 19.2702 50.0179 19.2709 50.0121 19.2725C50.0106 19.2667 50.0069 19.2646 50.0011 19.2661C49.9548 19.2785 49.8862 19.3124 49.7954 19.3678C49.7047 19.4232 49.606 19.4838 49.4994 19.5496C49.3928 19.6155 49.2854 19.6784 49.1773 19.7384C49.0749 19.7969 48.9861 19.8363 48.9108 19.8564C48.9154 19.8738 48.9081 19.9162 48.8889 19.9834C48.8696 20.0507 48.8506 20.1303 48.8318 20.2224C48.8172 20.307 48.8049 20.4004 48.795 20.5024C48.7835 20.5987 48.7879 20.6845 48.8081 20.7598L48.785 21.3344C48.7777 21.4233 48.7678 21.5253 48.7552 21.6405C48.7426 21.7557 48.7257 21.8782 48.7046 22.0081L48.6315 22.4656L48.6221 22.8129C48.5641 22.8284 48.5429 22.8652 48.5585 22.9231L48.569 23.0321C48.5807 23.1221 48.5843 23.205 48.5798 23.2808C48.581 23.355 48.5821 23.4168 48.5829 23.4663C48.5795 23.5231 48.5739 23.537 48.5661 23.5081C48.5318 23.5421 48.5141 23.6152 48.513 23.7273C48.512 23.8394 48.5133 23.9601 48.517 24.0896C48.5264 24.2175 48.5314 24.3404 48.5319 24.4583C48.5382 24.5746 48.5258 24.6556 48.4945 24.7013L48.4425 24.855C48.2985 25.2911 48.2158 25.6549 48.1945 25.9463C48.1633 25.992 48.1317 26.0594 48.0997 26.1488C48.0677 26.2381 48.0418 26.3382 48.0218 26.4492C48.0003 26.5543 47.9869 26.6666 47.9816 26.786C47.9748 26.8997 47.9861 27.0116 48.0156 27.1217C48.0312 27.1796 48.0457 27.2223 48.0593 27.2497C48.0388 27.2428 48.0216 27.2598 48.0077 27.3008C47.9997 27.3403 47.991 27.3892 47.9818 27.4475C47.9711 27.5001 47.9566 27.5506 47.9385 27.5989C47.9262 27.6457 47.9027 27.6737 47.8679 27.683C47.8389 27.6908 47.7939 27.6967 47.7328 27.7006C47.6718 27.7045 47.6268 27.7104 47.5978 27.7181C47.5866 27.746 47.583 27.7904 47.5869 27.8515C47.5909 27.9126 47.5977 27.9728 47.6074 28.0324C47.6214 28.0845 47.6396 28.1293 47.6621 28.1668C47.6861 28.2101 47.7081 28.2228 47.7282 28.205C47.7552 28.1667 47.7815 28.1255 47.8069 28.0814C47.8324 28.0373 47.8615 27.9953 47.8943 27.9555C48.0044 27.926 48.0711 27.9547 48.0944 28.0416C48.1131 28.1112 48.0938 28.1784 48.0367 28.2434C47.9796 28.3084 47.9162 28.3503 47.8467 28.3689C47.7598 28.3922 47.6535 28.3896 47.5278 28.3612C47.4095 28.337 47.3417 28.3272 47.3243 28.3318C47.3158 28.3465 47.3091 28.3794 47.3041 28.4304C47.3007 28.4872 47.2874 28.5188 47.2642 28.525C47.2353 28.5327 47.2061 28.5281 47.1767 28.5112L47.0865 28.731C47.078 28.7457 47.0442 28.7703 46.9851 28.8047C46.926 28.8392 46.8785 28.8706 46.8426 28.8988C46.8059 28.8776 46.7836 28.8525 46.7759 28.8235C46.7743 28.8177 46.7795 28.7791 46.7914 28.7076C46.8048 28.6419 46.8063 28.6011 46.7959 28.5852C46.7042 28.498 46.6485 28.4757 46.6288 28.5182C46.615 28.5592 46.6102 28.6226 46.6146 28.7084C46.6205 28.8 46.6198 28.8902 46.6126 28.9791C46.6127 29.0723 46.5801 29.1245 46.5148 29.1358L45.7154 29.2474C45.5717 29.2673 45.5091 29.312 45.5278 29.3816C45.5417 29.4337 45.5665 29.4799 45.6021 29.5201C45.6246 29.5575 45.603 29.5695 45.5373 29.5561C45.4715 29.5426 45.427 29.4924 45.4037 29.4055C45.3835 29.3302 45.3803 29.2254 45.3941 29.0913C45.4136 28.9556 45.411 28.8414 45.3861 28.7487C45.247 28.7859 45.1294 28.6249 45.0331 28.2656C44.9492 27.9526 44.9246 27.6984 44.9591 27.5027L44.9971 27.2969C45.0148 27.2238 45.0066 27.1701 44.9726 27.1358C44.937 27.0956 44.9114 27.0465 44.8959 26.9886C44.899 27.0002 44.9076 26.9513 44.9218 26.8419C44.9418 26.7309 44.9673 26.6061 44.9985 26.4673C45.0354 26.3269 45.0747 26.1953 45.1163 26.0723C45.1636 25.9478 45.2134 25.8786 45.2656 25.8646C45.3235 25.8491 45.3817 25.8459 45.4401 25.8551C45.4354 25.8377 45.4402 25.8209 45.4545 25.8047C45.4746 25.7869 45.4831 25.7722 45.48 25.7606C45.4769 25.749 45.4664 25.7332 45.4486 25.7131L45.5302 25.6353C45.5519 25.6233 45.5449 25.5972 45.5093 25.5571L45.4518 25.5165C45.3475 25.5445 45.2481 25.6022 45.1535 25.6897C45.1221 25.6422 45.0971 25.5836 45.0785 25.5141C45.0505 25.4098 45.0384 25.2484 45.042 25.03C45.0456 24.8117 45.0702 24.5442 45.1158 24.2276C45.1472 24.0204 45.1807 23.763 45.2163 23.4553C45.2519 23.1476 45.2917 22.786 45.3356 22.3704C45.3367 22.3515 45.3483 22.3018 45.3702 22.2214C45.3921 22.141 45.4117 22.0519 45.429 21.9541C45.4463 21.8563 45.4586 21.7629 45.4658 21.674C45.4715 21.5793 45.4623 21.5103 45.4383 21.4671L45.5338 21.3017C45.5465 21.2797 45.5511 21.2505 45.5476 21.2142C45.5483 21.1705 45.5592 21.1303 45.5805 21.0935C45.5401 20.9429 45.4561 20.8846 45.3286 20.9188C45.2591 20.9374 45.1645 20.9783 45.0447 21.0414C44.9308 21.103 44.839 21.1431 44.7695 21.1618C44.6246 21.2006 44.4633 21.2128 44.2854 21.1983C44.1076 21.1838 43.8751 21.1623 43.5879 21.1336L43.3386 21.1072C43.3215 21.0435 43.2985 21.0155 43.2695 21.0233C43.2328 21.002 43.1827 20.9658 43.1192 20.9144C43.0542 20.8573 42.9906 20.7936 42.9283 20.7234C42.8644 20.6473 42.81 20.5718 42.7651 20.4969C42.726 20.4204 42.7139 20.3522 42.7289 20.2923L42.7756 20.0841C42.7933 20.011 42.794 19.9208 42.7776 19.8133C42.7597 19.7001 42.7462 19.5919 42.7372 19.4887C42.7325 19.3782 42.7439 19.282 42.7717 19.2C42.7978 19.1122 42.8602 19.0551 42.9587 19.0287C43.0283 19.0101 43.1117 18.9971 43.2091 18.9896L44.0201 18.9214C44.2207 18.9049 44.4137 18.8718 44.5991 18.8221C44.6281 18.8144 44.6629 18.805 44.7035 18.7942C44.7498 18.7818 44.8012 18.7649 44.8576 18.7436L45.1271 18.6713ZM50.7256 17.1712C50.7024 17.1774 50.6901 17.1776 50.6885 17.1719C50.6885 17.1719 50.6906 17.1682 50.6949 17.1608C50.7034 17.1461 50.7136 17.1496 50.7256 17.1712ZM46.1341 22.9857C46.1592 23.0101 46.1776 23.0207 46.1892 23.0176C46.2182 23.0098 46.2288 22.9914 46.221 22.9624C46.2179 22.9508 46.2024 22.9395 46.1746 22.9283C46.151 22.9098 46.1268 22.9007 46.1021 22.9011C46.0704 22.922 46.054 22.942 46.0529 22.9609C46.0517 22.9798 46.0788 22.9881 46.1341 22.9857ZM45.6633 23.9411C45.6111 23.9551 45.6048 23.9661 45.6442 23.9742C45.6836 23.9823 45.69 23.9712 45.6633 23.9411ZM45.7455 24.8043C45.7328 24.8263 45.7295 24.8489 45.7357 24.8721C45.7544 24.9417 45.8071 24.9648 45.8941 24.9415C45.9868 24.9166 46.0231 24.8665 46.0029 24.7912C45.9905 24.7448 45.9606 24.7031 45.9135 24.6661C45.8663 24.629 45.8253 24.6152 45.7905 24.6245C45.7383 24.6385 45.7233 24.6984 45.7455 24.8043ZM46.8835 25.2261C46.8603 25.2323 46.8495 25.2383 46.851 25.2441C46.8541 25.2557 46.8586 25.2607 46.8644 25.2592C46.8744 25.2503 46.8808 25.2393 46.8835 25.2261ZM45.1113 26.819L45.0881 26.7321C45.0475 26.743 45.0382 26.7548 45.0603 26.7675C45.0823 26.7802 45.0993 26.7974 45.1113 26.819ZM46.3535 27.0732C46.3303 27.0794 46.3195 27.0854 46.321 27.0912C46.321 27.0912 46.3255 27.0963 46.3344 27.1063C46.3491 27.1148 46.3554 27.1038 46.3535 27.0732ZM47.7323 26.7597C47.6944 26.7574 47.6741 26.7628 47.6714 26.776C47.6687 26.7891 47.6719 26.8007 47.6808 26.8108C47.6954 26.8192 47.7086 26.8219 47.7202 26.8188C47.7376 26.8142 47.7416 26.7944 47.7323 26.7597ZM46.0078 27.4174C46.1237 27.3864 46.1754 27.3477 46.163 27.3013C46.1521 27.2607 46.1169 27.2453 46.0574 27.255C45.9979 27.2648 45.9814 27.3189 46.0078 27.4174ZM47.8038 27.3741C47.8339 27.3474 47.8443 27.3167 47.8349 27.2819C47.8194 27.2239 47.7885 27.2012 47.7421 27.2136C47.7189 27.2198 47.6952 27.2355 47.6709 27.2606C47.6635 27.2564 47.668 27.2614 47.6842 27.2757C47.7005 27.29 47.7175 27.3072 47.7353 27.3272C47.7531 27.3473 47.7701 27.3645 47.7864 27.3788C47.8011 27.3873 47.8069 27.3857 47.8038 27.3741ZM47.5745 27.6312C47.6124 27.6335 47.6342 27.6338 47.64 27.6323C47.6806 27.6214 47.6923 27.5841 47.6752 27.5204C47.6473 27.416 47.6101 27.3701 47.5637 27.3825C47.529 27.3918 47.5326 27.4747 47.5745 27.6312Z" fill="url(#paint0_linear_2_52454)"/>
</g>
<defs>
<filter id="filter0_d_2_52454" x="0.446289" y="0.744873" width="57.9805" height="41.2888" filterUnits="userSpaceOnUse" color-interpolation-filters="sRGB">
<feFlood flood-opacity="0" result="BackgroundImageFix"/>
<feColorMatrix in="SourceAlpha" type="matrix" values="0 0 0 0 0 0 0 0 0 0 0 0 0 0 0 0 0 0 127 0" result="hardAlpha"/>
<feOffset dy="2"/>
<feComposite in2="hardAlpha" operator="out"/>
<feColorMatrix type="matrix" values="0 0 0 0 0.827451 0 0 0 0 0.172549 0 0 0 0 0.901961 0 0 0 1 0"/>
<feBlend mode="normal" in2="BackgroundImageFix" result="effect1_dropShadow_2_52454"/>
<feBlend mode="normal" in="SourceGraphic" in2="effect1_dropShadow_2_52454" result="shape"/>
</filter>
<linearGradient id="paint0_linear_2_52454" x1="32.8438" y1="5.95039" x2="31.9003" y2="40.1695" gradientUnits="userSpaceOnUse">
<stop offset="0.229828" stop-color="white"/>
<stop offset="1" stop-color="#FAD1FF"/>
</linearGradient>
</defs>
</svg>
