<svg width="80" height="88" viewBox="0 0 80 88" fill="none" xmlns="http://www.w3.org/2000/svg">
<path d="M62 88.001L51 69.907H29L18 88.001H16L28 68.001H52L64 88.001H62ZM68 86.001L56 66.001L68 46.001H80V47.9009H69L58 66.001L69 84.1011H80V86.001H68ZM0 86.001V84.095H11L22 65.9949L11 47.895H0V45.9949H12L24 65.9949L12 85.9949H0V86.001ZM52 64.001H28L16 44.001L28 24.001H52L64 44.001L52 64.001ZM18 44.001L29 62.1011H51L62 44.001L51 25.907H29L18 44.001ZM68 42.001L56 22.001L68 2.001H80V3.9009H69L58 22.001L69 40.1011H80V42.001H68ZM12 42.001H0V40.1011H11L22 22.001L11 3.9009H0V2.001H12L24 22.001L12 42.001ZM52 20.001H28L16 0.0010004H18L29 18.1011H51L62 0.0010004H64L52 20.001Z" fill="white"/>
</svg>
