<svg width="48" height="48" viewBox="0 0 48 48" fill="none" xmlns="http://www.w3.org/2000/svg">
<path d="M22.5 24C22.5 23.2469 23.2469 22.5 24 22.5C24.7531 22.5 25.5 23.2469 25.5 24C25.5 24.7531 24.7531 25.5 24 25.5C23.2469 25.5 22.5 24.7531 22.5 24Z" fill="url(#paint0_linear_2_77343)"/>
<path fill-rule="evenodd" clip-rule="evenodd" d="M22.5 16.5C22.5571 17.2006 23.2847 18 24 18C24.7153 18 25.4429 17.2006 25.5 16.5C28.9298 17.0734 30.9266 19.0702 31.5 22.5C30.7994 22.5571 30 23.2847 30 24C30 24.7153 30.7994 25.4429 31.5 25.5C30.9266 28.9298 28.9298 30.9266 25.5 31.5C25.4429 30.7994 24.7153 30 24 30C23.2847 30 22.5571 30.7994 22.5 31.5C19.0702 30.9266 17.0734 28.9298 16.5 25.5C17.2006 25.4429 18 24.7153 18 24C18 23.2847 17.2006 22.5571 16.5 22.5C17.0734 19.0702 19.0702 17.0734 22.5 16.5ZM19.5 24C19.5 21.7407 21.7407 19.5 24 19.5C26.2593 19.5 28.5 21.7407 28.5 24C28.5 26.2593 26.2593 28.5 24 28.5C21.7407 28.5 19.5 26.2593 19.5 24Z" fill="url(#paint1_linear_2_77343)"/>
<path fill-rule="evenodd" clip-rule="evenodd" d="M9 24C9 15.7157 15.7157 9 24 9C32.2843 9 39 15.7157 39 24C39 32.2843 32.2843 39 24 39C15.7157 39 9 32.2843 9 24ZM25.5 13.5V12C25.5 11.2469 24.7531 10.5 24 10.5C23.2469 10.5 22.5 11.2469 22.5 12V13.5C17.5654 14.1153 14.1153 17.5654 13.5 22.5H12C11.2469 22.5 10.5 23.2469 10.5 24C10.5 24.7531 11.2469 25.5 12 25.5H13.5C14.1153 30.4346 17.5654 33.8847 22.5 34.5V36C22.5 36.7531 23.2469 37.5 24 37.5C24.7531 37.5 25.5 36.7531 25.5 36V34.5C30.4346 33.8847 33.8847 30.4346 34.5 25.5H36C36.7531 25.5 37.5 24.7531 37.5 24C37.5 23.2469 36.7531 22.5 36 22.5H34.5C33.8847 17.5654 30.4346 14.1153 25.5 13.5Z" fill="url(#paint2_linear_2_77343)"/>
<defs>
<linearGradient id="paint0_linear_2_77343" x1="54.0071" y1="23.9999" x2="24.0001" y2="-6.00722" gradientUnits="userSpaceOnUse">
<stop stop-color="#FF9C0E"/>
<stop offset="1" stop-color="#FFD800"/>
</linearGradient>
<linearGradient id="paint1_linear_2_77343" x1="54.0071" y1="23.9999" x2="24.0001" y2="-6.00722" gradientUnits="userSpaceOnUse">
<stop stop-color="#FF9C0E"/>
<stop offset="1" stop-color="#FFD800"/>
</linearGradient>
<linearGradient id="paint2_linear_2_77343" x1="54.0071" y1="23.9999" x2="24.0001" y2="-6.00722" gradientUnits="userSpaceOnUse">
<stop stop-color="#FF9C0E"/>
<stop offset="1" stop-color="#FFD800"/>
</linearGradient>
</defs>
</svg>
