<svg width="59" height="45" viewBox="0 0 59 45" fill="none" xmlns="http://www.w3.org/2000/svg">
<g filter="url(#filter0_d_2_52458)">
<path d="M19.2272 14.367L16.8479 14.4124C16.7698 14.3194 16.708 14.1879 16.6625 14.0179C16.6663 14.0321 16.6582 13.9735 16.6382 13.8422C16.6163 13.7038 16.597 13.5609 16.5803 13.4136C16.5616 13.2591 16.5461 13.1304 16.5337 13.0275C16.5213 12.9245 16.5246 12.9084 16.5436 12.9793C16.5322 12.9368 16.4948 12.8823 16.4314 12.8157C16.3751 12.7473 16.3375 12.6777 16.3185 12.6068C16.3166 12.5998 16.3067 12.591 16.2887 12.5807C16.2779 12.5684 16.2696 12.5516 16.2639 12.5304C16.262 12.5233 16.2643 12.5037 16.2709 12.4716L16.3031 12.1668C16.3101 12.0511 16.2899 11.9616 16.2426 11.8984C16.2023 11.8332 16.1698 11.8533 16.1449 11.9587C16.12 12.0641 16.0991 12.1987 16.0823 12.3627C16.0636 12.5195 16.0494 12.679 16.0396 12.841C16.0299 13.003 16.0166 13.1091 15.9996 13.1592C15.9723 13.2272 15.9157 13.2994 15.8298 13.3755C15.7491 13.4427 15.7173 13.5081 15.7344 13.5719C15.7188 13.5988 15.6837 13.6235 15.6289 13.6457C15.5812 13.6661 15.53 13.6874 15.4752 13.7097C15.4275 13.73 15.3844 13.753 15.3456 13.7786C15.305 13.797 15.2876 13.8169 15.2933 13.8381C15.3047 13.8806 15.3286 13.9274 15.365 13.9784C15.4085 14.0274 15.4476 14.0739 15.4821 14.1178C15.5218 14.1527 15.5571 14.185 15.5878 14.2148C15.6237 14.2355 15.6417 14.2459 15.6417 14.2459C15.655 14.2954 15.6241 14.3645 15.5491 14.4529C15.4287 14.4851 15.3715 14.4701 15.3776 14.4077C15.3907 14.3435 15.3878 14.2759 15.3688 14.2051L15.2235 14.1302C15.2425 14.201 15.2248 14.2627 15.1706 14.3152C15.1163 14.3677 15.0842 14.418 15.0744 14.4662C15.0915 14.53 15.1348 14.6208 15.2044 14.7388C15.274 14.8569 15.3192 14.9548 15.3401 15.0327C15.3742 15.1602 15.3647 15.2805 15.3114 15.3934C15.2582 15.5064 15.1678 15.58 15.0403 15.6141C14.9837 15.6293 14.9003 15.6441 14.7902 15.6584C14.6854 15.6637 14.6082 15.673 14.5586 15.6863C14.4523 15.7147 14.4134 15.7821 14.4419 15.8884L14.3641 16.0231C14.4114 16.0863 14.421 16.1787 14.3928 16.3001C14.3717 16.4196 14.3754 16.5325 14.4038 16.6388C14.4285 16.7309 14.461 16.8095 14.5012 16.8746C14.5395 16.9327 14.545 16.9957 14.5177 17.0638L14.4542 17.2516C14.4282 17.2965 14.4279 17.3802 14.4531 17.5025C14.466 17.6357 14.4932 17.7233 14.5349 17.7653L14.0744 17.8317L14.0525 17.9628C13.9247 18.0806 13.8683 18.1678 13.8835 18.2245C13.8911 18.2528 13.9138 18.2809 13.9516 18.3087C13.9965 18.3346 14.044 18.3561 14.0941 18.373C14.1442 18.39 14.1898 18.4043 14.2309 18.4161C14.2721 18.4278 14.2926 18.4337 14.2926 18.4337C14.3679 18.573 14.386 18.6972 14.3469 18.8064C14.3078 18.9155 14.2543 19.0134 14.1864 19.0999C14.1185 19.1864 14.0522 19.2649 13.9876 19.3354C13.93 19.404 13.9098 19.4701 13.9269 19.5339C13.9402 19.5835 13.9717 19.6585 14.0214 19.7591C14.0692 19.8526 14.0998 19.9241 14.1131 19.9737L14.1286 19.9467C14.1466 19.9571 14.1575 19.9694 14.1613 19.9835C14.1669 20.0048 14.1646 20.0244 14.1542 20.0424C14.1812 20.0579 14.1886 20.128 14.1765 20.2528C14.1643 20.3775 14.1665 20.4566 14.1831 20.4901L14.3142 20.5119C14.3875 20.5303 14.4204 20.5822 14.4129 20.6677L14.3209 20.7493C14.2227 20.8363 14.1575 20.9753 14.1251 21.1662C14.2863 21.2293 14.3981 21.3208 14.4606 21.4407C14.5302 21.5587 14.5837 21.6734 14.6211 21.7849C14.6657 21.8944 14.709 21.9853 14.7511 22.0575C14.8004 22.1279 14.8887 22.1459 15.0162 22.1118C15.1154 22.0852 15.2051 22.0232 15.2852 21.9258L16.0658 21.0562L16.0904 20.9357L16.7116 20.1087L16.7362 19.9882L17.2794 19.1253C17.2595 19.1078 17.2687 19.0712 17.3069 19.0154C17.3451 18.9596 17.3894 18.8984 17.4399 18.8317C17.4903 18.7651 17.5337 18.7003 17.57 18.6374C17.6134 18.5726 17.6294 18.519 17.618 18.4765C17.5724 18.3065 17.3561 18.2924 16.9689 18.4341L16.2606 18.6808C16.1065 18.6158 16.0058 18.4947 15.9583 18.3177C15.8634 17.9635 16.0604 17.5653 16.5493 17.123C16.6403 17.0379 16.6844 16.9615 16.6815 16.894C17.5081 16.4371 18.1339 16.1518 18.5589 16.0379C19.1043 15.8917 19.5857 15.9032 20.003 16.0723C20.055 16.0963 20.1394 16.1421 20.2561 16.2095C20.38 16.275 20.5041 16.3556 20.6284 16.4514C20.758 16.5381 20.8752 16.6358 20.9802 16.7443C21.0833 16.8457 21.1472 16.9425 21.1719 17.0346C21.1776 17.0558 21.177 17.1243 21.17 17.2401C21.1682 17.3468 21.1797 17.4462 21.2044 17.5383L21.136 18.388L21.0737 18.4958C21.036 18.5818 20.9691 18.6718 20.8728 18.766C20.7747 18.853 20.7446 18.9674 20.7825 19.109C20.792 19.1444 20.8157 19.1761 20.8535 19.2039C20.8894 19.2246 20.9121 19.2527 20.9216 19.2881C20.933 19.3306 20.9033 19.3614 20.8325 19.3803C20.7281 19.4159 20.64 19.4129 20.5681 19.3715C20.4997 19.4277 20.5054 19.6046 20.5851 19.9022C20.5903 19.8932 20.5964 19.8877 20.6035 19.8858C20.6176 19.882 20.6285 19.8943 20.6361 19.9226C20.6437 19.951 20.6404 19.967 20.6263 19.9708C20.6192 19.9727 20.6111 19.9711 20.6022 19.9659L20.5775 20.0864C20.3721 20.1414 20.2865 20.2327 20.3206 20.3602C20.3491 20.4665 20.4043 20.5732 20.4861 20.6803C20.5661 20.7803 20.5827 20.8708 20.536 20.9516L20.4971 21.019C20.4712 21.0639 20.4627 21.0889 20.4717 21.0941C20.4878 21.0974 20.4639 21.1076 20.4002 21.1247C20.3719 21.1323 20.3249 21.198 20.2594 21.3218C20.201 21.4438 20.1312 21.5801 20.0502 21.7309C19.9762 21.8798 19.8958 22.019 19.809 22.1485C19.7294 22.2762 19.6577 22.3485 19.5939 22.3656C19.5301 22.3827 19.4661 22.3847 19.4019 22.3715L19.3772 22.492C19.3627 22.5794 19.3464 22.6179 19.3285 22.6076C19.2944 22.5939 19.2603 22.5233 19.2262 22.3958L19.1977 22.2896C19.1673 22.1762 19.1354 22.1279 19.1019 22.1444C19.0754 22.1591 19.045 22.2014 19.0106 22.2714C18.9762 22.3413 18.9331 22.4212 18.8812 22.511C18.8384 22.606 18.7853 22.6772 18.7221 22.7245C18.6853 22.7571 18.6272 22.7955 18.5479 22.8395C18.4705 22.8906 18.3931 22.9417 18.3157 22.9928C18.2454 23.042 18.1821 23.0894 18.1259 23.1348C18.0788 23.1854 18.059 23.2248 18.0666 23.2532C18.0666 23.2532 18.0793 23.2725 18.1049 23.3112L18.0051 23.4063C18.0348 23.3756 17.9892 23.3612 17.8683 23.3632C17.7493 23.3724 17.6579 23.3855 17.5941 23.4025C17.5516 23.4139 17.5049 23.4378 17.4539 23.4743C17.4048 23.5178 17.3539 23.5542 17.301 23.5836C17.25 23.62 17.2023 23.6404 17.1579 23.6447C17.1206 23.6471 17.0925 23.6129 17.0735 23.542C17.0545 23.4712 17.0674 23.3918 17.1122 23.3039C17.157 23.216 17.1965 23.1371 17.2309 23.0671C17.2724 22.9953 17.292 22.9407 17.2896 22.9034C17.2871 22.866 17.2257 22.8635 17.1053 22.8958C17.0982 22.8977 17.0741 22.8928 17.033 22.881L16.9086 23.0965C16.9034 23.1055 16.8937 23.1119 16.8795 23.1157C16.8654 23.1195 16.8458 23.1172 16.8207 23.1087C16.7976 23.1073 16.7825 23.1076 16.7754 23.1095C16.7541 23.1152 16.7501 23.1428 16.7634 23.1924L16.5574 23.3159C16.4394 23.3855 16.3233 23.4622 16.209 23.5459C16.0948 23.6297 15.9797 23.7099 15.8635 23.7865C15.5874 23.9744 15.336 24.0987 15.1094 24.1594C14.8614 24.2259 14.6415 24.2127 14.4496 24.1198C14.3659 24.0056 14.1973 23.8724 13.9439 23.7201C13.6995 23.573 13.3696 23.4185 12.9542 23.2565C12.7841 23.1882 12.5461 23.1077 12.2404 23.015C11.9398 22.9133 11.6234 22.7665 11.2911 22.5747L11.0755 22.4502C11.0666 22.445 11.0438 22.417 11.0074 22.366C10.9781 22.3131 10.9407 22.2586 10.8953 22.2024L10.5772 21.6955C10.3377 21.3117 10.161 20.9073 10.0472 20.4823C9.73969 19.3348 9.85671 18.0432 10.3982 16.6074C10.8409 15.426 11.5466 14.2347 12.5154 13.0337C12.9248 12.5216 13.3317 12.0709 13.7361 11.6817C14.1475 11.2905 14.5555 10.9573 14.96 10.6819C15.0167 10.6667 15.1003 10.667 15.2109 10.683C15.3214 10.6989 15.44 10.7165 15.5666 10.7357C15.6932 10.7549 15.8154 10.7715 15.933 10.7856C16.0577 10.7977 16.1555 10.7943 16.2264 10.7753C16.4176 10.724 16.5892 10.6135 16.7411 10.4438C17.4574 10.1987 18.1188 10.2872 18.7254 10.7092C18.828 10.7804 18.9462 10.8816 19.0801 11.0128C19.2191 11.135 19.3567 11.2803 19.493 11.4488C19.6273 11.6102 19.7503 11.786 19.8621 11.9762C19.9809 12.1646 20.0668 12.3579 20.12 12.5562C20.213 12.9033 20.1565 13.2449 19.9504 13.581C19.8934 13.6798 19.8028 13.7952 19.6787 13.9271C19.5528 14.052 19.4023 14.1986 19.2272 14.367ZM13.6155 19.2643C13.5098 19.323 13.4768 19.4267 13.5167 19.5755C13.5319 19.6321 13.5671 19.6644 13.6224 19.6724C13.6654 19.6912 13.7324 19.6581 13.8235 19.573C13.8428 19.5602 13.8492 19.5129 13.8424 19.4312C13.8292 19.3816 13.8123 19.333 13.792 19.2853C13.7787 19.2357 13.7612 19.1987 13.7394 19.1741C13.7157 19.1425 13.6907 19.134 13.6643 19.1487C13.643 19.1544 13.6268 19.1929 13.6155 19.2643ZM14.7754 22.2332L14.7327 22.0738C14.7096 22.0725 14.6874 22.0746 14.6661 22.0803C14.6307 22.0898 14.6274 22.1059 14.6563 22.1285C14.678 22.153 14.6988 22.174 14.7187 22.1915C14.7386 22.2089 14.7575 22.2229 14.7754 22.2332ZM25.4379 10.8921C25.6186 11.4814 25.6927 12.1828 25.6601 12.9963C25.6412 13.3506 25.6142 13.7033 25.5792 14.0543C25.5513 14.4034 25.5243 14.7561 25.4983 15.1123C25.5996 16.4821 25.4532 17.9334 25.0592 19.4663C25.0011 19.5046 24.9549 19.5588 24.9205 19.6287C24.8861 19.6987 24.8456 19.7741 24.7989 19.8549C24.7574 19.9268 24.7079 19.997 24.6504 20.0656C24.5928 20.1341 24.518 20.1807 24.4259 20.2054C24.4582 20.3258 24.4321 20.4695 24.3478 20.6363C24.2705 20.8013 24.1646 20.9018 24.03 20.9378C23.9591 20.9568 23.8644 20.9291 23.7457 20.8546C23.6342 20.7782 23.5394 20.7504 23.4615 20.7713C23.3907 20.7903 23.3374 20.8463 23.3016 20.9394C23.2658 21.0325 23.2195 21.0867 23.1629 21.1018L22.6921 20.875C22.633 20.8528 22.6062 20.7385 22.6116 20.5321C22.5408 20.5511 22.4607 20.5498 22.3714 20.5281C22.2802 20.4994 22.1942 20.4617 22.1134 20.4151C22.0306 20.3613 21.9576 20.3012 21.8942 20.2347C21.8308 20.1681 21.7906 20.103 21.7735 20.0392C21.7602 19.9896 21.7476 19.9285 21.7357 19.8558C21.7309 19.7811 21.7152 19.6942 21.6887 19.5951C21.664 19.503 21.6656 19.438 21.6934 19.4002C21.7264 19.3534 21.7568 19.3111 21.7846 19.2733C21.8196 19.2335 21.8464 19.1922 21.8653 19.1492C21.8822 19.0991 21.8668 19.0273 21.819 18.9338L21.684 18.6853C21.64 18.606 21.6085 18.5309 21.5895 18.46C21.5478 18.3042 21.5336 18.1524 21.5472 18.0045C21.5659 17.8476 21.5562 17.6984 21.5183 17.5567C21.5031 17.5 21.4891 17.462 21.4763 17.4427L21.738 16.974C21.8054 16.8572 21.8182 16.7209 21.7764 16.5651C21.7632 16.5155 21.7352 16.4395 21.6926 16.337C21.6499 16.2346 21.622 16.1586 21.6087 16.109C21.5783 15.9956 21.5765 15.8898 21.6033 15.7915C21.6353 15.6843 21.69 15.5482 21.7672 15.3832L21.8782 15.1599C21.9145 15.097 21.9331 15.0389 21.934 14.9855C21.8345 14.3592 21.8282 13.6131 21.915 12.7471C22.0074 11.7886 22.1779 10.9799 22.4265 10.3211C22.7336 9.54034 23.0925 9.09493 23.5034 8.98484C24.1196 8.81972 24.7645 9.45548 25.4379 10.8921ZM33.0501 6.16488C33.1365 6.11895 33.2257 6.08365 33.3178 6.05898C33.4807 6.01533 33.6319 6.01278 33.7713 6.05135C33.9107 6.08992 34.0355 6.15897 34.1457 6.25851C34.261 6.34907 34.3609 6.46658 34.4451 6.61103C34.5275 6.74839 34.5895 6.89499 34.6313 7.05083C34.6503 7.12166 34.6534 7.20432 34.6408 7.29882C34.6333 7.38433 34.6198 7.47528 34.6 7.57166C34.5784 7.66097 34.5594 7.74579 34.5429 7.82611C34.5317 7.89745 34.5318 7.95438 34.5431 7.99688C34.5602 8.06063 34.6054 8.10167 34.6786 8.12001C34.75 8.13126 34.7961 8.17584 34.817 8.25376C34.8245 8.28209 34.7963 8.34661 34.7322 8.4473C34.6751 8.5461 34.6466 8.5955 34.6466 8.5955C34.6637 8.65925 34.665 8.73483 34.6504 8.82224C34.6411 8.90066 34.6237 8.97744 34.5983 9.05258C34.5799 9.12583 34.5597 9.19198 34.5376 9.25106C34.5135 9.30305 34.4999 9.33708 34.4966 9.35314C34.4192 9.40425 34.3921 9.48742 34.4154 9.60266C34.4368 9.71081 34.4293 9.79632 34.393 9.85919L34.1908 10.2095L33.8346 11.5576C33.8313 11.5737 33.8235 11.5871 33.8112 11.598C33.799 11.6089 33.7995 11.6391 33.8128 11.6887L33.6855 11.8936C33.7205 11.9678 33.7496 12.0055 33.7728 12.0069C33.7959 12.0083 33.8188 11.9946 33.8414 11.9657C33.8712 11.935 33.8964 11.9017 33.9171 11.8657C33.945 11.8279 33.9766 11.8042 34.012 11.7948C34.0191 11.7929 34.0245 11.799 34.0283 11.8132C34.0682 11.9619 34.0728 12.0783 34.0422 12.1625C34.0168 12.2376 33.9744 12.3059 33.9149 12.3674C33.8606 12.4199 33.8028 12.4733 33.7415 12.5277C33.6802 12.5821 33.6396 12.6575 33.6199 12.7539C33.5689 12.7904 33.5446 12.8272 33.547 12.8645C33.5495 12.9019 33.5563 12.9418 33.5677 12.9843C33.5772 13.0197 33.5751 13.0544 33.5615 13.0884C33.5549 13.1206 33.5127 13.1471 33.4347 13.168C33.2647 13.2135 33.1716 13.3334 33.1553 13.5275C33.139 13.7217 33.1555 13.9109 33.2049 14.095C33.2352 14.2084 33.2177 14.327 33.1521 14.4508C33.0847 14.5676 32.9944 14.6411 32.881 14.6715C32.8442 14.7041 32.8249 14.7738 32.8232 14.8806C32.8195 14.9803 32.8246 15.07 32.8384 15.1498C32.8503 15.2226 32.8581 15.266 32.8619 15.2802C32.8407 15.2859 32.8192 15.2765 32.7974 15.2519C32.7756 15.2274 32.7541 15.218 32.7329 15.2237C32.6691 15.2407 32.6311 15.1978 32.6187 15.0948C32.6133 14.99 32.6167 14.8752 32.6289 14.7505C32.6462 14.6167 32.6673 14.4972 32.6922 14.3918C32.7171 14.2865 32.7315 14.2409 32.7353 14.255C32.7049 14.1417 32.6437 14.0974 32.5516 14.122C32.1337 14.234 31.9503 14.3856 32.0016 14.5769C32.0054 14.5911 32.02 14.6175 32.0456 14.6562L31.9743 14.8575C32.1278 14.8923 32.2302 15.0053 32.2815 15.1966C32.31 15.3028 32.3066 15.4176 32.2713 15.5409C32.2431 15.6624 32.1794 15.7364 32.0802 15.7629C32.0094 15.7819 31.9336 15.7681 31.8527 15.7214C31.8018 15.7578 31.7829 15.8009 31.7962 15.8504C31.8114 15.9071 31.8587 15.9704 31.9381 16.0402C32.0157 16.1029 32.0554 16.1378 32.0573 16.1449C32.0521 16.1539 32.0212 16.166 31.9645 16.1811C31.9149 16.1944 31.8644 16.2042 31.8129 16.2104C31.7595 16.2095 31.7142 16.2103 31.6769 16.2127C31.6396 16.2151 31.6315 16.2134 31.6528 16.2077C31.5394 16.2381 31.4942 16.2958 31.5169 16.3808C31.5283 16.4233 31.5513 16.4665 31.5858 16.5104L31.7063 16.535C31.7153 16.5402 31.7245 16.5605 31.734 16.5959C31.7487 16.6224 31.756 16.6356 31.756 16.6356C31.7636 16.6639 31.759 16.7031 31.742 16.7532C31.7321 16.8014 31.7329 16.8468 31.7443 16.8893C31.6584 16.9654 31.6446 17.0413 31.7028 17.1168C31.768 17.1904 31.813 17.2732 31.8377 17.3653C31.8586 17.4432 31.8053 17.4993 31.6778 17.5334C31.5715 17.5619 31.5108 17.5478 31.4956 17.4911C31.4804 17.4345 31.4374 17.4156 31.3666 17.4346C31.3028 17.4517 31.2785 17.4886 31.2937 17.5452C31.3032 17.5807 31.3021 17.6189 31.2903 17.66C31.2767 17.6941 31.2831 17.7607 31.3097 17.8598C31.416 18.2565 31.3699 18.4814 31.1716 18.5346C31.1008 18.5535 31.0378 18.616 30.9826 18.7218C30.9327 18.8187 30.8961 18.8665 30.873 18.8651C30.8428 18.8656 30.7983 18.813 30.7396 18.7073C30.7467 18.7054 30.712 18.7602 30.6356 18.8718C30.5573 18.9763 30.4642 19.0961 30.3562 19.2314C30.2463 19.3595 30.1274 19.4825 29.9995 19.6002C29.8735 19.7251 29.768 19.7989 29.683 19.8217C29.5697 19.8521 29.4988 19.8141 29.4703 19.7079C29.4399 19.5945 29.3787 19.5502 29.2866 19.5749C29.2371 19.5882 29.2035 19.6047 29.1861 19.6246C29.1776 19.6496 29.1727 19.6737 29.1713 19.6969C29.1718 19.7271 29.1643 19.7557 29.1487 19.7826C29.1421 19.8148 29.115 19.841 29.0673 19.8614C28.8926 19.9462 28.7235 19.9383 28.56 19.8379C28.3964 19.7375 28.2462 19.5879 28.1095 19.3892C27.9727 19.1905 27.8525 18.9684 27.7487 18.7229C27.6502 18.4684 27.5724 18.2349 27.5155 18.0224L27.2023 16.8536C27.1833 16.7828 27.1667 16.6923 27.1524 16.5823C27.1381 16.4722 27.1238 16.3622 27.1095 16.2521C27.0933 16.135 27.079 16.025 27.0666 15.922C27.0542 15.819 27.0394 15.7357 27.0223 15.6719C26.9977 15.5798 26.977 15.517 26.9605 15.4835C26.864 15.0387 26.7676 14.5938 26.6712 14.1489C26.5729 13.697 26.479 13.2476 26.3897 12.8008C26.2833 12.2903 26.188 11.8072 26.1038 11.3514C26.0196 10.8957 25.961 10.4787 25.928 10.1003C25.9156 9.99735 25.9237 9.84334 25.9522 9.63829C25.9879 9.43135 26.0323 9.21447 26.0854 8.98767C26.1352 8.77692 26.2231 8.60912 26.3491 8.48426C26.4732 8.35232 26.6131 8.26547 26.769 8.22371C26.9673 8.17057 27.1394 8.14722 27.2854 8.15366C27.4295 8.15301 27.5606 8.17482 27.6788 8.21908C27.8021 8.25436 27.924 8.31279 28.0446 8.39437C28.1703 8.46697 28.3105 8.55088 28.4651 8.64612L28.6806 8.77057L28.8998 8.95099C28.9556 8.98919 29.0034 9.08266 29.0433 9.23142L29.1059 9.46517C29.1121 9.51665 29.1199 9.5601 29.1294 9.59552C29.1389 9.63094 29.1475 9.66281 29.1551 9.69115C29.2386 10.0028 29.3193 10.1482 29.3972 10.1273L29.4788 10.2194C29.5006 10.2439 29.5157 10.2436 29.5241 10.2186C29.5326 10.1935 29.5401 10.165 29.5467 10.1328C29.5604 10.0988 29.5759 10.0719 29.5934 10.052C29.6089 10.025 29.6356 10.0255 29.6735 10.0533C29.7238 10.2979 29.7849 10.6536 29.8568 11.1202C29.8551 11.227 29.8424 11.3215 29.8189 11.4037C29.7935 11.4788 29.7922 11.5589 29.8149 11.6439C29.8339 11.7147 29.8846 11.8188 29.967 11.9562C30.0564 12.0917 30.1135 12.2054 30.1381 12.2975C30.1666 12.4038 30.1784 12.5752 30.1735 12.8119C30.1721 12.835 30.1648 12.8788 30.1517 12.943C30.1385 13.0073 30.1298 13.0741 30.1257 13.1436C30.1215 13.213 30.1225 13.2735 30.1287 13.325C30.133 13.3694 30.1564 13.3859 30.1989 13.3745C30.3406 13.3365 30.4885 13.1944 30.6427 12.9481C30.8021 12.6928 30.941 12.3329 31.0595 11.8684C31.1427 11.5273 31.244 11.0978 31.3633 10.5799C31.4808 10.0549 31.6298 9.4494 31.8104 8.76328C32.1466 7.49642 32.5599 6.63029 33.0501 6.16488ZM34.1472 8.72931C34.1799 8.76611 34.2174 8.77882 34.2599 8.76743C34.3005 8.74896 34.3286 8.72626 34.3442 8.69931C34.3597 8.67237 34.3602 8.64568 34.3455 8.61924C34.3308 8.5928 34.2871 8.58554 34.2144 8.59743C34.1487 8.60743 34.1263 8.65139 34.1472 8.72931ZM34.3702 10.8788C34.3347 10.8883 34.3161 10.8895 34.3142 10.8825C34.3142 10.8825 34.3194 10.8735 34.3297 10.8555C34.333 10.8395 34.3465 10.8472 34.3702 10.8788ZM34.3227 10.9143L34.3483 11.01C34.2988 11.0232 34.2827 11.02 34.3002 11.0001C34.3157 10.9732 34.3232 10.9446 34.3227 10.9143ZM34.2988 11.0802C34.2705 11.0878 34.2554 11.088 34.2535 11.0809C34.2535 11.0809 34.2606 11.079 34.2747 11.0752C34.2941 11.0625 34.3021 11.0641 34.2988 11.0802ZM34.2599 11.1475C34.2245 11.157 34.2059 11.1582 34.204 11.1511C34.204 11.1511 34.2092 11.1422 34.2195 11.1242C34.2247 11.1152 34.2382 11.123 34.2599 11.1475ZM34.1746 11.4665C34.1321 11.4779 34.117 11.4781 34.1292 11.4673C34.1415 11.4564 34.1566 11.4561 34.1746 11.4665ZM34.1251 11.5367C34.0967 11.5443 34.0816 11.5445 34.0797 11.5375C34.0797 11.5375 34.0814 11.5294 34.0847 11.5134C34.095 11.4954 34.1085 11.5032 34.1251 11.5367ZM34.089 11.6147C34.0536 11.6242 34.0349 11.6254 34.0331 11.6183C34.0293 11.6041 34.03 11.5926 34.0351 11.5836C34.0474 11.5727 34.0616 11.5689 34.0776 11.5722C34.0866 11.5774 34.0904 11.5915 34.089 11.6147ZM34.0644 11.7352C34.036 11.7428 34.0209 11.743 34.019 11.7359C34.019 11.7359 34.0207 11.7279 34.024 11.7118C34.0343 11.6939 34.0478 11.7017 34.0644 11.7352ZM32.979 13.0395C33.1631 12.9902 33.2353 12.8911 33.1954 12.7424C33.1467 12.7023 33.1011 12.6879 33.0586 12.6993C33.0161 12.7107 32.9819 12.7389 32.956 12.7838C32.9353 12.8197 32.9244 12.8643 32.9236 12.9177C32.9279 12.9621 32.9463 13.0027 32.979 13.0395ZM32.7379 13.4572C32.7024 13.4667 32.6857 13.475 32.6876 13.482C32.6895 13.4891 32.7029 13.4969 32.728 13.5054C32.7601 13.5119 32.7634 13.4959 32.7379 13.4572ZM32.0624 16.2916L32.0852 16.3766C32.0427 16.388 32.0257 16.3811 32.0342 16.3561C32.0497 16.3291 32.0591 16.3076 32.0624 16.2916ZM43.0064 5.84303L41.7456 6.23779C41.6484 6.27145 41.5209 6.36253 41.3633 6.51105C41.2038 6.65248 41.0462 6.74408 40.8903 6.78583C40.6566 6.84847 40.498 6.72395 40.4144 6.41228C40.2374 6.45973 40.1564 6.51179 40.1716 6.56846C40.1754 6.58262 40.1856 6.60646 40.2021 6.63998C40.2239 6.66452 40.2367 6.68387 40.2405 6.69804C40.2538 6.74763 40.1896 6.7914 40.0479 6.82936C39.6441 6.93754 39.3961 7.25835 39.3036 7.79178C39.2323 8.20567 39.2574 8.63929 39.3789 9.09263C39.4225 9.25555 39.4907 9.33979 39.5833 9.34535C39.6829 9.34901 39.8355 9.32332 40.0409 9.26827L40.3172 9.19425C40.6147 9.11454 40.7919 9.02528 40.849 8.92648L40.9345 8.77829C40.9501 8.75134 40.9652 8.75109 40.9799 8.77753C41.0016 8.80206 41.0135 8.81787 41.0154 8.82496C41.0159 8.85519 41.0218 8.89156 41.0332 8.93406L41.1708 9.02246C41.1708 9.02246 41.171 9.03758 41.1715 9.06781C41.1772 9.08906 41.1791 9.09615 41.1772 9.08906C41.1867 9.12448 41.2201 9.14971 41.2772 9.16476C41.3396 9.17083 41.3798 9.17904 41.3977 9.18942C41.5111 9.15905 41.5807 9.12141 41.6066 9.0765C41.6032 8.97872 41.6558 8.93426 41.7645 8.9431C41.8712 8.94486 41.9529 8.93815 42.0096 8.92297C42.045 8.91348 42.0724 8.90234 42.0918 8.88957L42.0851 8.6522C42.0803 8.57757 42.1022 8.5603 42.1509 8.6004C42.1926 8.64239 42.2127 8.67496 42.2113 8.69811C42.2151 8.71228 42.2083 8.72929 42.1908 8.74915C42.1804 8.76711 42.1665 8.78603 42.1491 8.80589C42.1316 8.82575 42.1276 8.85339 42.1371 8.8888C42.1542 8.95256 42.1933 9.05596 42.2544 9.19902C42.3207 9.3331 42.3652 9.44263 42.388 9.52764C42.3073 9.59481 42.2762 9.6487 42.2947 9.6893C42.3131 9.72991 42.3555 9.76032 42.4216 9.78056C42.4859 9.79371 42.5579 9.79338 42.6377 9.77959C42.7246 9.7639 42.7936 9.73783 42.8445 9.7014C42.8533 10.3292 42.4881 10.8788 41.7489 11.3501C41.5148 11.4964 41.1938 11.6583 40.7859 11.836C40.3779 12.0136 39.9012 12.1755 39.3558 12.3216C39.1858 12.3672 39.078 12.4606 39.0323 12.6019C38.9919 12.7342 38.9713 12.884 38.9705 13.0512C38.9698 13.2184 38.9664 13.3901 38.9605 13.5664C38.9527 13.7355 38.9044 13.8813 38.8158 14.0037C38.8575 14.1596 38.8011 14.4024 38.6466 14.7323C38.6193 14.8004 38.6075 14.8415 38.6113 14.8557C38.6094 14.8486 38.6637 14.853 38.7743 14.8689C38.89 14.8759 39.0183 14.8871 39.1591 14.9025C39.2999 14.9179 39.4362 14.9307 39.568 14.941C39.6998 14.9512 39.7834 14.9516 39.8188 14.9421C39.8613 14.9307 39.9071 14.9032 39.9562 14.8597C40.0104 14.8072 40.03 14.7526 40.0148 14.696C40.0034 14.6535 39.9817 14.6289 39.9495 14.6224C39.9174 14.6158 39.8827 14.6137 39.8454 14.6161C39.8151 14.6166 39.7858 14.6207 39.7575 14.6283C39.7292 14.6358 39.7131 14.6326 39.7093 14.6184C39.7055 14.6042 39.7343 14.5699 39.7956 14.5155C39.8551 14.4541 39.8801 14.4056 39.8706 14.3702L40.3766 14.4738L40.5607 14.3106C40.673 14.2197 40.7575 14.1667 40.8141 14.1515C40.8354 14.1458 40.8385 14.1716 40.8234 14.2288C40.8065 14.2789 40.7844 14.3379 40.757 14.406C40.7297 14.474 40.7015 14.5386 40.6722 14.5995C40.6501 14.6586 40.64 14.6917 40.6419 14.6988C40.6666 14.7908 40.8022 14.8153 41.0487 14.772C41.0926 14.7374 41.1128 14.6713 41.1094 14.5735C41.1112 14.4667 41.1182 14.4079 41.1304 14.397C41.2805 14.6453 41.4511 14.7439 41.6424 14.6926C41.7203 14.6717 41.7975 14.6055 41.8739 14.4939C41.9554 14.3734 42.0706 14.2932 42.2194 14.2533C42.3044 14.2305 42.3847 14.247 42.4603 14.3026C42.5412 14.3493 42.5957 14.3688 42.6241 14.3612C42.6524 14.3536 42.6457 14.2719 42.6039 14.1161C42.7145 14.132 42.7802 14.1789 42.8011 14.2569C42.8258 14.349 42.7928 14.4527 42.7023 14.568C42.6098 14.6763 42.514 14.7438 42.4148 14.7703C42.3858 14.9452 42.355 15.128 42.3227 15.3189C42.2974 15.5079 42.218 15.6506 42.0844 15.7471L42.0827 15.4857C42.0818 15.5391 42.007 15.6426 41.8584 15.7963C41.715 15.941 41.5409 16.1129 41.3361 16.3121L40.3934 17.2138L37.8858 17.8857L37.262 18.235C37.1827 18.2791 37.0793 18.3182 36.9518 18.3523C36.5551 18.4586 36.1778 18.3965 35.82 18.1659C35.5737 18.0117 35.3627 17.7912 35.1871 17.5042C35.0096 17.2101 34.882 16.9178 34.8041 16.6274C34.7643 16.4786 34.7284 16.3023 34.6965 16.0982C34.6627 15.8871 34.6107 15.6505 34.5405 15.3884C34.5547 15.3846 34.5654 15.2831 34.5727 15.0837C34.5852 14.8754 34.593 14.6493 34.596 14.4056C34.599 14.1618 34.5997 13.9377 34.598 13.7331C34.6035 13.5267 34.6043 13.4164 34.6005 13.4022L34.6754 13.2569L34.7183 12.9493C34.7328 12.8619 34.7353 12.8005 34.7258 12.7651C34.7234 12.7278 34.7364 12.7053 34.7647 12.6977L35.7604 7.4885C35.7736 7.42424 35.7799 7.377 35.7794 7.34677C35.777 7.30945 35.7796 7.30496 35.7871 7.33329C35.7834 7.31913 35.777 7.30945 35.768 7.30426L35.8924 7.08871C35.9324 6.92616 36.0127 6.73003 36.1334 6.50031C36.2592 6.2616 36.3976 6.02714 36.5484 5.7969C36.6974 5.55959 36.8476 5.34093 36.999 5.14094C37.1504 4.94094 37.2742 4.79388 37.3705 4.69976C37.5017 4.56592 37.6097 4.48761 37.6947 4.46483L40.3408 3.45974C40.7402 3.30716 40.9647 3.22422 41.0143 3.21094C41.1772 3.16728 41.2856 3.16101 41.3395 3.19212C41.51 3.1768 41.6964 3.14966 41.8985 3.11068C42.1058 3.06272 42.3028 3.03272 42.4893 3.02069C42.6759 3.00866 42.8417 3.03255 42.9868 3.09237C43.13 3.14511 43.2282 3.27064 43.2813 3.46898C43.2889 3.49731 43.2939 3.53014 43.2963 3.56745C43.3058 3.60287 43.3118 3.63923 43.3142 3.67655C43.327 3.6959 43.3707 3.76009 43.4455 3.86912C43.5184 3.97107 43.5986 4.08624 43.6861 4.21462C43.7808 4.34111 43.829 4.40789 43.8309 4.41497C43.8385 4.44331 43.8461 4.47164 43.8537 4.49997C43.8613 4.52831 43.8663 4.56113 43.8687 4.59845L43.9892 4.6231C43.9982 4.62829 44.0083 4.65213 44.0197 4.69463C44.0363 4.72815 44.0455 4.74845 44.0474 4.75554C44.0569 4.79095 44.0419 4.90505 44.0025 5.09783L43.9312 5.29915C43.8438 5.28461 43.7826 5.2972 43.7477 5.33693C43.718 5.36767 43.6946 5.40808 43.6777 5.45818C43.6608 5.50827 43.6473 5.55741 43.6375 5.60561C43.6257 5.64672 43.5951 5.67392 43.5455 5.6872C43.503 5.69859 43.4496 5.69771 43.3853 5.68456C43.3211 5.67141 43.25 5.67527 43.1721 5.69615C43.0871 5.71893 43.0318 5.76789 43.0064 5.84303ZM41.788 8.43573C41.8565 8.49328 41.8901 8.53363 41.8887 8.55678C41.8854 8.57285 41.8625 8.58657 41.82 8.59796C41.7827 8.60037 41.7374 8.60113 41.684 8.60025C41.6306 8.59937 41.5827 8.60462 41.5402 8.61601C41.4614 8.69027 41.3936 8.73499 41.337 8.75017C41.3016 8.75966 41.281 8.75378 41.2753 8.73253C41.2639 8.69003 41.2941 8.6326 41.3658 8.56024C41.4375 8.48788 41.5017 8.44411 41.5584 8.42892C41.6292 8.40994 41.7057 8.41221 41.788 8.43573ZM41.6911 9.17914C41.6556 9.18863 41.6389 9.19692 41.6408 9.204C41.6427 9.21109 41.6481 9.21722 41.6571 9.22241C41.6713 9.21861 41.6826 9.20419 41.6911 9.17914ZM41.8069 10.0364C41.6823 10.1381 41.6247 10.2067 41.6342 10.2421C41.6456 10.2846 41.7495 10.2757 41.946 10.2155C42.0574 10.178 42.1492 10.1382 42.2215 10.0961C42.2918 10.0469 42.3222 10.0046 42.3127 9.96917C42.2975 9.9125 42.216 9.8774 42.0681 9.86388C42.0096 9.87198 41.9564 9.88622 41.9088 9.90659C41.8592 9.91987 41.8252 9.96314 41.8069 10.0364ZM40.9457 10.3924C40.846 10.3887 40.805 10.4339 40.8225 10.5279C40.8179 10.5671 40.8545 10.5763 40.9324 10.5554C41.0174 10.5326 41.0953 10.5117 41.1662 10.4928C41.322 10.451 41.3866 10.3805 41.3601 10.2814C41.3392 10.2035 41.2827 10.1768 41.1906 10.2015C41.1056 10.2243 41.024 10.2879 40.9457 10.3924ZM36.9214 13.6914C36.801 13.7236 36.7531 13.7858 36.7778 13.8779C36.8138 14.0125 36.8779 14.0674 36.97 14.0428C37.0054 14.0333 37.02 14.0028 37.0138 13.9513C37.0095 13.9069 36.9787 13.8203 36.9214 13.6914ZM40.1638 14.8269C40.082 14.8336 40.0379 14.853 40.0313 14.8851C40.0299 14.9083 40.0427 14.9276 40.0697 14.9432C40.0966 14.9588 40.1233 14.9592 40.1497 14.9445C40.1762 14.9298 40.1808 14.8906 40.1638 14.8269ZM39.805 15.2305C39.838 15.1837 39.8517 15.1497 39.846 15.1284C39.827 15.0576 39.7538 15.0392 39.6262 15.0734C39.5837 15.0848 39.5708 15.1072 39.5874 15.1408C39.6091 15.1653 39.6389 15.1915 39.6767 15.2193C39.7197 15.2381 39.7547 15.2553 39.7817 15.2709C39.8157 15.2846 39.8192 15.2836 39.7923 15.2681C39.8065 15.2643 39.8107 15.2517 39.805 15.2305ZM40.6869 14.9942C40.7223 14.9847 40.7381 14.9729 40.7343 14.9587C40.7177 14.9252 40.6889 14.9025 40.6478 14.8908C40.6067 14.879 40.572 14.8769 40.5436 14.8845C40.5224 14.8902 40.5127 14.8966 40.5146 14.9037C40.508 14.9358 40.5272 14.9649 40.5721 14.9908C40.6241 15.0148 40.6607 15.024 40.682 15.0183C40.689 15.0164 40.6907 15.0084 40.6869 14.9942ZM39.971 15.4251C40.0424 15.4364 40.1009 15.4283 40.1467 15.4008C40.1925 15.3734 40.2187 15.3436 40.2253 15.3115C40.237 15.2704 40.2311 15.234 40.2074 15.2024C40.1819 15.1637 40.1398 15.1484 40.0813 15.1565C39.9537 15.1906 39.9042 15.2608 39.9327 15.3671C39.9365 15.3813 39.9493 15.4006 39.971 15.4251ZM42.2059 14.8832C42.1526 14.8824 42.1271 14.9006 42.1295 14.9379C42.13 14.9681 42.155 14.9766 42.2046 14.9633C42.2188 14.9595 42.2192 14.9328 42.2059 14.8832ZM9.2972 35.1761L12.0749 29.3072C12.5541 28.2906 13.0203 27.5089 13.4736 26.9623C13.5609 26.863 13.664 26.7519 13.7829 26.6289C13.9069 26.497 14.0273 26.4078 14.1439 26.3613L14.5122 26.2057C14.5863 26.1707 14.6574 26.1668 14.7255 26.1941C14.7916 26.2144 14.8616 26.2488 14.9353 26.2973C15.0143 26.3369 15.0996 26.3862 15.1913 26.4451C15.2811 26.497 15.3922 26.5431 15.5245 26.5836L15.6478 26.6189C15.8855 26.6843 16.1355 26.7387 16.3977 26.7824C16.667 26.8241 16.9066 26.8965 17.1164 26.9997L17.24 27.2058C17.3096 27.3238 17.3955 27.4602 17.4977 27.615C17.598 27.7628 17.6652 27.9004 17.6994 28.0279C17.7924 28.375 17.7917 28.7548 17.6972 29.1673L17.1199 31.6451C16.9906 32.2112 16.8871 32.7173 16.8092 33.1633C16.7294 33.6022 16.6772 33.9882 16.6526 34.3213C16.6274 34.6241 16.6367 34.857 16.6803 35.0199C16.7088 35.1261 16.759 35.2 16.8308 35.2415C16.8146 35.1244 16.8278 35.0601 16.8703 35.0487C16.9109 35.0302 16.9591 35.0401 17.0149 35.0783C17.0777 35.1146 17.1373 35.167 17.1936 35.2354C17.248 35.2967 17.2799 35.3451 17.2894 35.3805C17.3103 35.4585 17.3399 35.5264 17.3783 35.5845C17.4166 35.6426 17.4214 35.7172 17.3927 35.8084L17.3073 36.1274C17.3059 36.1505 17.2836 36.1945 17.2402 36.2592C17.202 36.315 17.1924 36.3783 17.2114 36.4492L17.1087 36.5336L17.2141 36.9267L17.122 37.0083L16.9149 38.0204C16.9084 38.0526 16.9124 38.0818 16.9271 38.1083C16.9399 38.1276 16.9333 38.1598 16.9074 38.2047L16.8047 38.2891C16.7644 38.5353 16.6572 38.7728 16.4832 39.0016C16.3162 39.2285 16.1159 39.3733 15.8821 39.436C15.7688 39.4663 15.6639 39.4717 15.5675 39.4519C15.2016 39.5879 14.7835 39.5861 14.3133 39.4463C13.802 39.2949 13.366 39.0701 13.0052 38.7719C12.957 38.7621 12.9166 38.7387 12.884 38.7019C12.8494 38.658 12.8184 38.6132 12.791 38.5674C12.7616 38.5145 12.7351 38.4723 12.7115 38.4407C12.693 38.4001 12.6767 38.3817 12.6625 38.3855C12.6454 38.3217 12.6295 38.2197 12.6147 38.0794C12.605 37.9302 12.6035 37.7825 12.6099 37.6366C12.6234 37.4887 12.6452 37.3576 12.6753 37.2432C12.7106 37.1199 12.7637 37.0487 12.8345 37.0298C12.6351 37.0224 12.4434 37.0435 12.2592 37.0928C11.5792 37.275 11.0031 37.8166 10.5308 38.7175C10.1533 39.4336 9.85927 40.2488 9.64873 41.1631C9.53465 41.3607 9.34303 41.4956 9.07386 41.5677C8.73385 41.6588 8.36866 41.6276 7.97829 41.4741C7.55579 41.314 7.29994 41.0675 7.21073 40.7345C7.15759 40.5362 7.17534 40.3758 7.26401 40.2533L7.25734 40.016C7.25114 39.9645 7.27466 39.8823 7.32791 39.7693C7.37925 39.6493 7.43768 39.5273 7.50319 39.4035C7.57389 39.2707 7.64295 39.1459 7.71036 39.0291C7.78295 38.9034 7.8374 38.8091 7.8737 38.7462L7.99815 38.5306C8.07593 38.3959 8.10344 38.2861 8.08066 38.2011C8.06548 38.1444 8.03094 38.1005 7.97705 38.0694C7.92126 38.0312 7.86029 38.002 7.79413 37.9817C7.72798 37.9615 7.66182 37.9413 7.59566 37.921C7.53469 37.8918 7.48339 37.8562 7.44177 37.8142L7.03171 37.3889C6.95745 37.3101 6.90039 37.1963 6.86053 37.0475C6.84345 36.9838 6.82396 36.8827 6.80207 36.7443C6.78726 36.6041 6.77131 36.502 6.75423 36.4383C6.70108 36.24 6.73984 36.0588 6.87049 35.8947C7.00114 35.7306 7.16918 35.621 7.3746 35.566C7.43127 35.5508 7.53328 35.5349 7.68065 35.5182C7.83509 35.4996 7.99757 35.4826 8.16808 35.4673C8.3386 35.452 8.49753 35.4359 8.6449 35.4192C8.79934 35.4006 8.9049 35.3837 8.96157 35.3685C9.15282 35.3173 9.2647 35.2532 9.2972 35.1761ZM14.9285 28.907C14.877 28.9132 14.83 28.922 14.7875 28.9334C14.7502 28.9358 14.7174 28.9408 14.6891 28.9484C14.5616 28.9826 14.5035 29.0209 14.5149 29.0634C14.5415 29.1626 14.6398 29.1894 14.8098 29.1438C14.9231 29.1134 14.9627 29.0345 14.9285 28.907ZM13.5051 33.7525L14.4506 29.8436L14.3541 29.6531C14.269 29.6759 14.1825 29.7636 14.0943 29.9163C14.0114 30.06 13.961 30.1836 13.9431 30.2871L13.9213 30.4182L13.7904 30.5671C13.7258 30.6376 13.6699 30.7551 13.6229 30.9195C13.574 31.0769 13.5101 31.1927 13.4313 31.2669C13.3605 31.2859 13.309 31.349 13.2771 31.4563C13.2451 31.5636 13.2124 31.6824 13.179 31.8128C13.1437 31.9362 13.0994 32.0543 13.0462 32.1673C13 32.2783 12.9309 32.3462 12.8388 32.3709C12.835 32.3567 12.7928 32.3832 12.7121 32.4504C12.6385 32.5157 12.6216 32.6227 12.6615 32.7714L12.6842 32.8564C12.7355 33.0477 12.7085 33.1878 12.6033 33.2767L12.5786 33.3972C12.529 33.4105 12.4646 33.4392 12.3853 33.4832C12.3111 33.5182 12.2564 33.5405 12.221 33.55C12.1714 33.5633 12.1241 33.557 12.0792 33.531C12.0564 33.446 12.0344 33.4064 12.0132 33.4121C11.9919 33.4178 11.9738 33.4492 11.9587 33.5064C11.9508 33.5616 11.9475 33.6346 11.9491 33.7253C11.9506 33.816 11.9627 33.9039 11.9855 33.9889C12.0235 34.1305 12.0814 34.1909 12.1593 34.1701C12.2231 34.153 12.2694 34.1558 12.2982 34.1784C12.3342 34.1991 12.371 34.2234 12.4089 34.2512C12.4519 34.2701 12.502 34.287 12.5591 34.3021C12.6234 34.3152 12.7122 34.3066 12.8255 34.2763C13.2151 34.1719 13.4416 33.9973 13.5051 33.7525ZM13.5652 32.404C13.4518 32.4344 13.372 32.4482 13.3257 32.4454C13.2865 32.4407 13.265 32.4313 13.2612 32.4171C13.2536 32.3888 13.2779 32.3519 13.334 32.3065C13.3973 32.2592 13.444 32.2353 13.4743 32.2348C13.5045 32.2343 13.5348 32.2907 13.5652 32.404ZM30.3442 34.0349C30.2662 34.0558 30.2382 34.0785 30.2599 34.103C30.2888 34.1256 30.3372 34.1506 30.4053 34.1779C30.4785 34.1963 30.5588 34.2127 30.6462 34.2272C30.7407 34.2399 30.8111 34.2476 30.8574 34.2504C30.7864 34.1555 30.715 34.0873 30.6432 34.0459C30.5784 34.0025 30.4787 33.9988 30.3442 34.0349ZM31.4517 34.0456C31.395 34.0608 31.3421 34.0901 31.2931 34.1337C31.2492 34.1682 31.1588 34.2418 31.0219 34.3543C30.8944 34.3885 30.6478 34.5305 30.282 34.7804C29.9143 35.0231 29.4364 35.322 28.8482 35.677C28.7278 35.7093 28.6744 35.7084 28.6881 35.6744C28.7088 35.6384 28.7423 35.6219 28.7886 35.6247C28.8306 35.583 28.8327 35.5483 28.7949 35.5205C28.7589 35.4997 28.7334 35.461 28.7182 35.4044L27.8039 35.7746C27.7395 35.6476 27.6508 35.5575 27.5378 35.5043C27.432 35.4491 27.3086 35.4139 27.1678 35.3984C27.0271 35.383 26.874 35.3785 26.7087 35.3848C26.5433 35.3911 26.3752 35.3869 26.2041 35.372L26.0808 35.3367C25.75 35.2355 25.4733 35.1236 25.2507 35.0011C25.0351 34.8766 24.8979 34.7046 24.8391 34.485C24.7461 34.1379 24.65 33.9777 24.5508 34.0043C24.4871 34.0213 24.4217 34.1034 24.3548 34.2504L24.1697 34.6644C24.2608 35.0044 24.0775 35.3686 23.6197 35.757L23.5306 35.8492C23.4976 35.896 23.4858 35.9371 23.4953 35.9725C23.5029 36.0009 23.5112 36.0176 23.5201 36.0228L23.2399 36.337L23.1935 36.5886L22.9132 36.9029C22.8538 36.9643 22.8026 37.0426 22.7598 37.1376L22.6594 37.3581C22.5393 37.618 22.3375 37.786 22.0542 37.8619C21.5158 38.0061 20.9874 37.9465 20.4689 37.6831C19.9863 37.4404 19.6188 37.0606 19.3664 36.5436C19.3716 36.1095 19.3466 35.7897 19.2916 35.5843L19.2232 35.3293C19.201 35.2745 19.1841 35.2259 19.1728 35.1834C19.1614 35.1409 19.1519 35.1055 19.1443 35.0771C19.0987 34.9071 19.0877 34.781 19.1112 34.6988C19.0107 33.5869 18.8646 32.6733 18.6729 31.9579C18.6724 31.9276 18.6697 31.8752 18.6649 31.8006C18.6672 31.724 18.6685 31.644 18.6689 31.5603C18.6673 31.4696 18.6632 31.3834 18.6565 31.3017C18.6569 31.2181 18.6514 31.1551 18.64 31.1126C18.6191 31.0346 18.6065 30.9735 18.6022 30.9291C18.596 30.8776 18.5796 30.8023 18.5531 30.7031C18.5436 30.6677 18.544 30.641 18.5544 30.623L18.6151 30.4246C18.6268 30.3835 18.6261 30.3381 18.6128 30.2885C18.6047 30.23 18.5921 30.1688 18.575 30.105L18.5409 29.9775C18.5143 29.8784 18.4931 29.7853 18.4775 29.6984C18.4599 29.6045 18.4342 29.5088 18.4006 29.4116C18.4799 29.3675 18.493 29.2464 18.4398 29.048C18.4246 28.9914 18.4134 28.8501 18.406 28.6243C18.3987 28.3985 18.352 28.0542 18.2659 27.5914L18.2196 27.3761L18.2661 27.1245C18.3932 26.4375 18.7862 26.0057 19.445 25.8292C19.6504 25.7741 19.8601 25.7635 20.0742 25.7973C20.2934 25.822 20.507 25.8825 20.7149 25.9786C20.921 26.0676 21.1125 26.1871 21.2893 26.3372C21.4713 26.4782 21.6208 26.6393 21.7377 26.8206C21.8214 26.9348 21.8795 27.0521 21.9117 27.1725C21.9307 27.2434 21.9501 27.2875 21.97 27.305C21.9898 27.3224 22.0097 27.3399 22.0296 27.3573C22.0494 27.3748 22.0721 27.4029 22.0977 27.4416C22.1232 27.4803 22.1503 27.5527 22.1787 27.659C22.2053 27.7582 22.2201 27.8984 22.2232 28.0798C22.2314 28.2522 22.2488 28.388 22.2754 28.4872C22.2414 28.8987 22.286 29.6459 22.4091 30.729C22.5232 31.693 22.5364 32.4221 22.4486 32.9163C22.4308 33.0198 22.4448 33.1147 22.4908 33.2011C22.5419 33.2785 22.5779 33.3561 22.5987 33.4341C22.6006 33.4412 22.5901 33.5009 22.5671 33.6134C22.5441 33.7258 22.5298 33.8284 22.5242 33.9209C22.5285 33.9653 22.5519 33.9819 22.5944 33.9705C22.7078 33.9401 22.7863 33.8507 22.8301 33.7023L22.9042 33.5116C22.9212 33.4616 22.965 33.3701 23.0357 33.2373C23.1064 33.1044 23.1487 32.9223 23.1626 32.6908L23.1884 32.3195C23.1939 32.2269 23.2026 32.16 23.2143 32.1189C23.2261 32.0778 23.2426 32.0544 23.2638 32.0487C23.2903 32.034 23.3231 32.029 23.3623 32.0337C23.3996 32.0313 23.4431 32.0235 23.4927 32.0102C23.5564 31.9931 23.5908 31.9231 23.5959 31.8003C23.6009 31.6775 23.6022 31.5405 23.5996 31.3893C23.6023 31.2292 23.6148 31.0778 23.6373 30.9351C23.6598 30.7924 23.7169 30.6936 23.8085 30.6387L23.872 30.4509C23.9059 30.3507 23.9197 30.2179 23.9133 30.0526C23.9141 29.8854 23.8924 29.7621 23.8484 29.6828L23.8949 29.4312C23.9601 29.0797 23.9595 28.7799 23.8931 28.532C23.8172 28.2487 23.7916 27.9974 23.8164 27.7782C23.6882 26.818 23.7085 26.0723 23.8775 25.5412C24.0954 24.8526 24.5974 24.403 25.3837 24.1924C25.5041 24.1601 25.6496 24.1363 25.8201 24.121C25.9887 24.0986 26.1682 24.0884 26.3586 24.0906C26.5541 24.0837 26.7499 24.092 26.946 24.1154C27.1492 24.1369 27.3375 24.1737 27.5109 24.226C27.5534 24.2146 27.599 24.2289 27.6477 24.269C27.7016 24.3001 27.7538 24.3393 27.8044 24.3864C27.8621 24.4317 27.9082 24.4763 27.9427 24.5202C27.9825 24.5551 28.0094 24.5707 28.0236 24.5669L28.1289 24.96C28.1422 25.0096 28.1279 25.1121 28.0861 25.2676L28.032 25.7034C28.0306 25.7266 28.0146 25.7802 27.984 25.8643C27.9515 25.9414 27.9193 26.0335 27.8873 26.1408C27.8624 26.2461 27.841 26.3506 27.8232 26.454C27.8054 26.5575 27.805 26.6411 27.8221 26.7049L27.6976 26.9204C27.5835 27.118 27.5667 27.282 27.6472 27.4122L27.5694 27.547C27.5383 27.6009 27.5396 27.6764 27.5732 27.7737C27.6121 27.862 27.6438 27.9522 27.6685 28.0443C27.7065 28.1859 27.7047 28.2927 27.6632 28.3645L27.5997 28.5524L27.7335 29.0518C27.6367 29.1157 27.6149 29.2468 27.6681 29.4451C27.7022 29.5726 27.7614 29.6517 27.8455 29.6823C27.914 29.7398 27.9533 29.8014 27.9633 29.8671C27.9714 29.9256 27.9689 29.987 27.9557 30.0513C27.9497 30.1137 27.9365 30.1779 27.9163 30.2441C27.9031 30.3083 27.9051 30.3724 27.9222 30.4361C27.9102 30.6747 27.9687 31.0348 28.0978 31.5165C28.0978 31.5165 28.1071 31.5937 28.1257 31.7481C28.1514 31.9007 28.1783 32.0719 28.2064 32.2618C28.2326 32.4445 28.2559 32.6167 28.2765 32.7782C28.304 32.9379 28.3197 33.0248 28.3235 33.0389C28.4222 33.4073 28.569 33.516 28.7639 33.365L28.8666 33.2806C28.9105 33.2461 28.9558 33.1884 29.0024 33.1075C29.0491 33.0267 29.1019 32.9404 29.1608 32.8487L29.2358 32.7034C29.241 32.6944 29.2428 32.6446 29.2413 32.5539C29.2468 32.4613 29.2486 32.4114 29.2468 32.4043C29.2411 32.3831 29.2292 32.3673 29.2113 32.3569L29.0737 32.2685C29.0018 32.227 28.9673 32.1831 28.9701 32.1368C28.9729 32.0905 28.9988 32.0456 29.0479 32.0021C29.0969 31.9586 29.1585 31.9193 29.2327 31.8843C29.3139 31.8473 29.3899 31.8194 29.4607 31.8004L29.5323 31.7698C29.5393 31.7679 29.5098 31.7569 29.4436 31.7366C29.3846 31.7145 29.3087 31.7007 29.2161 31.6951C29.5471 30.3234 29.8467 29.0474 30.115 27.867C30.3885 26.6777 30.6272 25.585 30.831 24.589C30.7987 24.4686 30.8111 24.359 30.8681 24.2602C30.9304 24.1524 30.9607 24.0532 30.9592 23.9625L30.9525 23.7251C30.9525 23.7251 30.9721 23.6705 31.0111 23.5614C31.0483 23.4451 31.0933 23.3154 31.146 23.1722C31.1987 23.029 31.2534 22.8929 31.3099 22.7639C31.3735 22.6329 31.4273 22.5502 31.4712 22.5157L31.7161 22.3248C31.8478 22.2212 31.9951 22.1475 32.158 22.1039C32.6326 21.9767 33.1405 22.0874 33.6818 22.4358C34.1602 22.7479 34.4507 23.0953 34.5532 23.4778C34.5608 23.5061 34.5564 23.5604 34.5399 23.6408C34.5287 23.7121 34.5167 23.795 34.5041 23.8895C34.4914 23.984 34.4798 24.082 34.469 24.1836C34.4654 24.2833 34.4749 24.3756 34.4977 24.4606C34.5148 24.5244 34.525 24.6051 34.5284 24.7029C34.539 24.7988 34.5388 24.8975 34.5281 24.9991C34.5173 25.1007 34.4967 25.1935 34.4661 25.2777C34.4336 25.3547 34.3909 25.4079 34.338 25.4372L34.2411 26.1806C34.2318 26.2591 34.2044 26.3271 34.1592 26.3848L34.0155 26.5713C33.8901 26.7264 33.8435 26.8642 33.8757 26.9846C33.9023 27.0838 33.9598 27.1709 34.0482 27.2459C34.0237 27.2676 33.9862 27.3118 33.9357 27.3785C33.8905 27.4362 33.8471 27.501 33.8056 27.5728C33.7622 27.6376 33.7259 27.7004 33.6967 27.7614C33.6746 27.8205 33.6699 27.8597 33.6827 27.8791L33.6982 27.8521C33.7162 27.8625 33.7271 27.8747 33.7309 27.8889C33.7347 27.9031 33.7099 27.9666 33.6567 28.0796C33.6086 28.1836 33.5518 28.2975 33.4863 28.4213C33.4208 28.5452 33.3579 28.6645 33.2976 28.7794C33.2424 28.8853 33.2097 28.9472 33.1993 28.9652C33.1385 29.0498 33.1305 29.1051 33.1754 29.131C33.2255 29.1479 33.2891 29.1727 33.3661 29.2052C33.42 29.2363 33.4255 29.2993 33.3826 29.3943C33.3379 29.4823 33.2808 29.5811 33.2115 29.6907C33.1403 29.7933 33.0717 29.8914 33.0057 29.985C32.9396 30.0786 32.9104 30.1396 32.918 30.1679C32.9096 30.193 32.8844 30.2833 32.8425 30.4387C32.8078 30.5923 32.7725 30.7725 32.7369 30.9795C32.6993 31.1793 32.6882 31.3076 32.7033 31.3643L32.6113 31.4459L32.3587 32.288C32.4491 32.4839 32.3987 32.6075 32.2075 32.6587C32.1579 32.672 32.0991 32.665 32.031 32.6377C31.9681 32.6014 31.9168 32.5658 31.8771 32.5309C31.8296 32.6651 31.8124 32.757 31.8257 32.8066C31.8466 32.8845 31.942 32.9007 32.1121 32.8551C32.105 32.857 32.0828 32.9161 32.0457 33.0323C32.0085 33.1486 31.96 33.2793 31.9002 33.4244C31.8384 33.5624 31.7677 33.6952 31.6881 33.8228C31.6155 33.9486 31.5367 34.0228 31.4517 34.0456ZM31.1624 32.711C31.2035 32.7228 31.2491 32.7371 31.2992 32.7541C31.3545 32.762 31.4142 32.7726 31.4785 32.7857C31.4435 32.7116 31.4113 32.6481 31.3819 32.5952C31.3577 32.5334 31.3457 32.5025 31.3457 32.5025C31.2607 32.5252 31.1996 32.5947 31.1624 32.711ZM34.1284 23.7624C34.1332 23.837 34.1121 23.9566 34.0651 24.121C34.0232 24.2765 34.0146 24.4003 34.0393 24.4924C34.0488 24.5278 34.0807 24.5762 34.1351 24.6375C34.1895 24.6988 34.2415 24.7229 34.2911 24.7096C34.3407 24.6963 34.3503 24.4773 34.3201 24.0527C34.3118 23.8803 34.2873 23.7464 34.2466 23.651C34.2352 23.6085 34.2189 23.5901 34.1976 23.5958C34.148 23.6091 34.0967 23.7292 34.0436 23.956L34.1284 23.7624ZM32.1973 31.2607C32.1745 31.1757 32.1393 31.1434 32.0916 31.1638C32.0439 31.1841 31.9722 31.2565 31.8765 31.3809C31.8925 31.3841 31.9076 31.3839 31.9218 31.3801C31.9431 31.3744 31.9653 31.3722 31.9884 31.3736C31.9167 31.446 31.8908 31.4909 31.9106 31.5084C31.9286 31.5187 31.9624 31.5173 32.0119 31.504C32.0596 31.4836 32.1045 31.4526 32.1465 31.411C32.1936 31.3604 32.2106 31.3103 32.1973 31.2607ZM32.3469 30.1615C32.3559 30.1667 32.3358 30.1911 32.2868 30.2346C32.2429 30.2691 32.2063 30.3169 32.1771 30.3779C32.189 30.4506 32.2227 30.5479 32.2781 30.6697C32.3406 30.7896 32.3718 30.8495 32.3718 30.8495C32.3789 30.8476 32.3983 30.8349 32.4299 30.8112C32.4667 30.7786 32.5025 30.7424 32.5375 30.7027C32.5794 30.661 32.6125 30.6142 32.6365 30.5623C32.6605 30.5103 32.6668 30.463 32.6554 30.4205C32.6384 30.3568 32.5955 30.2961 32.527 30.2386C32.4655 30.1791 32.4055 30.1534 32.3469 30.1615ZM32.5497 29.6859C32.5426 29.6877 32.5087 29.731 32.4478 29.8156C32.3203 29.8498 32.2927 29.9027 32.3651 29.9745C32.4427 30.0372 32.5381 30.0534 32.6514 30.023C32.7081 30.0078 32.7558 29.9875 32.7945 29.9619C32.8384 29.9274 32.8556 29.8924 32.8461 29.857C32.8309 29.8003 32.7919 29.7538 32.729 29.7175C32.6732 29.6793 32.6134 29.6688 32.5497 29.6859ZM36.4931 27.889L39.2708 22.0201C39.75 21.0034 40.2162 20.2218 40.6695 19.6752C40.7568 19.5759 40.8599 19.4647 40.9788 19.3418C41.1028 19.2098 41.2232 19.1207 41.3398 19.0742L41.7081 18.9186C41.7822 18.8836 41.8533 18.8797 41.9214 18.907C41.9875 18.9272 42.0575 18.9616 42.1312 19.0102C42.2102 19.0498 42.2955 19.0991 42.3872 19.158C42.477 19.2098 42.5881 19.256 42.7204 19.2965L42.8437 19.3318C43.0814 19.3971 43.3314 19.4516 43.5936 19.4952C43.8629 19.537 44.1025 19.6094 44.3123 19.7126L44.4359 19.9187C44.5055 20.0367 44.5914 20.1731 44.6936 20.3279C44.7939 20.4757 44.8611 20.6133 44.8953 20.7408C44.9883 21.0879 44.9876 21.4677 44.8931 21.8802L44.3158 24.358C44.1865 24.9241 44.083 25.4301 44.0051 25.8762C43.9253 26.3151 43.8731 26.7011 43.8485 27.0342C43.8233 27.337 43.8326 27.5699 43.8762 27.7328C43.9047 27.839 43.9549 27.9129 44.0267 27.9544C44.0105 27.8372 44.0237 27.773 44.0662 27.7616C44.1068 27.7431 44.155 27.753 44.2108 27.7912C44.2736 27.8275 44.3332 27.8798 44.3895 27.9483C44.4439 28.0096 44.4759 28.058 44.4853 28.0934C44.5062 28.1713 44.5358 28.2393 44.5742 28.2974C44.6125 28.3554 44.6173 28.4301 44.5886 28.5213L44.5032 28.8402C44.5019 28.8634 44.4795 28.9073 44.4361 28.9721C44.3979 29.0279 44.3883 29.0912 44.4073 29.162L44.3046 29.2465L44.41 29.6396L44.3179 29.7212L44.1108 30.7333C44.1043 30.7654 44.1083 30.7947 44.123 30.8211C44.1358 30.8405 44.1292 30.8726 44.1033 30.9175L44.0006 31.002C43.9603 31.2481 43.8531 31.4856 43.6791 31.7145C43.5121 31.9414 43.3118 32.0862 43.078 32.1488C42.9647 32.1792 42.8598 32.1845 42.7634 32.1648C42.3975 32.3008 41.9794 32.299 41.5092 32.1592C40.9979 32.0077 40.5619 31.7829 40.2011 31.4848C40.1529 31.475 40.1125 31.4516 40.0799 31.4148C40.0453 31.3709 40.0143 31.3261 39.9869 31.2803C39.9575 31.2274 39.931 31.1852 39.9074 31.1536C39.8889 31.113 39.8726 31.0945 39.8584 31.0983C39.8413 31.0346 39.8254 30.9326 39.8106 30.7923C39.801 30.643 39.7994 30.4954 39.8058 30.3494C39.8193 30.2016 39.8411 30.0705 39.8712 29.9561C39.9065 29.8328 39.9596 29.7616 40.0304 29.7426C39.831 29.7353 39.6393 29.7563 39.4551 29.8057C38.7751 29.9879 38.199 30.5295 37.7267 31.4304C37.3492 32.1465 37.0552 32.9617 36.8446 33.876C36.7306 34.0736 36.5389 34.2085 36.2698 34.2806C35.9298 34.3717 35.5646 34.3405 35.1742 34.187C34.7517 34.0268 34.4958 33.7803 34.4066 33.4474C34.3535 33.2491 34.3712 33.0887 34.4599 32.9662L34.4532 32.7289C34.447 32.6774 34.4706 32.5952 34.5238 32.4822C34.5752 32.3622 34.6336 32.2402 34.6991 32.1164C34.7698 31.9835 34.8389 31.8587 34.9063 31.742C34.9789 31.6162 35.0333 31.5219 35.0696 31.4591L35.1941 31.2435C35.2718 31.1088 35.2993 30.9989 35.2766 30.9139C35.2614 30.8573 35.2268 30.8134 35.173 30.7823C35.1172 30.7441 35.0562 30.7149 34.99 30.6946C34.9239 30.6744 34.8577 30.6542 34.7916 30.6339C34.7306 30.6047 34.6793 30.5691 34.6377 30.5271L34.2276 30.1017C34.1534 30.0229 34.0963 29.9092 34.0564 29.7604C34.0394 29.6967 34.0199 29.5956 33.998 29.4572C33.9832 29.3169 33.9672 29.2149 33.9501 29.1512C33.897 28.9528 33.9357 28.7716 34.0664 28.6076C34.197 28.4435 34.3651 28.3339 34.5705 28.2789C34.6272 28.2637 34.7292 28.2478 34.8766 28.231C35.031 28.2124 35.1935 28.1955 35.364 28.1802C35.5345 28.1648 35.6934 28.1488 35.8408 28.1321C35.9952 28.1135 36.1008 28.0966 36.1575 28.0814C36.3487 28.0302 36.4606 27.966 36.4931 27.889ZM42.1244 21.6199C42.0729 21.6261 42.026 21.6349 41.9835 21.6463C41.9461 21.6487 41.9133 21.6537 41.885 21.6613C41.7575 21.6954 41.6994 21.7338 41.7108 21.7763C41.7374 21.8754 41.8357 21.9022 42.0057 21.8567C42.119 21.8263 42.1586 21.7474 42.1244 21.6199ZM40.701 26.4654L41.6466 22.5565L41.55 22.366C41.465 22.3888 41.3784 22.4765 41.2902 22.6292C41.2073 22.7729 41.1569 22.8965 41.139 23L41.1172 23.1311L40.9863 23.28C40.9217 23.3505 40.8658 23.4679 40.8188 23.6324C40.7699 23.7897 40.706 23.9056 40.6272 23.9798C40.5564 23.9988 40.505 24.0619 40.473 24.1692C40.441 24.2765 40.4083 24.3953 40.3749 24.5257C40.3396 24.649 40.2954 24.7672 40.2421 24.8802C40.1959 24.9912 40.1268 25.0591 40.0347 25.0838C40.0309 25.0696 39.9887 25.0961 39.908 25.1633C39.8344 25.2286 39.8175 25.3356 39.8574 25.4843L39.8801 25.5693C39.9314 25.7606 39.9044 25.9007 39.7992 25.9896L39.7745 26.1101C39.7249 26.1234 39.6605 26.152 39.5812 26.1961C39.507 26.2311 39.4523 26.2534 39.4169 26.2629C39.3673 26.2762 39.32 26.2698 39.2751 26.2439C39.2523 26.1589 39.2303 26.1192 39.2091 26.1249C39.1878 26.1306 39.1697 26.1621 39.1546 26.2192C39.1467 26.2745 39.1434 26.3475 39.145 26.4382C39.1465 26.5289 39.1587 26.6168 39.1814 26.7018C39.2194 26.8434 39.2773 26.9038 39.3552 26.8829C39.419 26.8659 39.4653 26.8686 39.4941 26.8913C39.5301 26.912 39.5669 26.9363 39.6048 26.9641C39.6478 26.983 39.6979 26.9999 39.755 27.015C39.8193 27.0281 39.9081 27.0195 40.0214 26.9891C40.411 26.8847 40.6376 26.7102 40.701 26.4654ZM40.7611 25.1169C40.6477 25.1473 40.5679 25.1611 40.5216 25.1583C40.4824 25.1536 40.4609 25.1442 40.4571 25.13C40.4495 25.1017 40.4738 25.0648 40.53 25.0194C40.5932 24.9721 40.6399 24.9482 40.6702 24.9477C40.7004 24.9472 40.7307 25.0036 40.7611 25.1169ZM50.1073 19.6745C50.1982 19.7868 50.2884 19.9676 50.378 20.2169C50.4097 20.3071 50.4472 20.4185 50.4903 20.5512C50.5386 20.6749 50.5896 20.7941 50.6431 20.9089C50.6966 21.0236 50.7534 21.1223 50.8135 21.2048C50.8788 21.2785 50.9433 21.3067 51.007 21.2896C51.1629 21.2479 51.2391 21.1781 51.2357 21.0803C51.2303 20.9755 51.2406 20.9006 51.2666 20.8557L51.3586 20.7741C51.3831 20.7523 51.4062 20.6968 51.4278 20.6075C51.4546 20.5092 51.4779 20.4119 51.4976 20.3155C51.5155 20.212 51.5309 20.1281 51.5441 20.0639C51.5553 19.9925 51.5648 19.971 51.5724 19.9994L51.6473 19.854L51.7215 19.6633L51.7433 19.5322C51.7493 19.4699 51.7944 19.3971 51.8783 19.3138C51.9623 19.2306 51.9872 19.1252 51.9531 18.9977L52.6026 17.6393L52.6351 17.5053C52.6698 17.3518 52.7438 17.2029 52.857 17.0587C52.9702 16.9145 53.108 16.7485 53.2702 16.5608L53.2949 16.4403C53.2996 16.4011 53.33 16.3587 53.3861 16.3133C53.4423 16.2679 53.5065 16.2241 53.5787 16.182C53.649 16.1328 53.7177 16.0916 53.7848 16.0585C53.8518 16.0253 53.8959 16.0059 53.9172 16.0002C54.0589 15.9622 54.1987 15.9741 54.3367 16.0358C54.4728 16.0905 54.6101 16.1638 54.7487 16.2557C54.8853 16.3406 55.0158 16.4309 55.1401 16.5266C55.2715 16.6205 55.3999 16.6886 55.5251 16.7309C55.6333 17.1347 55.6906 17.4192 55.6969 17.5846C55.789 17.5599 55.8261 17.5993 55.8083 17.7028C55.7956 17.7973 55.7559 17.918 55.689 18.065C55.6273 18.203 55.5559 18.3474 55.4748 18.4982C55.3918 18.6419 55.3367 18.7478 55.3094 18.8158C55.1337 19.2653 54.9787 19.6219 54.8444 19.8856C54.7153 20.1404 54.5955 20.3167 54.4851 20.4146L54.3824 20.4991L54.166 20.7962C54.1608 20.8052 54.1471 20.8393 54.125 20.8983C54.1029 20.9574 54.0791 21.0245 54.0537 21.0996C54.0334 21.1658 54.0087 21.2294 53.9795 21.2903C53.9555 21.3423 53.9328 21.3712 53.9116 21.3769C53.862 21.3902 53.8173 21.3224 53.7774 21.1737C53.7433 21.0462 53.6978 20.99 53.6412 21.0052C53.6058 21.0147 53.5744 21.0535 53.5471 21.1215C53.5198 21.1896 53.5127 21.2484 53.526 21.298C53.5697 21.4609 53.6482 21.5272 53.7615 21.4968C53.7729 21.5393 53.7577 21.6383 53.7158 21.7937C53.6721 21.9421 53.617 22.1049 53.5506 22.2821C53.4894 22.4504 53.4208 22.6054 53.3449 22.7472C53.2743 22.88 53.2106 22.954 53.1539 22.9692C53.1327 22.9749 53.0816 22.9544 53.0008 22.9078C52.9199 22.8611 52.8512 22.8454 52.7945 22.8605C52.7449 22.8738 52.6959 22.9173 52.6473 22.9911C52.5987 23.0648 52.5426 23.1103 52.4788 23.1273C52.4151 23.1444 52.3416 23.111 52.2583 23.027C52.1441 23.1107 52.1136 23.2518 52.1667 23.4501C52.2085 23.6059 52.2825 23.6696 52.3887 23.6412C52.41 23.6355 52.4541 23.616 52.5212 23.5829C52.5934 23.5408 52.6343 23.5374 52.6437 23.5728C52.6456 23.5799 52.6143 23.6187 52.5496 23.6892C52.4902 23.7506 52.4277 23.8433 52.3622 23.9671C52.2948 24.0839 52.243 24.2306 52.2068 24.4073C52.1759 24.5751 52.1907 24.7723 52.2515 24.999C52.2894 25.1406 52.3155 25.2096 52.3297 25.2058C52.3349 25.1968 52.3414 25.1647 52.3494 25.1094L52.357 24.9251C52.3572 24.7277 52.3847 24.6178 52.4395 24.5955L52.4719 24.4616C52.5994 24.4274 52.6679 24.4281 52.6774 24.4635C52.6907 24.5131 52.6499 24.5733 52.555 24.6443C52.4673 24.7134 52.4386 24.8046 52.4689 24.9179C52.4765 24.9462 52.4832 24.971 52.4888 24.9923C52.5016 25.0116 52.5109 25.0319 52.5166 25.0532C52.5279 25.0957 52.5056 25.1397 52.4494 25.1851C52.3913 25.2234 52.2525 25.272 52.0329 25.3308C51.9408 25.3555 51.9119 25.4316 51.9461 25.5591C51.9669 25.637 52.0135 25.7118 52.0859 25.7835C52.1635 25.8463 52.2412 25.8672 52.3191 25.8463C52.3687 25.833 52.4173 25.8162 52.465 25.7958C52.5198 25.7736 52.5802 25.7726 52.6464 25.7928L52.6217 25.9133C52.5381 25.9129 52.4645 25.9213 52.4007 25.9383C52.2165 25.9877 52.1002 26.1062 52.0518 26.2938C52.0015 26.4743 52.0116 26.6538 52.0822 26.8322C52.153 26.8133 52.1993 26.816 52.2211 26.8406C52.2499 26.8632 52.263 26.8977 52.2602 26.944C52.2645 26.9884 52.2636 27.0418 52.2575 27.1041C52.2567 27.1575 52.2638 27.2125 52.279 27.2692C52.3321 27.4675 52.3238 27.6064 52.254 27.6859L52.1231 27.8348C52.1127 27.8528 52.1283 27.8828 52.17 27.9247C52.2097 27.9597 52.2395 27.9858 52.2593 28.0033C52.3331 28.0519 52.3357 28.1043 52.2673 28.1606L52.1647 28.245L51.9538 29.6681L51.8151 29.8305C51.7854 29.8613 51.7554 29.8769 51.7252 29.8774C51.6789 29.8746 51.6154 29.9068 51.5347 29.974C51.4611 30.0393 51.3707 30.1128 51.2636 30.1947C51.1654 30.2817 51.0547 30.3645 50.9316 30.4431C50.8103 30.5287 50.6788 30.5905 50.5371 30.6285C50.4592 30.6494 50.2822 30.5981 50.0062 30.4747C49.9972 30.4695 49.9629 30.4407 49.9033 30.3883C49.8457 30.3431 49.7745 30.29 49.6899 30.2292C49.6142 30.1735 49.536 30.1223 49.4552 30.0757C49.3762 30.0361 49.3084 30.0239 49.2518 30.0391C49.0463 30.0941 48.8505 30.0859 48.6643 30.0143C48.4781 29.9427 48.3575 29.8042 48.3024 29.5988C48.2778 29.5067 48.2642 29.3851 48.2616 29.2339L48.2903 27.1308C48.2938 26.9173 48.3009 26.7028 48.3115 26.4874C48.3292 26.2701 48.3388 26.0511 48.3404 25.8305C48.3524 25.592 48.3486 25.3652 48.329 25.1503C48.3146 24.9264 48.2888 24.717 48.2517 24.5219C47.9359 24.2497 47.665 23.9047 47.4392 23.4869L47.3081 23.4651L47.2198 23.1358C47.2084 23.0933 47.1852 23.0349 47.1502 22.9608C47.1151 22.8867 47.0765 22.8135 47.0344 22.7413C46.9923 22.6691 46.944 22.6023 46.8896 22.541C46.8352 22.4796 46.783 22.4405 46.7329 22.4235L46.6018 22.4017L46.4215 22.1539C46.3467 22.0449 46.2608 21.9085 46.1638 21.7447C46.0667 21.5809 45.948 21.3925 45.8074 21.1797C45.8036 21.1655 45.7698 21.11 45.7059 21.0133C45.642 20.9165 45.5753 20.8091 45.5057 20.6911C45.4361 20.5731 45.372 20.4612 45.3132 20.3555C45.2545 20.2497 45.2249 20.1817 45.2244 20.1515C45.239 19.3277 45.6785 18.6443 46.5428 18.1015C46.7981 17.9495 47.0569 17.8384 47.319 17.7682C48.3106 17.5025 49.0899 17.7758 49.6568 18.5881C49.7552 18.7287 49.8407 18.8918 49.9132 19.0774C49.9909 19.254 50.0556 19.453 50.1073 19.6745ZM52.9037 17.6156C52.9675 17.5985 53.0034 17.5623 53.0113 17.507C53.0226 17.4357 53.0305 17.3804 53.0352 17.3412C53.0451 17.293 53.0146 17.2784 52.9438 17.2974C52.8587 17.3201 52.8343 17.3988 52.8703 17.5334C52.8798 17.5688 52.891 17.5962 52.9037 17.6156ZM52.8193 24.0155C52.7839 24.025 52.7652 24.0262 52.7633 24.0191C52.7633 24.0191 52.7685 24.0101 52.7789 23.9921C52.7892 23.9742 52.8027 23.982 52.8193 24.0155Z" fill="white"/>
</g>
<defs>
<filter id="filter0_d_2_52458" x="0.0947266" y="0.466064" width="58.6553" height="43.6709" filterUnits="userSpaceOnUse" color-interpolation-filters="sRGB">
<feFlood flood-opacity="0" result="BackgroundImageFix"/>
<feColorMatrix in="SourceAlpha" type="matrix" values="0 0 0 0 0 0 0 0 0 0 0 0 0 0 0 0 0 0 127 0" result="hardAlpha"/>
<feOffset dy="2"/>
<feComposite in2="hardAlpha" operator="out"/>
<feColorMatrix type="matrix" values="0 0 0 0 0.533333 0 0 0 0 0.278431 0 0 0 0 1 0 0 0 1 0"/>
<feBlend mode="normal" in2="BackgroundImageFix" result="effect1_dropShadow_2_52458"/>
<feBlend mode="normal" in="SourceGraphic" in2="effect1_dropShadow_2_52458" result="shape"/>
</filter>
</defs>
</svg>
