<svg width="57" height="43" viewBox="0 0 57 43" fill="none" xmlns="http://www.w3.org/2000/svg">
<g filter="url(#filter0_d_2_52462)">
<path d="M8.6529 12.4239L8.7833 12.3889C9.19478 12.2787 9.55613 12.2595 9.86734 12.3314C10.269 12.4163 10.5188 12.6414 10.6166 13.0065L10.6585 13.163C10.7533 13.5165 10.712 13.9189 10.5347 14.3701C10.5097 14.439 10.4478 14.5673 10.3491 14.7553C10.2546 14.9359 10.1241 15.179 9.9575 15.4845C9.91383 15.4838 9.88216 15.5047 9.8625 15.5472C9.84284 15.5898 9.82607 15.6315 9.81221 15.6725L9.14179 16.4392C9.11323 16.4717 9.06671 16.5183 9.00224 16.579C8.93621 16.634 8.86884 16.6955 8.80013 16.7636C8.72986 16.8259 8.66906 16.8888 8.61774 16.9523C8.57065 17.0084 8.55177 17.0538 8.56108 17.0886C8.57351 17.1349 8.63266 17.147 8.73853 17.1249L9.62479 16.9899L10.4678 17.0063C10.4678 17.0063 10.5082 17.0296 10.589 17.0763C10.6741 17.1156 10.7398 17.1291 10.7862 17.1166L11.0114 17.401C11.0753 17.4771 11.0982 17.5393 11.0801 17.5876C11.0662 17.6286 11.0694 17.6868 11.0896 17.7621C11.0958 17.7853 11.102 17.8085 11.1082 17.8317C11.1187 17.8475 11.1307 17.8691 11.1442 17.8965L11.0626 17.9743C11.1169 18.1772 11.1234 18.3866 11.0819 18.6027L11.0439 18.8086L10.9919 18.9623C10.9919 18.9623 10.9836 18.9894 10.967 19.0435C10.9547 19.0903 10.9418 19.1465 10.9284 19.2122C10.9149 19.278 10.9044 19.3429 10.8967 19.4071C10.8875 19.4654 10.886 19.5062 10.8922 19.5294L10.3897 20.5399C10.3785 20.5677 10.3499 20.6002 10.304 20.6374C10.2565 20.6688 10.2113 20.7088 10.1685 20.7576C10.1241 20.8005 10.0886 20.8535 10.062 20.9166C10.0338 20.9738 10.0299 21.0401 10.05 21.1154L10.099 21.298L10.026 21.3734C10.0327 21.5145 9.97236 21.6021 9.84486 21.6363C9.81008 21.6456 9.78302 21.6373 9.76366 21.6114C9.74276 21.5798 9.72107 21.5452 9.69861 21.5077C9.68194 21.4687 9.66103 21.4371 9.63588 21.4127C9.60918 21.3826 9.57844 21.3722 9.54367 21.3815C9.53208 21.3847 9.51836 21.3914 9.50253 21.4019C9.49094 21.405 9.47433 21.4125 9.4527 21.4246C9.5139 21.8616 9.28081 22.1508 8.75341 22.2921C8.69049 22.3587 8.60962 22.4393 8.51079 22.5341C8.41775 22.6274 8.30599 22.7319 8.17549 22.8476C8.07935 22.9293 7.9859 22.9978 7.89514 23.0532C7.80438 23.1086 7.74658 23.0899 7.72173 22.9971C7.72173 22.9971 7.71071 22.9908 7.68867 22.9781C7.67242 22.9638 7.66196 22.9479 7.6573 22.9306C7.26756 23.1219 7.11373 23.2781 7.19581 23.399C7.22562 23.4407 7.23416 23.4725 7.22143 23.4946C7.21605 23.5209 7.19753 23.5445 7.16586 23.5654L7.07722 23.6171C7.0498 23.6306 7.03417 23.6535 7.03035 23.6855L6.4392 23.8439C6.3059 23.8797 6.17395 23.9088 6.04334 23.9314C5.91429 23.9597 5.78445 23.9852 5.65385 24.0078L5.18782 24.0768L4.9385 24.0504C4.82331 24.0378 4.71624 24.0323 4.6173 24.034C4.51836 24.0356 4.43044 24.0437 4.35355 24.058L3.79422 24.1613L3.63183 24.1117C3.53092 24.0828 3.38888 24.0743 3.20569 24.0861C3.02675 24.0906 2.88605 24.0755 2.78359 24.0408C2.73317 23.899 2.68742 23.7746 2.64632 23.6676C2.61102 23.559 2.58328 23.4671 2.56309 23.3917C2.26493 22.279 2.28468 20.8575 2.62233 19.1271C2.63578 19.0614 2.67959 18.854 2.75377 18.5049C2.83374 18.1542 2.94485 17.6648 3.0871 17.0366C3.18477 16.6129 3.26489 16.228 3.32747 15.882C3.38851 15.5302 3.43412 15.2136 3.46432 14.9322C3.49762 14.6624 3.6235 14.402 3.84195 14.1509L3.95542 14.018C4.01834 13.9514 4.09037 13.9073 4.17151 13.8855C4.22946 13.87 4.29999 13.8666 4.3831 13.8754C4.46621 13.8842 4.54719 13.8967 4.62606 13.9128C4.70492 13.929 4.77799 13.9467 4.84526 13.9659C4.91098 13.9793 4.95331 13.9866 4.97225 13.9878L5.23555 14.0663L5.30464 14.1503C5.54384 14.4403 5.78225 14.5534 6.01987 14.4897C6.14157 14.4571 6.26131 14.394 6.37908 14.3003C6.50264 14.2051 6.6202 14.099 6.73176 13.9822C6.84911 13.8638 6.95989 13.744 7.0641 13.6229C7.16676 13.496 7.2617 13.3867 7.34894 13.295C7.77199 12.8338 8.20664 12.5434 8.6529 12.4239ZM6.47884 17.2459C6.5904 17.129 6.70387 16.9961 6.81925 16.8472C6.93308 16.6924 7.03956 16.5335 7.1387 16.3702C7.24363 16.2055 7.33619 16.0409 7.41638 15.8765C7.50237 15.7106 7.56539 15.5633 7.60543 15.4346L7.65509 15.2722C7.64661 15.2869 7.65235 15.2387 7.67231 15.1278C7.69652 15.0095 7.71974 14.8759 7.74198 14.7271C7.76267 14.5725 7.78045 14.4186 7.79534 14.2656C7.81023 14.1125 7.80914 14.0041 7.79206 13.9403C7.77497 13.8766 7.73456 13.8533 7.67081 13.8703C7.64763 13.8766 7.62098 13.893 7.59086 13.9197C7.0094 14.7402 6.61712 15.5596 6.41403 16.3781C6.34751 16.663 6.33676 16.8895 6.3818 17.0576C6.40199 17.1329 6.43433 17.1957 6.47884 17.2459ZM5.67138 20.2481C5.74467 20.4521 5.70635 20.7264 5.55641 21.0709L5.39856 21.4207C5.34807 21.5336 5.33369 21.6307 5.35543 21.7118C5.36785 21.7582 5.40579 21.807 5.46924 21.8583L5.92129 21.7372C6.00243 21.7155 6.11735 21.6691 6.26607 21.5982C6.42058 21.5258 6.5413 21.4779 6.62823 21.4546L6.69499 21.5299C6.61386 21.5516 6.50317 21.5906 6.36294 21.6468C6.22696 21.6957 6.09252 21.7503 5.95964 21.8108C5.82676 21.8712 5.71282 21.9328 5.61781 21.9956C5.52281 22.0583 5.48074 22.1099 5.49161 22.1505C5.50404 22.1969 5.5516 22.2121 5.63429 22.1961C5.71542 22.1744 5.81105 22.1488 5.92117 22.1193C5.93855 22.1146 5.96619 22.1134 6.00406 22.1157C6.04039 22.1122 6.06725 22.1081 6.08463 22.1034C6.11361 22.0956 6.13312 22.0873 6.14316 22.0784C6.15164 22.0637 6.17327 22.0517 6.20805 22.0424C6.2718 22.0253 6.35025 22.0167 6.44339 22.0166L6.49152 22.0223C7.08956 21.4956 7.46195 21.0076 7.60866 20.5583C7.63298 20.5332 7.64395 20.493 7.64156 20.4377C7.63918 20.3824 7.65827 20.3494 7.69884 20.3385L7.82778 19.5678C7.84237 19.4832 7.84034 19.4061 7.82171 19.3365C7.78754 19.209 7.69796 19.1181 7.55296 19.0638C7.40796 19.0095 7.24154 18.9795 7.05369 18.974C6.8643 18.9626 6.66797 18.9717 6.46471 19.0013C6.26569 19.0236 6.09374 19.0541 5.94885 19.093C5.956 19.2588 5.92435 19.4536 5.85389 19.6775C5.82347 19.7726 5.79305 19.8677 5.76263 19.9628C5.73221 20.0579 5.7018 20.153 5.67138 20.2481ZM4.8968 21.1825C4.9204 21.201 4.93417 21.2408 4.93811 21.3018C4.94007 21.3324 4.94204 21.3629 4.94401 21.3934C4.94598 21.424 4.94505 21.4553 4.94123 21.4873L4.92929 21.6862C4.92008 21.7446 4.92325 21.8028 4.93877 21.8607C4.96673 21.965 5.03633 21.993 5.14758 21.9445C5.11342 21.817 5.11636 21.6889 5.1564 21.5601C5.19644 21.4314 5.19627 21.2917 5.1559 21.141C5.12639 21.0309 5.08846 20.982 5.04209 20.9944C4.98993 21.0084 4.9415 21.0711 4.8968 21.1825ZM13.2233 17.2463L15.4959 12.4445C15.888 11.6126 16.2695 10.9731 16.6404 10.5259C16.7118 10.4446 16.7961 10.3537 16.8934 10.2531C16.9949 10.1452 17.0934 10.0722 17.1888 10.0342L17.4901 9.90687C17.5507 9.8782 17.6089 9.87503 17.6646 9.89738C17.7187 9.91394 17.7759 9.94208 17.8363 9.98182C17.9009 10.0142 17.9707 10.0545 18.0457 10.1027C18.1192 10.1452 18.2101 10.1829 18.3183 10.216L18.4192 10.2449C18.6137 10.2984 18.8182 10.343 19.0328 10.3787C19.2531 10.4128 19.4491 10.4721 19.6208 10.5565L19.7219 10.7251C19.7788 10.8217 19.8491 10.9333 19.9328 11.0599C20.0148 11.1808 20.0699 11.2934 20.0978 11.3977C20.1739 11.6817 20.1733 11.9925 20.096 12.33L19.6237 14.3573C19.5179 14.8205 19.4332 15.2345 19.3695 15.5994C19.3042 15.9586 19.2615 16.2744 19.2413 16.5469C19.2207 16.7946 19.2283 16.9852 19.264 17.1185C19.2873 17.2054 19.3284 17.2658 19.3872 17.2998C19.3739 17.2039 19.3847 17.1514 19.4194 17.1421C19.4527 17.1269 19.4921 17.135 19.5377 17.1663C19.5892 17.196 19.6379 17.2388 19.684 17.2948C19.7285 17.345 19.7546 17.3846 19.7624 17.4135C19.7795 17.4773 19.8037 17.5329 19.8351 17.5804C19.8664 17.6279 19.8704 17.689 19.8469 17.7636L19.777 18.0246C19.7759 18.0435 19.7576 18.0795 19.7221 18.1325C19.6908 18.1781 19.683 18.2299 19.6985 18.2879L19.6145 18.357L19.7007 18.6786L19.6254 18.7454L19.456 19.5734C19.4506 19.5997 19.4539 19.6237 19.4659 19.6453C19.4764 19.6612 19.471 19.6874 19.4498 19.7242L19.3658 19.7933C19.3328 19.9947 19.2451 20.189 19.1027 20.3762C18.9661 20.5619 18.8022 20.6804 18.6109 20.7316C18.5182 20.7565 18.4324 20.7608 18.3535 20.7447C18.0541 20.856 17.7121 20.8544 17.3274 20.7401C16.9091 20.6162 16.5523 20.4322 16.2571 20.1883C16.2177 20.1802 16.1846 20.1612 16.1579 20.131C16.1297 20.0951 16.1043 20.0584 16.0818 20.021C16.0578 19.9777 16.0361 19.9432 16.0168 19.9173C16.0017 19.8841 15.9883 19.869 15.9767 19.8721C15.9627 19.82 15.9497 19.7365 15.9376 19.6217C15.9297 19.4996 15.9284 19.3788 15.9337 19.2594C15.9447 19.1384 15.9626 19.0311 15.9872 18.9376C16.0161 18.8367 16.0595 18.7784 16.1174 18.7629C15.9543 18.7569 15.7974 18.7741 15.6467 18.8145C15.0904 18.9636 14.619 19.4067 14.2326 20.1438C13.9237 20.7297 13.6832 21.3967 13.5109 22.1448C13.4176 22.3064 13.2608 22.4168 13.0405 22.4758C12.7624 22.5503 12.4636 22.5248 12.1442 22.3992C11.7985 22.2682 11.5892 22.0665 11.5162 21.7941C11.4727 21.6318 11.4872 21.5006 11.5598 21.4004L11.5543 21.2062C11.5492 21.1641 11.5685 21.0968 11.612 21.0044C11.6541 20.9061 11.7019 20.8064 11.7555 20.705C11.8133 20.5964 11.8698 20.4943 11.925 20.3987C11.9844 20.2959 12.0289 20.2187 12.0586 20.1673L12.1604 19.9909C12.2241 19.8807 12.2466 19.7908 12.2279 19.7212C12.2155 19.6749 12.1873 19.639 12.1432 19.6135C12.0975 19.5823 12.0476 19.5583 11.9935 19.5418C11.9394 19.5252 11.8852 19.5087 11.8311 19.4921C11.7812 19.4682 11.7393 19.4391 11.7052 19.4047L11.3697 19.0567C11.3089 18.9922 11.2623 18.8992 11.2296 18.7774C11.2157 18.7253 11.1997 18.6426 11.1818 18.5294C11.1697 18.4146 11.1566 18.3311 11.1427 18.279C11.0992 18.1167 11.1309 17.9684 11.2378 17.8342C11.3447 17.7 11.4822 17.6103 11.6502 17.5653C11.6966 17.5529 11.7801 17.5398 11.9007 17.5261C12.027 17.5109 12.16 17.497 12.2995 17.4845C12.439 17.472 12.569 17.4589 12.6896 17.4452C12.8159 17.43 12.9023 17.4161 12.9487 17.4037C13.1052 17.3618 13.1967 17.3093 13.2233 17.2463ZM17.8307 12.117C17.7886 12.1221 17.7502 12.1293 17.7154 12.1386C17.6849 12.1406 17.658 12.1447 17.6348 12.1509C17.5305 12.1788 17.483 12.2102 17.4923 12.245C17.5141 12.3261 17.5945 12.348 17.7336 12.3108C17.8263 12.2859 17.8587 12.2213 17.8307 12.117ZM16.6661 16.0815L17.4397 12.8833L17.3607 12.7275C17.2912 12.7461 17.2203 12.8179 17.1482 12.9428C17.0803 13.0604 17.0391 13.1615 17.0245 13.2462L17.0067 13.3534L16.8995 13.4753C16.8467 13.533 16.801 13.6291 16.7625 13.7636C16.7225 13.8924 16.6702 13.9871 16.6057 14.0479C16.5478 14.0634 16.5057 14.115 16.4795 14.2028C16.4534 14.2906 16.4266 14.3878 16.3993 14.4945C16.3704 14.5954 16.3342 14.6921 16.2906 14.7845C16.2529 14.8754 16.1963 14.9309 16.121 14.9511C16.1179 14.9395 16.0833 14.9612 16.0173 15.0162C15.9571 15.0696 15.9433 15.1571 15.9759 15.2788L15.9945 15.3484C16.0364 15.5049 16.0143 15.6195 15.9282 15.6922L15.9081 15.7908C15.8675 15.8017 15.8148 15.8251 15.7499 15.8612C15.6892 15.8898 15.6444 15.908 15.6154 15.9158C15.5749 15.9267 15.5362 15.9215 15.4995 15.9003C15.4808 15.8308 15.4628 15.7983 15.4454 15.803C15.4281 15.8076 15.4132 15.8333 15.4009 15.8801C15.3944 15.9254 15.3917 15.9851 15.393 16.0593C15.3942 16.1335 15.4042 16.2054 15.4228 16.2749C15.4539 16.3908 15.5013 16.4402 15.565 16.4231C15.6172 16.4092 15.6551 16.4114 15.6787 16.43C15.7081 16.4469 15.7382 16.4668 15.7692 16.4896C15.8044 16.505 15.8454 16.5189 15.8921 16.5312C15.9447 16.5419 16.0174 16.5349 16.1101 16.51C16.4289 16.4246 16.6142 16.2818 16.6661 16.0815ZM16.7153 14.9782C16.6225 15.0031 16.5572 15.0143 16.5193 15.0121C16.4873 15.0082 16.4697 15.0005 16.4666 14.9889C16.4603 14.9658 16.4802 14.9356 16.5262 14.8984C16.5779 14.8597 16.6161 14.8402 16.6409 14.8397C16.6656 14.8393 16.6904 14.8855 16.7153 14.9782ZM22.6755 8.89014L25.0401 8.25655C25.127 8.23325 25.259 8.20411 25.436 8.16911C25.6114 8.12832 25.7426 8.09628 25.8295 8.07298C25.9802 8.03261 26.0967 7.99208 26.1789 7.9514C26.3343 7.92841 26.5076 7.89129 26.6988 7.84005C26.7684 7.82141 26.8574 7.79444 26.966 7.75914C27.0788 7.71649 27.1945 7.67307 27.3131 7.62887C27.4317 7.58466 27.5453 7.54491 27.6538 7.50961C27.7667 7.46696 27.8578 7.43632 27.9274 7.41768C28.0839 7.37576 28.2056 7.38972 28.2927 7.45957C28.3782 7.52362 28.4739 7.63772 28.58 7.80185C28.5588 7.83859 28.5517 7.89329 28.5588 7.96594C28.5658 8.0386 28.5671 8.1128 28.5625 8.18856C28.5638 8.26277 28.5482 8.33216 28.5158 8.39674C28.4877 8.45398 28.4257 8.48922 28.3299 8.50248C28.3438 8.55464 28.3259 8.61534 28.2762 8.68458C28.2248 8.74803 28.2131 8.83191 28.2411 8.93623C28.2489 8.96521 28.259 9.00288 28.2714 9.04924C28.288 9.08826 28.2995 9.11936 28.3057 9.14254L27.5693 9.48895C27.5693 9.48895 27.5664 9.48973 27.5606 9.49128C27.559 9.48548 27.5553 9.48336 27.5495 9.48491C27.5032 9.49734 27.4346 9.53124 27.3439 9.58662C27.2531 9.64199 27.1544 9.7026 27.0478 9.76843C26.9412 9.83426 26.8339 9.89719 26.7257 9.95723C26.6234 10.0157 26.5345 10.055 26.4592 10.0752C26.4638 10.0926 26.4565 10.135 26.4373 10.2022C26.4181 10.2695 26.399 10.3491 26.3802 10.4411C26.3656 10.5258 26.3533 10.6192 26.3434 10.7212C26.3319 10.8175 26.3363 10.9033 26.3565 10.9786L26.3334 11.5531C26.3262 11.6421 26.3162 11.7441 26.3036 11.8593C26.291 11.9745 26.2741 12.097 26.253 12.2269L26.18 12.6844L26.1705 13.0317C26.1126 13.0472 26.0914 13.084 26.1069 13.1419L26.1174 13.2509C26.1292 13.3409 26.1327 13.4238 26.1282 13.4996C26.1294 13.5738 26.1305 13.6356 26.1313 13.6851C26.1279 13.7419 26.1223 13.7558 26.1145 13.7269C26.0802 13.7609 26.0625 13.834 26.0615 13.9461C26.0604 14.0582 26.0617 14.1789 26.0654 14.3084C26.0748 14.4363 26.0798 14.5592 26.0803 14.6771C26.0866 14.7934 26.0742 14.8744 26.0429 14.9201L25.9909 15.0737C25.8469 15.5099 25.7642 15.8737 25.7429 16.1651C25.7117 16.2108 25.6801 16.2782 25.6481 16.3676C25.6161 16.4569 25.5902 16.557 25.5702 16.668C25.5487 16.7731 25.5353 16.8854 25.53 17.0048C25.5232 17.1185 25.5345 17.2304 25.5641 17.3405C25.5796 17.3984 25.5941 17.4411 25.6077 17.4685C25.5872 17.4616 25.57 17.4786 25.5562 17.5196C25.5481 17.559 25.5394 17.608 25.5302 17.6663C25.5195 17.7189 25.505 17.7694 25.4869 17.8177C25.4746 17.8645 25.4511 17.8925 25.4163 17.9018C25.3873 17.9096 25.3423 17.9155 25.2813 17.9194C25.2202 17.9233 25.1752 17.9292 25.1462 17.9369C25.135 17.9648 25.1314 18.0092 25.1353 18.0703C25.1393 18.1314 25.1461 18.1916 25.1558 18.2512C25.1698 18.3033 25.188 18.3481 25.2105 18.3856C25.2345 18.4288 25.2566 18.4416 25.2766 18.4238C25.3036 18.3855 25.3299 18.3443 25.3553 18.3002C25.3808 18.2561 25.4099 18.2141 25.4427 18.1743C25.5528 18.1448 25.6195 18.1735 25.6428 18.2604C25.6615 18.33 25.6422 18.3972 25.5851 18.4622C25.528 18.5272 25.4646 18.5691 25.3951 18.5877C25.3082 18.611 25.2019 18.6084 25.0762 18.58C24.9579 18.5558 24.8901 18.546 24.8727 18.5506C24.8642 18.5653 24.8575 18.5982 24.8525 18.6492C24.8491 18.706 24.8358 18.7376 24.8126 18.7438C24.7837 18.7515 24.7545 18.7469 24.7251 18.73L24.6349 18.9498C24.6264 18.9645 24.5926 18.9891 24.5335 19.0235C24.4745 19.058 24.427 19.0894 24.391 19.1176C24.3543 19.0964 24.332 19.0713 24.3243 19.0423C24.3227 19.0365 24.3279 18.9979 24.3398 18.9264C24.3532 18.8606 24.3547 18.8199 24.3443 18.804C24.2526 18.7168 24.1969 18.6944 24.1772 18.737C24.1634 18.778 24.1586 18.8414 24.163 18.9272C24.1689 19.0188 24.1682 19.109 24.161 19.1979C24.1611 19.291 24.1285 19.3433 24.0632 19.3545L23.2639 19.4662C23.1201 19.4861 23.0576 19.5308 23.0762 19.6004C23.0902 19.6525 23.115 19.6987 23.1506 19.7388C23.173 19.7763 23.1514 19.7883 23.0857 19.7749C23.02 19.7614 22.9754 19.7112 22.9522 19.6243C22.932 19.549 22.9287 19.4442 22.9425 19.3101C22.9621 19.1744 22.9594 19.0602 22.9346 18.9675C22.7955 19.0047 22.6778 18.8437 22.5815 18.4844C22.4976 18.1714 22.473 17.9171 22.5075 17.7215L22.5456 17.5157C22.5632 17.4426 22.5551 17.3889 22.521 17.3545C22.4854 17.3144 22.4598 17.2653 22.4443 17.2074C22.4474 17.219 22.456 17.1701 22.4702 17.0607C22.4902 16.9497 22.5157 16.8249 22.5469 16.6861C22.5838 16.5457 22.6231 16.4141 22.6647 16.2911C22.7121 16.1666 22.7618 16.0974 22.814 16.0834C22.872 16.0679 22.9301 16.0647 22.9885 16.0739C22.9838 16.0565 22.9886 16.0397 23.0029 16.0235C23.023 16.0057 23.0315 15.991 23.0284 15.9794C23.0253 15.9678 23.0148 15.9519 22.997 15.9319L23.0787 15.8541C23.1003 15.8421 23.0933 15.816 23.0577 15.7758L23.0003 15.7353C22.8959 15.7633 22.7965 15.821 22.7019 15.9085C22.6705 15.861 22.6455 15.8024 22.6269 15.7329C22.5989 15.6286 22.5868 15.4672 22.5904 15.2488C22.594 15.0305 22.6186 14.763 22.6642 14.4464C22.6956 14.2392 22.7292 13.9817 22.7647 13.6741C22.8003 13.3664 22.8401 13.0048 22.884 12.5892C22.8852 12.5703 22.8967 12.5206 22.9186 12.4402C22.9406 12.3598 22.9602 12.2707 22.9774 12.1729C22.9947 12.075 23.007 11.9817 23.0142 11.8928C23.0199 11.7981 23.0107 11.7291 22.9867 11.6859L23.0822 11.5205C23.0949 11.4985 23.0995 11.4693 23.096 11.433C23.0967 11.3893 23.1077 11.3491 23.1289 11.3123C23.0885 11.1616 23.0046 11.1034 22.8771 11.1376C22.8075 11.1562 22.7129 11.1971 22.5931 11.2602C22.4792 11.3218 22.3875 11.3619 22.3179 11.3806C22.173 11.4194 22.0117 11.4316 21.8339 11.4171C21.6561 11.4026 21.4236 11.381 21.1364 11.3524L20.887 11.326C20.87 11.2623 20.8469 11.2343 20.8179 11.2421C20.7812 11.2208 20.7311 11.1846 20.6677 11.1332C20.6027 11.0761 20.539 11.0124 20.4767 10.9422C20.4128 10.8661 20.3584 10.7906 20.3135 10.7157C20.2744 10.6392 20.2623 10.571 20.2773 10.5111L20.324 10.3029C20.3417 10.2298 20.3424 10.1396 20.326 10.0321C20.3081 9.91892 20.2947 9.81072 20.2856 9.70753C20.2809 9.597 20.2924 9.50075 20.3201 9.41878C20.3463 9.33102 20.4086 9.27393 20.5071 9.24753C20.5767 9.2289 20.6602 9.21585 20.7575 9.20839L21.5685 9.14017C21.7691 9.1237 21.9621 9.09061 22.1476 9.04092C22.1765 9.03316 22.2113 9.02384 22.2519 9.01297C22.2982 9.00055 22.3496 8.98367 22.406 8.96235L22.6755 8.89014ZM28.274 7.39002C28.2508 7.39623 28.2385 7.39644 28.2369 7.39065C28.2369 7.39065 28.239 7.38697 28.2433 7.37962C28.2518 7.36493 28.262 7.36839 28.274 7.39002ZM23.6825 13.2045C23.7076 13.2288 23.726 13.2395 23.7376 13.2363C23.7666 13.2286 23.7772 13.2102 23.7694 13.1812C23.7663 13.1696 23.7508 13.1583 23.723 13.1471C23.6994 13.1286 23.6752 13.1195 23.6505 13.1199C23.6188 13.1408 23.6024 13.1608 23.6013 13.1797C23.6001 13.1986 23.6272 13.2069 23.6825 13.2045ZM23.2117 14.1599C23.1596 14.1739 23.1532 14.1849 23.1926 14.193C23.2321 14.2011 23.2384 14.19 23.2117 14.1599ZM23.2939 15.0231C23.2812 15.0451 23.2779 15.0677 23.2841 15.0909C23.3028 15.1604 23.3556 15.1836 23.4425 15.1603C23.5352 15.1354 23.5715 15.0853 23.5513 15.01C23.5389 14.9636 23.5091 14.9219 23.4619 14.8849C23.4147 14.8478 23.3737 14.834 23.3389 14.8433C23.2868 14.8573 23.2718 14.9172 23.2939 15.0231ZM24.4319 15.4449C24.4087 15.4511 24.3979 15.4571 24.3994 15.4629C24.4025 15.4745 24.407 15.4795 24.4128 15.478C24.4228 15.4691 24.4292 15.4581 24.4319 15.4449ZM22.6598 17.0378L22.6365 16.9509C22.5959 16.9618 22.5866 16.9736 22.6087 16.9863C22.6307 16.999 22.6478 17.0162 22.6598 17.0378ZM23.9019 17.292C23.8787 17.2982 23.8679 17.3042 23.8694 17.31C23.8694 17.31 23.8739 17.315 23.8828 17.3251C23.8975 17.3336 23.9038 17.3226 23.9019 17.292ZM25.2807 16.9785C25.2428 16.9762 25.2225 16.9816 25.2199 16.9948C25.2172 17.0079 25.2203 17.0195 25.2292 17.0295C25.2439 17.038 25.257 17.0407 25.2686 17.0376C25.286 17.033 25.29 17.0132 25.2807 16.9785ZM23.5562 17.6362C23.6721 17.6052 23.7238 17.5665 23.7114 17.5201C23.7005 17.4795 23.6654 17.4641 23.6058 17.4738C23.5463 17.4836 23.5298 17.5377 23.5562 17.6362ZM25.3522 17.5929C25.3823 17.5662 25.3927 17.5355 25.3834 17.5007C25.3678 17.4427 25.3369 17.42 25.2905 17.4324C25.2673 17.4386 25.2436 17.4543 25.2193 17.4794C25.2119 17.4752 25.2164 17.4802 25.2326 17.4945C25.2489 17.5088 25.2659 17.526 25.2837 17.546C25.3015 17.5661 25.3185 17.5833 25.3348 17.5976C25.3495 17.6061 25.3553 17.6045 25.3522 17.5929ZM25.1229 17.85C25.1608 17.8523 25.1826 17.8526 25.1884 17.8511C25.229 17.8402 25.2407 17.8029 25.2236 17.7392C25.1957 17.6348 25.1585 17.5889 25.1122 17.6013C25.0774 17.6106 25.081 17.6935 25.1229 17.85ZM31.2415 6.59489L33.6061 5.9613C33.693 5.938 33.825 5.90886 34.002 5.87386C34.1774 5.83307 34.3086 5.80103 34.3955 5.77773C34.5462 5.73736 34.6626 5.69683 34.7449 5.65615C34.9003 5.63316 35.0736 5.59604 35.2648 5.5448C35.3344 5.52616 35.4234 5.49919 35.532 5.46389C35.6448 5.42124 35.7605 5.37782 35.8791 5.33362C35.9977 5.28941 36.1113 5.24966 36.2198 5.21436C36.3326 5.17171 36.4238 5.14107 36.4934 5.12243C36.6498 5.08051 36.7716 5.09447 36.8587 5.16432C36.9441 5.22837 37.0399 5.34247 37.146 5.5066C37.1248 5.54334 37.1177 5.59804 37.1248 5.67069C37.1318 5.74335 37.1331 5.81755 37.1285 5.89331C37.1298 5.96752 37.1142 6.03691 37.0818 6.10149C37.0537 6.15873 36.9917 6.19397 36.8958 6.20723C36.9098 6.25939 36.8919 6.32009 36.8421 6.38933C36.7908 6.45278 36.7791 6.53666 36.8071 6.64098C36.8148 6.66996 36.8249 6.70763 36.8374 6.75399C36.854 6.79301 36.8655 6.82411 36.8717 6.84729L36.1352 7.1937C36.1352 7.1937 36.1323 7.19448 36.1266 7.19603C36.125 7.19023 36.1213 7.18811 36.1155 7.18966C36.0692 7.20209 36.0006 7.23599 35.9098 7.29137C35.8191 7.34674 35.7204 7.40735 35.6138 7.47318C35.5072 7.53901 35.3998 7.60194 35.2917 7.66198C35.1894 7.72046 35.1005 7.7598 35.0252 7.77999C35.0298 7.79737 35.0225 7.8397 35.0033 7.90698C34.984 7.97425 34.965 8.05389 34.9462 8.1459C34.9316 8.23056 34.9193 8.32391 34.9094 8.42596C34.8979 8.52221 34.9023 8.608 34.9225 8.68335L34.8994 9.2579C34.8922 9.3468 34.8822 9.44885 34.8696 9.56404C34.857 9.67923 34.8401 9.80177 34.819 9.93165L34.746 10.3892L34.7365 10.7364C34.6786 10.752 34.6573 10.7887 34.6729 10.8467L34.6834 10.9556C34.6951 11.0457 34.6987 11.1286 34.6942 11.2043C34.6954 11.2785 34.6965 11.3404 34.6973 11.3898C34.6939 11.4467 34.6883 11.4606 34.6805 11.4316C34.6462 11.4657 34.6285 11.5387 34.6275 11.6508C34.6264 11.7629 34.6277 11.8837 34.6314 12.0132C34.6408 12.1411 34.6458 12.264 34.6463 12.3818C34.6526 12.4982 34.6402 12.5792 34.6089 12.6248L34.5569 12.7785C34.4129 13.2146 34.3302 13.5784 34.3089 13.8699C34.2777 13.9155 34.2461 13.983 34.2141 14.0723C34.1821 14.1616 34.1562 14.2618 34.1362 14.3727C34.1147 14.4779 34.1013 14.5902 34.096 14.7096C34.0892 14.8232 34.1005 14.9351 34.13 15.0452C34.1456 15.1032 34.1601 15.1459 34.1737 15.1733C34.1532 15.1664 34.136 15.1834 34.1221 15.2244C34.1141 15.2638 34.1054 15.3127 34.0962 15.3711C34.0855 15.4236 34.071 15.4741 34.0529 15.5224C34.0406 15.5692 34.0171 15.5973 33.9823 15.6066C33.9533 15.6143 33.9083 15.6202 33.8472 15.6241C33.7862 15.6281 33.7412 15.6339 33.7122 15.6417C33.701 15.6695 33.6974 15.714 33.7013 15.775C33.7053 15.8361 33.7121 15.8964 33.7218 15.9559C33.7358 16.0081 33.754 16.0529 33.7765 16.0903C33.8005 16.1336 33.8226 16.1463 33.8426 16.1285C33.8696 16.0902 33.8959 16.049 33.9213 16.0049C33.9468 15.9608 33.9759 15.9189 34.0087 15.879C34.1188 15.8495 34.1855 15.8782 34.2088 15.9652C34.2275 16.0347 34.2082 16.102 34.1511 16.167C34.094 16.232 34.0306 16.2738 33.9611 16.2924C33.8742 16.3157 33.7679 16.3132 33.6422 16.2847C33.5239 16.2605 33.4561 16.2507 33.4387 16.2554C33.4302 16.2701 33.4235 16.3029 33.4185 16.354C33.4151 16.4108 33.4018 16.4423 33.3786 16.4485C33.3497 16.4563 33.3205 16.4517 33.2911 16.4347L33.2009 16.6545C33.1924 16.6692 33.1586 16.6938 33.0995 16.7283C33.0404 16.7628 32.9929 16.7941 32.957 16.8224C32.9203 16.8012 32.898 16.7761 32.8903 16.7471C32.8887 16.7413 32.8939 16.7026 32.9058 16.6311C32.9192 16.5654 32.9207 16.5246 32.9103 16.5088C32.8186 16.4215 32.7629 16.3992 32.7432 16.4417C32.7294 16.4827 32.7246 16.5461 32.729 16.6319C32.7349 16.7235 32.7342 16.8137 32.727 16.9026C32.7271 16.9958 32.6945 17.048 32.6292 17.0593L31.8299 17.171C31.6861 17.1909 31.6235 17.2356 31.6422 17.3051C31.6562 17.3573 31.6809 17.4034 31.7166 17.4436C31.739 17.4811 31.7174 17.4931 31.6517 17.4796C31.5859 17.4662 31.5414 17.416 31.5181 17.329C31.498 17.2537 31.4947 17.149 31.5085 17.0148C31.528 16.8792 31.5254 16.765 31.5005 16.6722C31.3615 16.7095 31.2438 16.5485 31.1475 16.1891C31.0636 15.8762 31.039 15.6219 31.0735 15.4263L31.1115 15.2204C31.1292 15.1474 31.121 15.0937 31.087 15.0593C31.0514 15.0191 31.0258 14.9701 31.0103 14.9121C31.0134 14.9237 31.022 14.8748 31.0362 14.7654C31.0562 14.6545 31.0817 14.5296 31.1129 14.3908C31.1498 14.2505 31.1891 14.1188 31.2307 13.9959C31.278 13.8714 31.3278 13.8021 31.38 13.7882C31.4379 13.7726 31.4961 13.7695 31.5545 13.7787C31.5498 13.7613 31.5546 13.7445 31.5689 13.7282C31.589 13.7104 31.5975 13.6957 31.5944 13.6841C31.5913 13.6725 31.5808 13.6567 31.563 13.6366L31.6447 13.5588C31.6663 13.5468 31.6593 13.5208 31.6237 13.4806L31.5662 13.4401C31.4619 13.468 31.3625 13.5257 31.2679 13.6132C31.2365 13.5657 31.2115 13.5072 31.1929 13.4376C31.1649 13.3333 31.1528 13.172 31.1564 12.9536C31.16 12.7352 31.1846 12.4677 31.2302 12.1511C31.2616 11.9439 31.2951 11.6865 31.3307 11.3788C31.3663 11.0711 31.4061 10.7095 31.45 10.294C31.4511 10.275 31.4627 10.2253 31.4846 10.1449C31.5065 10.0645 31.5262 9.9754 31.5434 9.8776C31.5607 9.7798 31.573 9.68644 31.5802 9.59754C31.5859 9.50284 31.5767 9.43387 31.5527 9.39061L31.6482 9.22527C31.6609 9.20322 31.6655 9.17404 31.662 9.13771C31.6627 9.09403 31.6737 9.05383 31.6949 9.01708C31.6545 8.8664 31.5706 8.80814 31.4431 8.8423C31.3735 8.86094 31.2789 8.90183 31.1591 8.96497C31.0452 9.02656 30.9534 9.06667 30.8839 9.0853C30.739 9.12413 30.5777 9.1363 30.3999 9.12183C30.222 9.10735 29.9895 9.08579 29.7023 9.05715L29.453 9.03078C29.4359 8.96703 29.4129 8.93904 29.3839 8.9468C29.3472 8.92559 29.2971 8.88932 29.2337 8.83799C29.1687 8.78087 29.105 8.71717 29.0427 8.6469C28.9788 8.57084 28.9244 8.49535 28.8795 8.42042C28.8404 8.34394 28.8283 8.27574 28.8433 8.21582L28.89 8.00763C28.9077 7.93456 28.9084 7.84432 28.892 7.73689C28.8741 7.62367 28.8606 7.51547 28.8516 7.41228C28.8469 7.30175 28.8583 7.2055 28.8861 7.12353C28.9123 7.03577 28.9746 6.97868 29.0731 6.95228C29.1427 6.93365 29.2261 6.9206 29.3235 6.91314L30.1345 6.84492C30.3351 6.82845 30.5281 6.79537 30.7135 6.74567C30.7425 6.73791 30.7773 6.72859 30.8179 6.71772C30.8642 6.7053 30.9156 6.68842 30.972 6.6671L31.2415 6.59489ZM36.84 5.09477C36.8168 5.10098 36.8045 5.10119 36.8029 5.0954C36.8029 5.0954 36.805 5.09172 36.8093 5.08437C36.8178 5.06968 36.828 5.07314 36.84 5.09477ZM32.2485 10.9093C32.2736 10.9336 32.292 10.9442 32.3036 10.9411C32.3326 10.9333 32.3432 10.915 32.3354 10.886C32.3323 10.8744 32.3168 10.863 32.289 10.8518C32.2654 10.8333 32.2412 10.8243 32.2165 10.8247C32.1848 10.8456 32.1684 10.8655 32.1673 10.8844C32.1661 10.9034 32.1932 10.9117 32.2485 10.9093ZM31.7777 11.8647C31.7255 11.8787 31.7192 11.8897 31.7586 11.8977C31.798 11.9058 31.8044 11.8948 31.7777 11.8647ZM31.8599 12.7278C31.8472 12.7499 31.8439 12.7725 31.8501 12.7957C31.8688 12.8652 31.9215 12.8883 32.0085 12.865C32.1012 12.8402 32.1375 12.7901 32.1173 12.7147C32.1049 12.6684 32.0751 12.6267 32.0279 12.5896C31.9807 12.5526 31.9397 12.5387 31.9049 12.548C31.8527 12.562 31.8377 12.6219 31.8599 12.7278ZM32.9979 13.1497C32.9747 13.1559 32.9639 13.1619 32.9654 13.1677C32.9685 13.1793 32.973 13.1843 32.9788 13.1827C32.9888 13.1738 32.9952 13.1628 32.9979 13.1497ZM31.2258 14.7426L31.2025 14.6557C31.1619 14.6665 31.1526 14.6783 31.1747 14.6911C31.1967 14.7038 31.2137 14.721 31.2258 14.7426ZM32.4679 14.9968C32.4447 15.003 32.4339 15.009 32.4354 15.0148C32.4354 15.0148 32.4399 15.0198 32.4488 15.0298C32.4635 15.0383 32.4698 15.0273 32.4679 14.9968ZM33.8467 14.6832C33.8088 14.6809 33.7885 14.6864 33.7858 14.6995C33.7832 14.7127 33.7863 14.7243 33.7952 14.7343C33.8099 14.7428 33.823 14.7455 33.8346 14.7424C33.852 14.7377 33.856 14.718 33.8467 14.6832ZM32.1222 15.341C32.2381 15.3099 32.2898 15.2712 32.2774 15.2248C32.2665 15.1843 32.2313 15.1689 32.1718 15.1786C32.1123 15.1883 32.0958 15.2424 32.1222 15.341ZM33.9182 15.2977C33.9483 15.271 33.9587 15.2402 33.9494 15.2054C33.9338 15.1475 33.9029 15.1247 33.8565 15.1371C33.8333 15.1434 33.8096 15.159 33.7853 15.1842C33.7779 15.1799 33.7824 15.185 33.7986 15.1992C33.8149 15.2135 33.8319 15.2307 33.8497 15.2508C33.8675 15.2709 33.8845 15.288 33.9008 15.3023C33.9155 15.3108 33.9213 15.3093 33.9182 15.2977ZM33.6889 15.5548C33.7268 15.557 33.7486 15.5574 33.7544 15.5558C33.795 15.545 33.8067 15.5077 33.7896 15.4439C33.7617 15.3396 33.7245 15.2936 33.6782 15.3061C33.6434 15.3154 33.647 15.3983 33.6889 15.5548ZM40.0253 12.5897L42.0248 12.054C42.1755 12.0136 42.2703 12.0659 42.3091 12.2107C42.4069 12.5759 42.3812 12.8623 42.2318 13.07C42.2048 13.1083 42.1502 13.1478 42.0679 13.1885C41.9841 13.2234 41.9453 13.2524 41.9515 13.2756C41.953 13.2814 41.9643 13.3001 41.9852 13.3318L41.8834 13.5081C41.916 13.6298 41.9217 13.7091 41.9005 13.7458C41.9294 13.738 41.9525 13.766 41.9695 13.8298C41.8255 14.2659 41.4209 14.6104 40.7556 14.8632C40.7325 14.8694 40.6442 14.8993 40.4908 14.9528C40.3374 15.0063 40.1609 15.066 39.9611 15.132C39.7672 15.1964 39.5769 15.2629 39.3903 15.3315C39.2111 15.4044 39.0803 15.4612 38.9981 15.5018C38.6995 15.6626 38.498 15.7569 38.3937 15.7849C38.0518 15.8765 37.709 15.8721 37.3652 15.7716C37.0231 15.677 36.7479 15.496 36.5396 15.2288C36.5222 15.2335 36.4994 15.2179 36.4712 15.182C36.4429 15.146 36.4123 15.1014 36.3794 15.0481C36.3523 14.9933 36.3259 14.9413 36.3004 14.8923C36.2732 14.8374 36.2566 14.7984 36.2504 14.7752C36.196 14.5724 36.2039 14.3467 36.2739 14.0981C36.344 13.8495 36.4556 13.6518 36.6089 13.5052C36.6392 13.3169 36.6658 13.1265 36.6888 12.934C36.7102 12.7357 36.7287 12.5382 36.7443 12.3415L36.8443 11.15C36.9208 10.1605 37.0119 9.38756 37.1175 8.83127C37.0443 8.02475 37.1596 7.18012 37.4635 6.29739C37.4834 6.18644 37.5103 6.055 37.5442 5.90307C37.578 5.75113 37.6257 5.60479 37.6874 5.46403C37.7533 5.31592 37.8349 5.19157 37.9322 5.09096C38.0337 4.98301 38.16 4.92121 38.3111 4.90557L39.0242 4.85428C39.3847 4.83221 39.706 4.94178 39.9881 5.183C40.0693 5.2544 40.1056 5.33166 40.0968 5.41477C40.0938 5.49632 40.0615 5.65405 39.9999 5.88795C39.973 6.01939 39.9639 6.17091 39.9726 6.3425C39.9814 6.5141 39.9864 6.73014 39.9879 6.99063L39.9126 7.05739C39.9084 7.06474 39.9109 7.0858 39.9202 7.12058C39.9296 7.15535 39.935 7.17564 39.9365 7.18143C39.9521 7.23939 39.986 7.30795 40.0383 7.38712C40.0948 7.45894 40.1316 7.52672 40.1486 7.59047C40.1611 7.63684 40.1621 7.69868 40.1518 7.77599L40.1316 7.87457L40.0732 8.03928L39.9979 8.10605C40.0166 8.17559 39.9977 8.22103 39.9413 8.24235C39.8675 8.26834 39.8346 8.34239 39.8424 8.46451C39.8561 8.58508 39.8597 8.71455 39.8533 8.85293C39.8484 8.90395 39.8567 8.92346 39.8783 8.91145C39.9058 8.89789 39.9299 8.90694 39.9508 8.93861C39.959 8.99232 39.9586 9.09494 39.9495 9.24645C39.9404 9.39797 39.9256 9.51684 39.9052 9.60305L39.8851 9.70163C39.8732 9.77314 39.8646 9.86862 39.8593 9.98805C39.8583 10.1001 39.8581 10.2151 39.8586 10.333C39.8649 10.4493 39.8718 10.5562 39.8793 10.6536C39.891 10.7436 39.8999 10.8002 39.9061 10.8234C39.9263 10.8987 39.9129 10.9645 39.8658 11.0206C39.8229 11.0693 39.8006 11.125 39.7987 11.1876L39.7809 11.2949L39.6969 11.364C39.6969 11.364 39.6963 11.3734 39.6952 11.3924C39.6941 11.4113 39.6996 11.4782 39.7117 11.593C39.7183 11.6409 39.7332 11.6617 39.7564 11.6555C39.7796 11.6493 39.807 11.6357 39.8387 11.6148C39.8761 11.5924 39.9115 11.5736 39.9447 11.5585C39.9837 11.5418 40.015 11.5427 40.0386 11.5613C40.012 11.6243 39.9825 11.6881 39.9501 11.7527C39.9162 11.8115 39.8616 11.851 39.7862 11.8711C39.6123 11.9177 39.544 12.0106 39.5813 12.1497C39.5891 12.1786 39.6152 12.2182 39.6597 12.2684C39.71 12.3171 39.7603 12.3657 39.8106 12.4143C39.8652 12.4556 39.9132 12.4956 39.9546 12.5342C40.0017 12.5712 40.0253 12.5897 40.0253 12.5897ZM49.4558 3.6338L48.4242 3.95679C48.3446 3.98432 48.2404 4.05885 48.1114 4.18036C47.9809 4.29608 47.8519 4.37102 47.7244 4.40518C47.5332 4.45643 47.4034 4.35455 47.335 4.09955C47.1902 4.13837 47.1239 4.18096 47.1363 4.22733C47.1395 4.23892 47.1478 4.25843 47.1613 4.28585C47.1791 4.30593 47.1896 4.32176 47.1927 4.33335C47.2036 4.37392 47.1511 4.40974 47.0351 4.44079C46.7048 4.52931 46.5018 4.79179 46.4262 5.22823C46.3679 5.56687 46.3884 5.92165 46.4878 6.29256C46.5235 6.42586 46.5792 6.49478 46.655 6.49933C46.7365 6.50233 46.8613 6.48131 47.0294 6.43627L47.2554 6.37571C47.4989 6.31048 47.6439 6.23746 47.6906 6.15662L47.7606 6.03537C47.7733 6.01333 47.7857 6.01312 47.7977 6.03475C47.8155 6.05483 47.8252 6.06776 47.8267 6.07356C47.8271 6.09829 47.832 6.12805 47.8413 6.16282L47.9539 6.23515C47.9539 6.23515 47.9541 6.24752 47.9545 6.27226C47.9591 6.28964 47.9607 6.29544 47.9591 6.28964C47.9669 6.31862 47.9942 6.33927 48.041 6.35158C48.092 6.35654 48.1248 6.36327 48.1395 6.37175C48.2323 6.3469 48.2892 6.31611 48.3105 6.27937C48.3077 6.19937 48.3507 6.16298 48.4396 6.17022C48.527 6.17166 48.5938 6.16617 48.6402 6.15375C48.6692 6.14598 48.6916 6.13687 48.7074 6.12642L48.7019 5.93221C48.698 5.87115 48.716 5.85702 48.7558 5.88983C48.7899 5.92418 48.8063 5.95083 48.8052 5.96977C48.8083 5.98136 48.8027 5.99528 48.7884 6.01153C48.7799 6.02623 48.7686 6.0417 48.7543 6.05795C48.74 6.0742 48.7367 6.09682 48.7445 6.1258C48.7585 6.17796 48.7905 6.26256 48.8405 6.37961C48.8947 6.48931 48.9311 6.57893 48.9498 6.64848C48.8838 6.70344 48.8583 6.74753 48.8734 6.78075C48.8885 6.81397 48.9231 6.83886 48.9773 6.85541C49.0298 6.86617 49.0888 6.86591 49.1541 6.85462C49.2252 6.84178 49.2816 6.82046 49.3233 6.79065C49.3305 7.30429 49.0317 7.75395 48.4269 8.13962C48.2353 8.25927 47.9727 8.39177 47.6389 8.5371C47.3052 8.68244 46.9152 8.81489 46.4689 8.93447C46.3298 8.97174 46.2416 9.04818 46.2042 9.16378C46.1711 9.27204 46.1543 9.39458 46.1537 9.5314C46.153 9.66822 46.1503 9.80871 46.1455 9.95288C46.1391 10.0913 46.0996 10.2105 46.027 10.3107C46.0612 10.4382 46.0151 10.6369 45.8886 10.9069C45.8663 10.9625 45.8566 10.9962 45.8598 11.0078C45.8582 11.002 45.9027 11.0056 45.9931 11.0186C46.0878 11.0243 46.1928 11.0335 46.3079 11.0461C46.4231 11.0587 46.5346 11.0692 46.6425 11.0776C46.7503 11.0859 46.8187 11.0862 46.8477 11.0785C46.8825 11.0692 46.92 11.0467 46.9601 11.0111C47.0045 10.9681 47.0205 10.9235 47.0081 10.8771C46.9987 10.8423 46.9809 10.8223 46.9547 10.8169C46.9284 10.8115 46.9 10.8098 46.8694 10.8118C46.8447 10.8122 46.8207 10.8155 46.7976 10.8217C46.7744 10.8279 46.7612 10.8252 46.7581 10.8136C46.755 10.8021 46.7786 10.774 46.8287 10.7295C46.8774 10.6792 46.8978 10.6396 46.8901 10.6106L47.3041 10.6953L47.4547 10.5618C47.5466 10.4875 47.6157 10.4441 47.6621 10.4317C47.6794 10.427 47.682 10.4481 47.6697 10.4949C47.6558 10.5358 47.6377 10.5842 47.6154 10.6399C47.593 10.6955 47.5699 10.7483 47.546 10.7982C47.5279 10.8465 47.5196 10.8736 47.5211 10.8794C47.5413 10.9547 47.6523 10.9747 47.854 10.9393C47.8899 10.911 47.9064 10.8569 47.9036 10.7769C47.9051 10.6896 47.9108 10.6414 47.9209 10.6325C48.0436 10.8357 48.1832 10.9163 48.3397 10.8744C48.4035 10.8573 48.4666 10.8031 48.5291 10.7118C48.5959 10.6132 48.6901 10.5475 48.8118 10.5149C48.8813 10.4963 48.9471 10.5098 49.0089 10.5553C49.0751 10.5935 49.1197 10.6095 49.1429 10.6032C49.1661 10.597 49.1606 10.5302 49.1265 10.4027C49.2169 10.4157 49.2707 10.4541 49.2878 10.5178C49.3079 10.5932 49.281 10.6781 49.2069 10.7724C49.1313 10.861 49.0529 10.9162 48.9717 10.938C48.9479 11.081 48.9228 11.2306 48.8963 11.3868C48.8756 11.5414 48.8106 11.6582 48.7014 11.7372L48.6999 11.5232C48.6992 11.5669 48.6381 11.6516 48.5165 11.7774C48.3991 11.8958 48.2567 12.0365 48.0891 12.1994L47.3178 12.9371L45.2662 13.4869L44.7558 13.7727C44.6909 13.8087 44.6063 13.8407 44.5019 13.8687C44.1774 13.9556 43.8687 13.9048 43.5759 13.7162C43.3744 13.59 43.2018 13.4095 43.0581 13.1747C42.9129 12.9341 42.8085 12.695 42.7448 12.4574C42.7122 12.3357 42.6828 12.1913 42.6567 12.0244C42.6291 11.8517 42.5865 11.6581 42.5291 11.4437C42.5407 11.4406 42.5495 11.3575 42.5555 11.1943C42.5657 11.0239 42.572 10.8389 42.5745 10.6395C42.577 10.4401 42.5775 10.2567 42.5762 10.0893C42.5806 9.92043 42.5813 9.83018 42.5782 9.81859L42.6395 9.69967L42.6745 9.44802C42.6864 9.37651 42.6885 9.32626 42.6807 9.29728C42.6788 9.26675 42.6894 9.24838 42.7125 9.24217L43.5272 4.98009C43.538 4.92752 43.5431 4.88886 43.5427 4.86413C43.5407 4.8336 43.5429 4.82992 43.5491 4.85311C43.546 4.84151 43.5407 4.8336 43.5334 4.82935L43.6352 4.65299C43.6679 4.52 43.7336 4.35952 43.8323 4.17157C43.9353 3.97627 44.0485 3.78443 44.172 3.59606C44.2939 3.40189 44.4167 3.22299 44.5406 3.05936C44.6645 2.89572 44.7658 2.7754 44.8445 2.69839C44.9519 2.58889 45.0403 2.52482 45.1098 2.50618L47.2748 1.68384C47.6016 1.55899 47.7853 1.49114 47.8258 1.48027C47.9591 1.44455 48.0478 1.43942 48.0919 1.46488C48.2314 1.45234 48.3839 1.43013 48.5493 1.39824C48.7189 1.359 48.88 1.33446 49.0327 1.32461C49.1853 1.31477 49.321 1.33432 49.4397 1.38326C49.5569 1.42641 49.6372 1.52912 49.6807 1.69139C49.6869 1.71457 49.691 1.74143 49.693 1.77196C49.7007 1.80094 49.7056 1.83069 49.7076 1.86122C49.718 1.87706 49.7538 1.92958 49.815 2.01879C49.8746 2.1022 49.9402 2.19642 50.0119 2.30146C50.0893 2.40495 50.1288 2.45959 50.1303 2.46539C50.1366 2.48857 50.1428 2.51175 50.149 2.53494C50.1552 2.55812 50.1593 2.58497 50.1612 2.6155L50.2598 2.63568C50.2672 2.63992 50.2755 2.65943 50.2848 2.6942C50.2984 2.72163 50.3059 2.73824 50.3075 2.74403C50.3153 2.77301 50.303 2.86636 50.2707 3.02409L50.2124 3.18881C50.1409 3.17691 50.0908 3.18721 50.0623 3.21971C50.0379 3.24486 50.0188 3.27793 50.005 3.31892C49.9911 3.3599 49.9801 3.40011 49.9721 3.43954C49.9625 3.47318 49.9374 3.49543 49.8968 3.5063C49.862 3.51562 49.8183 3.5149 49.7658 3.50414C49.7132 3.49338 49.655 3.49654 49.5913 3.51363C49.5217 3.53226 49.4766 3.57232 49.4558 3.6338ZM48.4588 5.7551C48.5149 5.80219 48.5424 5.8352 48.5413 5.85414C48.5386 5.86728 48.5198 5.87852 48.4851 5.88783C48.4545 5.8898 48.4174 5.89043 48.3738 5.8897C48.3301 5.88898 48.2909 5.89328 48.2561 5.9026C48.1916 5.96336 48.1362 5.99995 48.0898 6.01237C48.0609 6.02013 48.044 6.01532 48.0394 5.99794C48.0301 5.96316 48.0547 5.91618 48.1134 5.85697C48.1721 5.79777 48.2246 5.76195 48.271 5.74953C48.3289 5.734 48.3916 5.73586 48.4588 5.7551ZM48.3795 6.36335C48.3506 6.37111 48.3369 6.37789 48.3384 6.38369C48.34 6.38948 48.3444 6.3945 48.3518 6.39874C48.3634 6.39564 48.3726 6.38384 48.3795 6.36335ZM48.4743 7.06472C48.3724 7.14794 48.3253 7.20404 48.3331 7.23301C48.3424 7.26779 48.4274 7.26054 48.5881 7.21126C48.6793 7.18062 48.7544 7.14806 48.8135 7.11359C48.8711 7.07333 48.8959 7.03871 48.8882 7.00973C48.8758 6.96336 48.809 6.93465 48.6881 6.92359C48.6401 6.93022 48.5967 6.94186 48.5577 6.95853C48.5171 6.9694 48.4893 7.0048 48.4743 7.06472ZM47.7697 7.35601C47.6881 7.35302 47.6546 7.38997 47.6689 7.46687C47.6651 7.49895 47.6951 7.50645 47.7588 7.48937C47.8284 7.47073 47.8921 7.45365 47.9501 7.43812C48.0776 7.40396 48.1305 7.34631 48.1087 7.26517C48.0916 7.20142 48.0454 7.17964 47.9701 7.19982C47.9005 7.21846 47.8337 7.27052 47.7697 7.35601ZM44.4771 10.0552C44.3786 10.0816 44.3394 10.1324 44.3596 10.2078C44.3891 10.3179 44.4415 10.3629 44.5169 10.3427C44.5458 10.3349 44.5578 10.31 44.5527 10.2678C44.5492 10.2315 44.524 10.1606 44.4771 10.0552ZM47.1299 10.9842C47.0631 10.9897 47.027 11.0056 47.0216 11.0319C47.0204 11.0508 47.0309 11.0667 47.0529 11.0794C47.075 11.0921 47.0968 11.0925 47.1185 11.0805C47.1401 11.0685 47.1439 11.0364 47.1299 10.9842ZM46.8364 11.3144C46.8634 11.2762 46.8746 11.2483 46.8699 11.2309C46.8544 11.173 46.7945 11.158 46.6902 11.1859C46.6554 11.1952 46.6448 11.2136 46.6583 11.241C46.6761 11.2611 46.7005 11.2825 46.7315 11.3053C46.7667 11.3207 46.7953 11.3348 46.8173 11.3475C46.8452 11.3587 46.8481 11.3579 46.826 11.3452C46.8376 11.3421 46.8411 11.3318 46.8364 11.3144ZM47.558 11.1211C47.5869 11.1133 47.5999 11.1037 47.5968 11.0921C47.5832 11.0646 47.5596 11.0461 47.526 11.0365C47.4923 11.0269 47.4639 11.0252 47.4407 11.0314C47.4234 11.036 47.4154 11.0413 47.417 11.0471C47.4116 11.0734 47.4273 11.0971 47.464 11.1183C47.5066 11.138 47.5365 11.1455 47.5539 11.1408C47.5597 11.1393 47.5611 11.1327 47.558 11.1211ZM46.9723 11.4737C47.0306 11.4829 47.0785 11.4763 47.116 11.4538C47.1535 11.4314 47.1749 11.407 47.1803 11.3807C47.1899 11.3471 47.185 11.3173 47.1657 11.2914C47.1448 11.2598 47.1104 11.2473 47.0624 11.2539C46.9581 11.2818 46.9176 11.3393 46.9409 11.4262C46.944 11.4378 46.9545 11.4536 46.9723 11.4737ZM48.8008 11.0303C48.7571 11.0296 48.7363 11.0445 48.7383 11.0751C48.7387 11.0998 48.7592 11.1067 48.7997 11.0959C48.8113 11.0927 48.8117 11.0709 48.8008 11.0303ZM23.5254 27.1732C23.4585 27.1786 23.4384 27.1965 23.4651 27.2266C23.4976 27.2551 23.5177 27.2373 23.5254 27.1732ZM19.3282 30.2172C19.2722 30.2632 19.2547 30.3021 19.2756 30.3338C19.3007 30.3581 19.3454 30.3741 19.4096 30.3817C19.4737 30.3894 19.5487 30.391 19.6345 30.3867C19.7246 30.375 19.8101 30.3583 19.8913 30.3365C20.3781 30.2061 20.6704 30.2768 20.7681 30.5488C20.8087 30.5379 20.8408 30.5418 20.8644 30.5603C20.8922 30.5715 20.9148 30.5747 20.9322 30.5701C20.9496 30.5654 20.9741 30.5526 21.0058 30.5317L21.0062 30.4291C21.0074 30.4102 21.0068 30.3731 21.0044 30.3178C21.0004 30.2567 20.9986 30.192 20.9989 30.1236C21.0035 30.0478 21.0059 29.9757 21.0062 29.9073C21.0123 29.8374 21.0223 29.7819 21.0361 29.7409L21.0829 29.5327C21.1044 29.4276 21.1082 29.2681 21.0945 29.0544C21.0791 28.8349 21.0533 28.5996 21.0171 28.3484C20.9866 28.0957 20.9475 27.8453 20.8997 27.5972C20.8518 27.3491 20.8062 27.1439 20.7627 26.9817C20.727 26.8484 20.6743 26.791 20.6048 26.8097C20.5758 26.8174 20.5463 26.8347 20.5161 26.8614C20.3858 27.0702 20.2333 27.2198 20.0587 27.3101C19.8883 27.393 19.7356 27.4836 19.6004 27.5819C19.4695 27.6729 19.3771 27.8033 19.3232 27.973C19.2678 28.137 19.2934 28.4065 19.4001 28.7817L19.4062 29.013C19.4082 29.0435 19.4057 29.1156 19.3989 29.2292C19.3921 29.3429 19.3847 29.466 19.3768 29.5985C19.3688 29.7311 19.3593 29.8579 19.3482 29.9789C19.343 30.0983 19.3363 30.1778 19.3282 30.2172ZM23.4368 26.321C23.5038 26.4087 23.5544 26.5163 23.5885 26.6438C23.6165 26.7481 23.6299 26.8563 23.6289 26.9684C23.6321 27.0731 23.6241 27.1591 23.6049 27.2264C23.6405 27.2666 23.6421 27.3189 23.6097 27.3835C23.5831 27.4465 23.5783 27.5099 23.5954 27.5737C23.6094 27.6258 23.635 27.6749 23.6721 27.7208L23.5625 27.6943C23.4704 27.5823 23.3954 27.5341 23.3374 27.5496C23.2273 27.5791 23.2002 27.6982 23.2561 27.9069C23.2732 27.9706 23.299 28.032 23.3334 28.0911C23.3721 28.1429 23.4176 28.1617 23.4697 28.1478C23.4755 28.1462 23.4815 28.157 23.4877 28.1802C23.494 28.2034 23.4913 28.2165 23.4797 28.2196C23.4797 28.2196 23.4473 28.2842 23.3825 28.4134C23.322 28.5352 23.2466 28.6828 23.1564 28.856C23.0704 29.0219 22.9801 29.1952 22.8857 29.3758C22.7954 29.549 22.7206 29.6871 22.6612 29.79L22.5681 29.964L22.3388 30.2211C22.3388 30.2211 22.3448 30.2319 22.3568 30.2536C22.3673 30.2694 22.3717 30.2744 22.3702 30.2686C22.3748 30.286 22.3671 30.3036 22.3471 30.3214C22.3328 30.3377 22.328 30.3545 22.3326 30.3719L22.2486 30.4409L22.2901 30.7C22.4545 30.7802 22.553 30.8812 22.5856 31.0029C22.6166 31.1188 22.5826 31.2584 22.4835 31.4216C22.3886 31.5775 22.2689 31.7337 22.1246 31.8904C21.9787 32.0414 21.8281 32.1749 21.6729 32.291C21.5176 32.4071 21.3907 32.4784 21.2922 32.5048L19.0558 32.7127C19.1089 33.4439 18.9702 34.155 18.6398 34.8461C18.5384 35.0472 18.44 35.2133 18.3447 35.3444C18.3158 35.3522 18.309 35.3851 18.3246 35.443L18.2088 35.5672L17.9331 35.7902C17.9124 35.9448 17.8134 36.0738 17.6361 36.1772C17.4662 36.2849 17.3001 36.3604 17.1378 36.4039C16.7901 36.4971 16.4884 36.4723 16.2328 36.3296C15.9845 36.1912 15.8311 35.9434 15.7727 35.5864C15.8402 35.4441 15.8498 35.2831 15.8017 35.1034C15.7862 35.0455 15.7867 34.9894 15.8032 34.9353C15.8198 34.8812 15.8188 34.8193 15.8001 34.7498L15.8638 34.6395C15.8296 34.512 15.8231 34.3833 15.8442 34.2535C15.8711 34.122 15.8877 33.9871 15.8941 33.8487L15.9501 33.1536L16.0341 33.0845L16.0519 32.9772C16.0849 32.7758 16.1273 32.5284 16.1792 32.235C16.2294 31.9358 16.2781 31.5842 16.3251 31.1803C16.4017 30.5386 16.4604 30.0042 16.5012 29.5771C16.5478 29.1484 16.5911 28.8231 16.6311 28.6012C16.7868 27.6526 17.0203 26.8198 17.3313 26.1028C17.4426 26.0544 17.5445 26.0177 17.6373 25.9929C18.1589 25.8531 18.5781 25.9458 18.8951 26.2708C18.9485 26.3311 19.0063 26.3963 19.0686 26.4666C19.1367 26.5353 19.2114 26.5588 19.2925 26.537C19.3794 26.5137 19.4671 26.4468 19.5555 26.3361C19.6423 26.2197 19.7368 26.0857 19.8391 25.934C19.9455 25.775 20.0636 25.613 20.1933 25.4478C20.3287 25.281 20.4828 25.1373 20.6554 25.0165C20.7134 25.0009 20.804 24.9798 20.9272 24.953C21.0505 24.9261 21.1411 24.905 21.199 24.8894C21.2512 24.8755 21.3126 24.8497 21.3833 24.8121C21.4598 24.773 21.5392 24.7331 21.6214 24.6924C21.7022 24.6459 21.7779 24.6039 21.8485 24.5663C21.925 24.5272 21.9893 24.5006 22.0415 24.4867C22.3661 24.3997 22.659 24.4268 22.9205 24.5679C23.1877 24.7075 23.3648 24.9396 23.4518 25.2642C23.4844 25.3859 23.5002 25.5028 23.4992 25.6148C23.5665 25.7272 23.6096 25.8182 23.6282 25.8877C23.6981 26.1485 23.6343 26.293 23.4368 26.321ZM24.9797 29.6253L27.2523 24.8235C27.6444 23.9917 28.0258 23.3522 28.3967 22.9049C28.4681 22.8237 28.5525 22.7327 28.6497 22.6321C28.7513 22.5242 28.8497 22.4512 28.9452 22.4132L29.2465 22.2859C29.3071 22.2572 29.3653 22.2541 29.421 22.2764C29.4751 22.293 29.5323 22.3211 29.5927 22.3609C29.6572 22.3932 29.7271 22.4335 29.8021 22.4818C29.8756 22.5242 29.9664 22.562 30.0747 22.5951L30.1756 22.6239C30.3701 22.6774 30.5746 22.722 30.7891 22.7577C31.0095 22.7918 31.2055 22.8511 31.3772 22.9356L31.4783 23.1041C31.5352 23.2007 31.6055 23.3123 31.6891 23.439C31.7712 23.5599 31.8262 23.6725 31.8542 23.7768C31.9303 24.0608 31.9297 24.3715 31.8524 24.709L31.38 26.7363C31.2743 27.1995 31.1896 27.6135 31.1258 27.9785C31.0606 28.3376 31.0179 28.6534 30.9977 28.9259C30.9771 29.1737 30.9847 29.3642 31.0204 29.4975C31.0437 29.5844 31.0847 29.6449 31.1435 29.6788C31.1303 29.583 31.141 29.5304 31.1758 29.5211C31.209 29.506 31.2485 29.514 31.2941 29.5453C31.3455 29.575 31.3943 29.6178 31.4404 29.6738C31.4849 29.724 31.511 29.7636 31.5188 29.7926C31.5358 29.8563 31.5601 29.9119 31.5914 29.9594C31.6228 30.007 31.6267 30.068 31.6032 30.1426L31.5334 30.4036C31.5323 30.4225 31.514 30.4585 31.4785 30.5115C31.4472 30.5571 31.4393 30.6089 31.4549 30.6669L31.3709 30.736L31.4571 31.0576L31.3818 31.1244L31.2123 31.9525C31.207 31.9788 31.2103 32.0027 31.2223 32.0244C31.2327 32.0402 31.2274 32.0665 31.2061 32.1032L31.1222 32.1723C31.0892 32.3737 31.0015 32.568 30.8591 32.7553C30.7225 32.9409 30.5586 33.0594 30.3673 33.1106C30.2746 33.1355 30.1888 33.1399 30.1099 33.1237C29.8105 33.235 29.4685 33.2335 29.0838 33.1191C28.6654 32.9952 28.3087 32.8113 28.0135 32.5674C27.9741 32.5593 27.941 32.5402 27.9143 32.5101C27.886 32.4742 27.8607 32.4375 27.8382 32.4C27.8142 32.3568 27.7925 32.3222 27.7732 32.2963C27.758 32.2631 27.7447 32.248 27.7331 32.2511C27.7191 32.199 27.7061 32.1155 27.694 32.0007C27.6861 31.8786 27.6848 31.7578 27.69 31.6384C27.7011 31.5174 27.7189 31.4102 27.7436 31.3166C27.7724 31.2157 27.8158 31.1575 27.8738 31.1419C27.7107 31.1359 27.5538 31.1531 27.4031 31.1935C26.8467 31.3426 26.3754 31.7857 25.989 32.5228C25.6801 33.1087 25.4395 33.7757 25.2673 34.5238C25.1739 34.6855 25.0172 34.7958 24.7969 34.8548C24.5187 34.9293 24.2199 34.9038 23.9006 34.7782C23.5549 34.6472 23.3455 34.4455 23.2725 34.1731C23.2291 34.0108 23.2436 33.8796 23.3161 33.7794L23.3107 33.5852C23.3056 33.5431 23.3249 33.4758 23.3684 33.3834C23.4104 33.2852 23.4582 33.1854 23.5118 33.0841C23.5697 32.9754 23.6262 32.8733 23.6813 32.7778C23.7407 32.6749 23.7853 32.5977 23.815 32.5463L23.9168 32.3699C23.9804 32.2597 24.0029 32.1698 23.9843 32.1003C23.9719 32.0539 23.9436 32.018 23.8995 31.9925C23.8539 31.9613 23.804 31.9374 23.7499 31.9208C23.6957 31.9043 23.6416 31.8877 23.5875 31.8712C23.5376 31.8473 23.4956 31.8181 23.4616 31.7838L23.1261 31.4357C23.0653 31.3713 23.0186 31.2782 22.986 31.1565C22.972 31.1043 22.9561 31.0216 22.9382 30.9084C22.9261 30.7936 22.913 30.7102 22.899 30.658C22.8556 30.4957 22.8873 30.3475 22.9942 30.2132C23.1011 30.079 23.2386 29.9894 23.4066 29.9443C23.453 29.9319 23.5365 29.9188 23.657 29.9052C23.7834 29.89 23.9163 29.8761 24.0558 29.8635C24.1953 29.851 24.3254 29.8379 24.446 29.8242C24.5723 29.809 24.6587 29.7952 24.705 29.7828C24.8615 29.7408 24.9531 29.6883 24.9797 29.6253ZM29.5871 24.496C29.545 24.5011 29.5065 24.5083 29.4718 24.5176C29.4412 24.5196 29.4144 24.5237 29.3912 24.5299C29.2869 24.5579 29.2394 24.5892 29.2487 24.624C29.2704 24.7051 29.3508 24.7271 29.4899 24.6898C29.5827 24.6649 29.6151 24.6004 29.5871 24.496ZM28.4225 28.4606L29.1961 25.2624L29.1171 25.1065C29.0475 25.1251 28.9767 25.1969 28.9046 25.3218C28.8367 25.4394 28.7955 25.5405 28.7809 25.6252L28.763 25.7325L28.6559 25.8543C28.603 25.912 28.5574 26.0081 28.5189 26.1426C28.4788 26.2714 28.4266 26.3661 28.3621 26.4269C28.3041 26.4424 28.2621 26.4941 28.2359 26.5818C28.2097 26.6696 28.183 26.7668 28.1557 26.8735C28.1268 26.9744 28.0906 27.0711 28.047 27.1635C28.0093 27.2544 27.9527 27.3099 27.8774 27.3301C27.8743 27.3185 27.8397 27.3402 27.7737 27.3952C27.7134 27.4486 27.6996 27.5362 27.7322 27.6579L27.7509 27.7274C27.7928 27.8839 27.7707 27.9985 27.6846 28.0713L27.6644 28.1699C27.6239 28.1807 27.5711 28.2042 27.5063 28.2402C27.4456 28.2689 27.4008 28.2871 27.3718 28.2948C27.3312 28.3057 27.2926 28.3005 27.2559 28.2793C27.2372 28.2098 27.2192 28.1773 27.2018 28.182C27.1844 28.1867 27.1696 28.2124 27.1573 28.2592C27.1508 28.3044 27.1481 28.3641 27.1494 28.4383C27.1506 28.5125 27.1606 28.5844 27.1792 28.6539C27.2103 28.7698 27.2577 28.8193 27.3214 28.8022C27.3736 28.7882 27.4114 28.7905 27.435 28.809C27.4644 28.826 27.4946 28.8458 27.5256 28.8686C27.5607 28.884 27.6017 28.8979 27.6485 28.9102C27.7011 28.921 27.7737 28.9139 27.8665 28.8891C28.1852 28.8037 28.3706 28.6608 28.4225 28.4606ZM28.4716 27.3572C28.3789 27.3821 28.3136 27.3934 28.2757 27.3911C28.2436 27.3873 28.226 27.3796 28.2229 27.368C28.2167 27.3448 28.2366 27.3146 28.2825 27.2775C28.3343 27.2388 28.3725 27.2192 28.3973 27.2188C28.422 27.2184 28.4468 27.2645 28.4716 27.3572ZM33.2008 27.674C33.0739 27.5714 32.9389 27.4616 32.7957 27.3447C32.6526 27.2277 32.5616 27.0968 32.5228 26.9519C32.5072 26.894 32.5052 26.8169 32.5167 26.7206C32.5282 26.6244 32.5261 26.5473 32.5106 26.4893C32.5013 26.4545 32.4815 26.4039 32.4513 26.3375C32.4269 26.2695 32.41 26.2181 32.4007 26.1833C32.4038 26.1949 32.4008 26.1491 32.3918 26.0459C32.387 25.9354 32.3813 25.8096 32.3746 25.6686C32.3663 25.5217 32.3645 25.3762 32.3694 25.232C32.3742 25.0878 32.3892 24.9813 32.4142 24.9125L32.4957 24.695C32.5305 24.6857 32.5884 24.6236 32.6694 24.5087C32.7504 24.3938 32.84 24.2642 32.9379 24.12C33.0359 23.9757 33.1305 23.8417 33.2215 23.7179C33.3111 23.5883 33.3846 23.5034 33.4421 23.4631C33.6047 23.3512 33.7524 23.2185 33.8851 23.0649C34.0179 22.9113 34.1159 22.7204 34.179 22.4923C34.209 22.3725 34.2507 22.2153 34.3042 22.0208C34.3635 21.8248 34.4458 21.6102 34.551 21.377C34.6408 21.179 34.7799 21.0144 34.9684 20.8832C35.1568 20.7519 35.367 20.6552 35.5988 20.5931C35.6911 20.5435 35.801 20.5017 35.9285 20.4675C36.143 20.41 36.3567 20.3963 36.5697 20.4261L37.1368 20.5258C37.2025 20.5392 37.3034 20.5681 37.4395 20.6124C37.5798 20.6493 37.7212 20.7015 37.8635 20.769C38.0042 20.8306 38.1328 20.9049 38.2493 20.9917C38.3642 21.0727 38.4348 21.1625 38.4612 21.261C38.5093 21.4407 38.5042 21.6533 38.4457 21.8988C38.3915 22.1369 38.3269 22.3592 38.2517 22.5657C38.0425 23.1063 37.7582 23.4247 37.3989 23.521C37.2772 23.5536 37.1506 23.5564 37.0192 23.5295L35.7336 23.287L35.6669 23.2117C35.6684 23.2175 35.651 23.2222 35.6147 23.2257C35.5826 23.2219 35.5447 23.2196 35.5011 23.2189C35.4574 23.2182 35.4166 23.2167 35.3787 23.2144C35.3467 23.2106 35.3306 23.2086 35.3306 23.2086C35.1683 23.2521 35.0547 23.4192 34.9897 23.71C34.9678 23.7904 34.9457 24.0323 34.9234 24.4359C35.0325 24.5184 35.2179 24.5961 35.4796 24.6688C35.7456 24.7342 36.0363 24.7992 36.3518 24.8637C36.6715 24.921 36.9891 24.9818 37.3045 25.0464C37.6242 25.1036 37.8894 25.1661 38.1001 25.2339C38.7134 25.436 39.072 25.7313 39.176 26.1196L39.2739 26.4847C39.3717 26.8498 39.3129 27.4184 39.0974 28.1905C39.0441 28.2234 39.0058 28.243 38.9826 28.2492C38.9942 28.2461 39.0062 28.2211 39.0185 28.1744C39.035 28.1202 39.0479 28.064 39.0571 28.0056C39.0663 27.9472 39.0742 27.8954 39.0807 27.8502C39.0857 27.7992 39.0889 27.7766 39.0905 27.7824C39.0796 27.7418 39.0508 27.7154 39.004 27.703C38.9557 27.6849 38.9346 27.6875 38.9408 27.7107C38.9455 27.728 38.9467 27.7557 38.9444 27.7936L38.8861 27.9583C38.8776 27.973 38.861 27.9805 38.8362 27.9809C38.8115 27.9814 38.803 27.9961 38.8108 28.025L38.4968 28.6962C38.4154 28.8795 38.3787 28.9856 38.3864 29.0146L38.0874 29.1506C38.0714 29.3226 38.0673 29.4231 38.075 29.4521C38.0859 29.4926 38.112 29.5322 38.1535 29.5708C38.1311 29.6265 38.0936 29.649 38.0411 29.6382C37.9943 29.6259 37.9305 29.5964 37.8496 29.5497C37.4951 29.7566 37.2332 30.2398 37.0641 30.9995C36.9084 31.6934 36.5755 32.1087 36.0655 32.2454C35.8627 32.2997 35.6486 32.3353 35.4233 32.3522C35.2038 32.3676 35.043 32.3703 34.941 32.3603C34.6027 32.3267 34.2677 32.2239 33.9359 32.052C33.6041 31.88 33.2807 31.6467 32.9657 31.3522L32.8415 31.2364C32.8001 31.1978 32.7678 31.135 32.7445 31.0481C32.6808 30.8105 32.6808 30.6366 32.7444 30.5263C32.7538 30.5611 32.776 30.5396 32.811 30.4619L32.929 30.2067C33.0597 29.9294 33.1569 29.7822 33.2207 29.7652L33.3248 29.5975L33.5657 29.3838L33.627 29.2649C33.6313 29.2576 33.6392 29.2524 33.6508 29.2492C33.6624 29.2461 33.6784 29.2481 33.6989 29.255C33.7179 29.2561 33.7302 29.2559 33.736 29.2544C33.7592 29.2482 33.7654 29.2248 33.7545 29.1842L34.108 29.0429L34.3518 28.8751C34.3619 28.8662 34.3829 28.8636 34.415 28.8674C34.4513 28.8639 34.4753 28.8606 34.4869 28.8575C34.6376 28.8171 34.7989 28.805 34.9709 28.821C35.1414 28.8312 35.2846 28.8208 35.4005 28.7897L35.5768 28.8916C35.6406 28.8745 35.7019 28.8829 35.7607 28.9168C35.8194 28.9508 35.8778 28.96 35.9358 28.9445L36.0895 28.9965L36.2891 29.1852C36.2891 29.1852 36.2999 29.1792 36.3216 29.1672C36.3432 29.1552 36.3482 29.1507 36.3366 29.1539C36.354 29.1492 36.3716 29.1569 36.3894 29.177C36.4072 29.1971 36.4248 29.2048 36.4422 29.2001L36.5897 29.4028C36.6493 29.4863 36.7081 29.5202 36.7661 29.5047C36.8356 29.486 36.8965 29.3889 36.9489 29.2134C36.9997 29.0321 37.0424 28.8436 37.0769 28.648C36.6648 28.5472 36.1357 28.4157 35.4897 28.2534C34.8495 28.0895 34.0865 27.8964 33.2008 27.674ZM38.9209 27.0451C38.9225 27.0509 38.9017 27.1124 38.8585 27.2296C38.9956 27.1618 39.0671 27.1271 39.0729 27.1255C39.1598 27.1022 39.1932 27.0529 39.173 26.9776C39.1668 26.9544 39.1548 26.9328 39.137 26.9127C39.125 26.8911 39.1008 26.882 39.0645 26.8855C38.9439 26.8992 38.8961 26.9524 38.9209 27.0451ZM39.6529 25.9452C39.526 25.8426 39.3909 25.7328 39.2478 25.6158C39.1047 25.4989 39.0137 25.368 38.9748 25.2231C38.9593 25.1651 38.9573 25.088 38.9688 24.9918C38.9803 24.8955 38.9782 24.8184 38.9627 24.7605C38.9534 24.7257 38.9336 24.6751 38.9034 24.6087C38.879 24.5407 38.8621 24.4893 38.8528 24.4545C38.8559 24.4661 38.8529 24.4203 38.8439 24.3171C38.8391 24.2066 38.8334 24.0808 38.8266 23.9397C38.8183 23.7929 38.8166 23.6474 38.8215 23.5032C38.8263 23.359 38.8413 23.2525 38.8663 23.1837L38.9478 22.9662C38.9826 22.9569 39.0405 22.8948 39.1215 22.7799C39.2025 22.665 39.292 22.5354 39.39 22.3911C39.488 22.2469 39.5826 22.1128 39.6736 21.989C39.7631 21.8595 39.8367 21.7745 39.8942 21.7343C40.0568 21.6224 40.2045 21.4896 40.3372 21.336C40.47 21.1824 40.5679 20.9916 40.631 20.7635C40.6611 20.6436 40.7028 20.4865 40.7563 20.292C40.8156 20.096 40.8978 19.8814 41.0031 19.6482C41.0929 19.4502 41.232 19.2856 41.4205 19.1543C41.6089 19.0231 41.8191 18.9264 42.0509 18.8643C42.1432 18.8147 42.2531 18.7728 42.3806 18.7387C42.595 18.6812 42.8088 18.6674 43.0217 18.6973L43.5889 18.7969C43.6546 18.8104 43.7555 18.8392 43.8916 18.8835C44.0319 18.9205 44.1733 18.9727 44.3156 19.0401C44.4563 19.1018 44.5849 19.1761 44.7014 19.2629C44.8162 19.3439 44.8869 19.4337 44.9133 19.5322C44.9614 19.7119 44.9563 19.9244 44.8978 20.1699C44.8436 20.4081 44.7789 20.6304 44.7038 20.8369C44.4946 21.3774 44.2103 21.6959 43.851 21.7921C43.7293 21.8248 43.6027 21.8276 43.4713 21.8007L42.1857 21.5582L42.1189 21.4829C42.1205 21.4887 42.1031 21.4933 42.0668 21.4969C42.0347 21.493 41.9968 21.4908 41.9531 21.4901C41.9095 21.4893 41.8687 21.4878 41.8308 21.4856C41.7987 21.4817 41.7827 21.4798 41.7827 21.4798C41.6204 21.5233 41.5068 21.6904 41.4418 21.9811C41.4199 22.0615 41.3978 22.3035 41.3754 22.707C41.4845 22.7896 41.67 22.8673 41.9317 22.94C42.1977 23.0054 42.4884 23.0704 42.8039 23.1349C43.1236 23.1921 43.4411 23.253 43.7566 23.3176C44.0763 23.3748 44.3415 23.4372 44.5522 23.505C45.1654 23.7072 45.5241 24.0024 45.6281 24.3907L45.726 24.7559C45.8238 25.121 45.765 25.6896 45.5494 26.4617C45.4961 26.4946 45.4579 26.5141 45.4347 26.5204C45.4463 26.5173 45.4583 26.4923 45.4706 26.4455C45.4871 26.3914 45.5 26.3351 45.5092 26.2768C45.5184 26.2184 45.5263 26.1666 45.5328 26.1214C45.5378 26.0704 45.541 26.0477 45.5426 26.0535C45.5317 26.013 45.5029 25.9865 45.4561 25.9742C45.4078 25.9561 45.3867 25.9586 45.3929 25.9818C45.3976 25.9992 45.3988 26.0268 45.3965 26.0647L45.3381 26.2294C45.3297 26.2441 45.313 26.2517 45.2883 26.2521C45.2636 26.2525 45.2551 26.2672 45.2628 26.2962L44.9489 26.9673C44.8675 27.1506 44.8307 27.2568 44.8385 27.2858L44.5395 27.4218C44.5235 27.5938 44.5194 27.6943 44.5271 27.7232C44.538 27.7638 44.5641 27.8034 44.6055 27.842C44.5832 27.8977 44.5457 27.9201 44.4931 27.9094C44.4464 27.8971 44.3826 27.8676 44.3017 27.8209C43.9472 28.0277 43.6853 28.511 43.5162 29.2706C43.3605 29.9646 43.0276 30.3799 42.5176 30.5165C42.3148 30.5709 42.1007 30.6065 41.8754 30.6234C41.6559 30.6387 41.4951 30.6414 41.393 30.6315C41.0548 30.5979 40.7198 30.4951 40.388 30.3231C40.0562 30.1511 39.7328 29.9179 39.4178 29.6234L39.2936 29.5076C39.2522 29.469 39.2199 29.4062 39.1966 29.3193C39.1329 29.0817 39.1329 28.9077 39.1965 28.7975C39.2058 28.8323 39.228 28.8108 39.2631 28.7331L39.3811 28.4779C39.5118 28.2006 39.609 28.0534 39.6727 28.0363L39.7769 27.8687L40.0178 27.655L40.0791 27.5361C40.0834 27.5287 40.0913 27.5235 40.1029 27.5204C40.1145 27.5173 40.1305 27.5192 40.151 27.5262C40.1699 27.5273 40.1823 27.5271 40.1881 27.5255C40.2113 27.5193 40.2174 27.4959 40.2066 27.4554L40.56 27.3141L40.8039 27.1462C40.814 27.1373 40.835 27.1348 40.8671 27.1386C40.9034 27.1351 40.9274 27.1318 40.939 27.1287C41.0897 27.0883 41.251 27.0761 41.423 27.0921C41.5935 27.1024 41.7367 27.092 41.8526 27.0609L42.0289 27.1627C42.0927 27.1456 42.1539 27.1541 42.2127 27.188C42.2715 27.222 42.3299 27.2312 42.3879 27.2156L42.5415 27.2676L42.7412 27.4564C42.7412 27.4564 42.752 27.4504 42.7736 27.4384C42.7953 27.4264 42.8003 27.4219 42.7887 27.425C42.8061 27.4204 42.8237 27.4281 42.8415 27.4481C42.8593 27.4682 42.8769 27.4759 42.8943 27.4713L43.0418 27.674C43.1014 27.7574 43.1602 27.7914 43.2181 27.7758C43.2877 27.7572 43.3486 27.6601 43.401 27.4846C43.4518 27.3033 43.4945 27.1148 43.529 26.9192C43.1169 26.8184 42.5878 26.6869 41.9418 26.5245C41.3016 26.3607 40.5386 26.1676 39.6529 25.9452ZM45.373 25.3163C45.3745 25.3221 45.3537 25.3836 45.3106 25.5007C45.4477 25.4329 45.5192 25.3983 45.525 25.3967C45.6119 25.3734 45.6453 25.3241 45.6251 25.2488C45.6189 25.2256 45.6069 25.2039 45.5891 25.1839C45.5771 25.1622 45.5529 25.1532 45.5166 25.1567C45.396 25.1704 45.3481 25.2236 45.373 25.3163Z" fill="white"/>
</g>
<defs>
<filter id="filter0_d_2_52462" x="0.117188" y="0.94458" width="56.6113" height="41.0833" filterUnits="userSpaceOnUse" color-interpolation-filters="sRGB">
<feFlood flood-opacity="0" result="BackgroundImageFix"/>
<feColorMatrix in="SourceAlpha" type="matrix" values="0 0 0 0 0 0 0 0 0 0 0 0 0 0 0 0 0 0 127 0" result="hardAlpha"/>
<feOffset dy="2"/>
<feComposite in2="hardAlpha" operator="out"/>
<feColorMatrix type="matrix" values="0 0 0 0 0.827451 0 0 0 0 0.172549 0 0 0 0 0.901961 0 0 0 1 0"/>
<feBlend mode="normal" in2="BackgroundImageFix" result="effect1_dropShadow_2_52462"/>
<feBlend mode="normal" in="SourceGraphic" in2="effect1_dropShadow_2_52462" result="shape"/>
</filter>
</defs>
</svg>
