<svg xmlns="http://www.w3.org/2000/svg" width="40.001" height="44" viewBox="0 0 40.001 44"><path d="M182,142l-5.5-9.047h-11L160,142h-1l6-10h12l6,10Zm3-1-6-10,6-10h6v.952h-5.5L180,131l5.5,9.048H191V141Zm-34,0v-.953h5.5L162,131l-5.5-9.048H151V121h6l6,10-6,10h-6Zm26-11H165l-6-10,6-10h12l6,10-6,10Zm-17-10,5.5,9.048h11L182,120l-5.5-9.048h-11Zm25-1-6-10,6-10h6v.952h-5.5L180,109l5.5,9.048H191V119Zm-28,0h-6v-.952h5.5L162,109l-5.5-9.048H151V99h6l6,10-6,10Zm20-11H165l-6-10h1l5.5,9.049h11L182,98h1l-6,10h0Z" transform="translate(-151 -97.999)" fill="#d32ce6" fill-opacity="0.2"/></svg>