<svg width="21" height="20" viewBox="0 0 21 20" fill="none" xmlns="http://www.w3.org/2000/svg">
<path d="M9.5 10C9.5 9.49792 9.99792 9 10.5 9C11.0021 9 11.5 9.49792 11.5 10C11.5 10.5021 11.0021 11 10.5 11C9.99792 11 9.5 10.5021 9.5 10Z" fill="white"/>
<path fill-rule="evenodd" clip-rule="evenodd" d="M9.5 5C9.53809 5.46704 10.0231 6 10.5 6C10.9769 6 11.4619 5.46704 11.5 5C13.7866 5.38228 15.1177 6.71345 15.5 9C15.033 9.03809 14.5 9.52314 14.5 10C14.5 10.4769 15.033 10.9619 15.5 11C15.1177 13.2866 13.7866 14.6177 11.5 15C11.4619 14.533 10.9769 14 10.5 14C10.0231 14 9.53809 14.533 9.5 15C7.21345 14.6177 5.88228 13.2866 5.5 11C5.96704 10.9619 6.5 10.4769 6.5 10C6.5 9.52314 5.96704 9.03809 5.5 9C5.88228 6.71345 7.21345 5.38228 9.5 5ZM7.5 10C7.5 8.49377 8.99377 7 10.5 7C12.0062 7 13.5 8.49377 13.5 10C13.5 11.5062 12.0062 13 10.5 13C8.99377 13 7.5 11.5062 7.5 10Z" fill="white"/>
<path fill-rule="evenodd" clip-rule="evenodd" d="M0.5 10C0.5 4.47715 4.97715 0 10.5 0C16.0228 0 20.5 4.47715 20.5 10C20.5 15.5228 16.0228 20 10.5 20C4.97715 20 0.5 15.5228 0.5 10ZM11.5 3V2C11.5 1.49792 11.0021 1 10.5 1C9.99792 1 9.5 1.49792 9.5 2V3C6.21026 3.41023 3.91023 5.71026 3.5 9H2.5C1.99792 9 1.5 9.49792 1.5 10C1.5 10.5021 1.99792 11 2.5 11H3.5C3.91023 14.2897 6.21026 16.5898 9.5 17V18C9.5 18.5021 9.99792 19 10.5 19C11.0021 19 11.5 18.5021 11.5 18V17C14.7897 16.5898 17.0898 14.2897 17.5 11H18.5C19.0021 11 19.5 10.5021 19.5 10C19.5 9.49792 19.0021 9 18.5 9H17.5C17.0898 5.71026 14.7897 3.41023 11.5 3Z" fill="white"/>
</svg>
