<svg width="20" height="19" viewBox="0 0 20 19" fill="none" xmlns="http://www.w3.org/2000/svg">
<path fill-rule="evenodd" clip-rule="evenodd" d="M9.5 3.67207H10.5V8.99141H19.5V3.67207H16.0922L16.0949 3.66713C16.2874 3.31474 16.5 2.92551 16.5 2.49753C16.5 1.12724 15.2735 -0.00012207 13.893 -0.00012207C11.501 -0.00012207 10.001 2.4974 10.001 2.4974C10.001 2.4974 8.50098 -0.00012207 6.10695 -0.00012207C4.72652 -0.00012207 3.5 1.12724 3.5 2.49753C3.5 2.92551 3.71261 3.31474 3.90511 3.66713L3.9078 3.67207H0.5V8.99141H9.5V3.67207ZM9.5 3.67207L6.10672 3.67214C5.44778 3.67214 4.5 3.24376 4.5 2.49753C4.5 1.75129 5 0.998937 6.10695 0.998937C7.29364 0.998937 9.17253 2.50349 9.5 3.67207ZM10.5 3.67207L13.8933 3.67214C14.5522 3.67214 15.5 3.24376 15.5 2.49753C15.5 1.75129 15 0.998937 13.893 0.998937C12.7064 0.998937 10.8275 2.50349 10.5 3.67207Z" fill="white"/>
<path d="M9.5 18.9999V9.99047H1.3257V18.9999H9.5Z" fill="white"/>
<path d="M10.5 18.9999V9.99047H18.6743V18.9999H10.5Z" fill="white"/>
</svg>
