<svg width="25" height="24" viewBox="0 0 25 24" fill="none" xmlns="http://www.w3.org/2000/svg">
<path d="M0.833118 22.892L0.502152 18.3559C0.492635 18.1972 0.514746 18.0381 0.567202 17.8879C0.619658 17.7378 0.701412 17.5996 0.807714 17.4813C0.914016 17.3631 1.04275 17.2671 1.18642 17.1991C1.3301 17.131 1.48586 17.0922 1.64465 17.0849L3.68549 16.9501C3.88791 16.9355 4.09043 16.977 4.27081 17.0701C4.4512 17.1631 4.60247 17.3041 4.70802 17.4775C6.48272 16.6178 8.52583 16.498 10.3888 17.1443C10.7636 17.2446 11.1485 17.3028 11.5362 17.318L16.2643 17.3773C16.5551 17.3567 16.8425 17.4502 17.0656 17.6379C17.2887 17.8256 17.4301 18.0929 17.4597 18.3831C17.4893 18.6733 17.4049 18.9636 17.2243 19.1926C17.0437 19.4216 16.7812 19.5713 16.4922 19.61L11.1735 20.1177C11.1346 20.1206 11.0966 20.1312 11.0618 20.1488C11.0269 20.1664 10.9959 20.1907 10.9704 20.2203C10.945 20.2499 10.9256 20.2842 10.9134 20.3213C10.9012 20.3584 10.8964 20.3975 10.8993 20.4365C10.9023 20.4754 10.9128 20.5134 10.9304 20.5483C10.948 20.5831 10.9723 20.6142 11.0019 20.6397C11.0314 20.6651 11.0658 20.6845 11.1028 20.6967C11.1399 20.709 11.179 20.7137 11.2179 20.7108L11.4297 20.7009C13.4513 20.6632 15.4669 20.4682 17.4583 20.1177C17.8951 20.0283 18.3113 19.858 18.6855 19.6156C18.7448 19.5803 18.8266 19.526 18.8838 19.485C19.8653 18.8315 20.8849 18.2374 21.9373 17.7056C22.4505 17.3996 23.0162 17.192 23.6055 17.0934C23.7318 17.0966 23.856 17.1258 23.9705 17.1792C24.085 17.2327 24.1872 17.3092 24.2707 17.404C24.3542 17.4987 24.4173 17.6098 24.456 17.7301C24.4946 17.8504 24.508 17.9774 24.4954 18.1032C24.4832 18.2915 24.4236 18.4737 24.322 18.6327C24.2205 18.7918 24.0803 18.9225 23.9146 19.0126L17.1464 22.9816L16.8881 23.1158C16.0216 23.5567 15.0415 23.7231 14.0781 23.5931L5.11591 23.2048C5.03661 23.3903 4.90728 23.55 4.74239 23.6661C4.57749 23.7822 4.38356 23.8501 4.18229 23.8622L2.14498 23.9999C2.11676 23.9999 2.08876 23.9999 2.06101 23.9999C1.75431 24.0046 1.45719 23.893 1.22939 23.6875C1.00159 23.4819 0.860009 23.1977 0.833118 22.892ZM2.19579 22.2508C2.19735 22.3406 2.21657 22.4292 2.25235 22.5115C2.28813 22.5938 2.33977 22.6683 2.40432 22.7307C2.46887 22.793 2.54506 22.842 2.62855 22.8749C2.71204 22.9078 2.80118 22.9239 2.89089 22.9223C2.98152 22.9265 3.07204 22.9122 3.157 22.8804C3.24196 22.8486 3.31959 22.7998 3.38519 22.7371C3.4508 22.6744 3.50302 22.5991 3.53869 22.5156C3.57437 22.4321 3.59276 22.3423 3.59276 22.2515C3.59276 22.1608 3.57437 22.0709 3.53869 21.9875C3.50302 21.904 3.4508 21.8286 3.38519 21.7659C3.31959 21.7032 3.24196 21.6545 3.157 21.6227C3.07204 21.5908 2.98152 21.5766 2.89089 21.5807C2.70995 21.5775 2.53513 21.6463 2.40481 21.7719C2.27449 21.8975 2.19932 22.0698 2.19579 22.2508ZM18.5676 18.2804C18.5509 18.1225 18.5161 17.9671 18.4639 17.8172C18.4649 17.8067 18.4683 17.7965 18.4738 17.7875C19.1886 17.3992 20.5908 16.722 21.348 16.4198C21.5253 16.3394 21.7203 16.3058 21.9142 16.3223C22.1082 16.3387 22.2947 16.4046 22.4559 16.5137C22.1925 16.6104 21.9351 16.7231 21.6853 16.8512C20.6874 17.3502 19.7175 17.9034 18.78 18.5085C18.7095 18.5586 18.6389 18.6073 18.5683 18.6582C18.5782 18.5324 18.578 18.4061 18.5676 18.2804ZM17.531 16.6563C17.9974 16.4085 19.0454 16.0646 19.5161 15.8796C19.6907 15.8006 19.8824 15.7669 20.0735 15.7817C20.2646 15.7965 20.4488 15.8593 20.6092 15.9644C20.063 16.2087 18.9953 16.5857 18.4985 16.859L18.1562 17.0475C18.1216 17.068 18.0913 17.0927 18.061 17.1125C17.9088 16.9352 17.7311 16.7814 17.5338 16.6563H17.531ZM8.63938 10.5591C8.64064 9.49017 8.95857 8.44561 9.55299 7.55744C10.1474 6.66927 10.9916 5.97737 11.979 5.56918C12.9663 5.16099 14.0524 5.05484 15.1 5.26415C16.1476 5.47345 17.1097 5.98882 17.8646 6.74511C18.6196 7.5014 19.1335 8.46466 19.3414 9.51314C19.5494 10.5616 19.442 11.6483 19.0329 12.6357C18.6238 13.6231 17.9313 14.4671 17.043 15.0608C16.1547 15.6545 15.1104 15.9714 14.0421 15.9714C12.6097 15.9695 11.2367 15.3988 10.2246 14.3847C9.21252 13.3705 8.64413 11.9958 8.64432 10.5626L8.63938 10.5591ZM12.3089 12.1648C12.2546 12.3399 12.2045 12.5178 12.1544 12.6965C12.0909 12.9359 12.1106 12.9959 12.3343 13.1004C12.6256 13.2324 12.9347 13.3209 13.2517 13.3631C13.5008 13.4033 13.5051 13.4139 13.5093 13.6709C13.5142 13.786 13.5142 13.906 13.5142 14.019C13.5109 14.0497 13.5143 14.0808 13.5242 14.11C13.5341 14.1393 13.5503 14.166 13.5716 14.1883C13.5929 14.2107 13.6188 14.2281 13.6476 14.2393C13.6763 14.2506 13.7071 14.2554 13.7379 14.2535C13.9115 14.2584 14.0809 14.2584 14.2552 14.2535C14.2846 14.2555 14.3141 14.2509 14.3416 14.2402C14.3691 14.2294 14.3938 14.2127 14.4141 14.1912C14.4343 14.1697 14.4495 14.1441 14.4587 14.116C14.4678 14.0879 14.4706 14.0582 14.4669 14.0289C14.4669 13.87 14.4719 13.7105 14.4669 13.5509C14.4622 13.5176 14.4641 13.4837 14.4725 13.4512C14.481 13.4186 14.4958 13.3881 14.5162 13.3614C14.5365 13.3346 14.562 13.3122 14.5911 13.2954C14.6202 13.2786 14.6523 13.2677 14.6857 13.2635C15.0389 13.1714 15.3535 12.9691 15.584 12.6859C15.7367 12.4981 15.8456 12.2785 15.9025 12.0432C15.9595 11.8078 15.9631 11.5627 15.9132 11.3258C15.8633 11.0889 15.761 10.8661 15.614 10.6739C15.4669 10.4816 15.2787 10.3246 15.0632 10.2145C14.7687 10.0629 14.4665 9.92667 14.1578 9.80639C13.9808 9.73759 13.8145 9.64392 13.6638 9.52818C13.5968 9.48252 13.5439 9.41897 13.5111 9.34474C13.4783 9.27051 13.4669 9.18857 13.4783 9.10821C13.4897 9.02786 13.5234 8.9523 13.5755 8.89012C13.6276 8.82794 13.6961 8.78162 13.7732 8.75641C13.8688 8.71568 13.9714 8.69386 14.0753 8.69215C14.4694 8.67053 14.8625 8.7495 15.2178 8.92164C15.4019 9.00566 15.4612 8.98095 15.5205 8.79242C15.5854 8.5933 15.6398 8.38853 15.6997 8.1894C15.71 8.16193 15.7145 8.13263 15.7128 8.10335C15.7112 8.07406 15.7035 8.04544 15.6902 8.01928C15.677 7.99313 15.6584 7.97002 15.6358 7.95141C15.6131 7.93281 15.5868 7.91911 15.5586 7.9112C15.3279 7.81153 15.086 7.74039 14.8381 7.69936C14.51 7.64429 14.51 7.64429 14.51 7.31665C14.5057 6.85415 14.5057 6.85415 14.0442 6.85415H13.8403C13.6286 6.8591 13.5869 6.89934 13.5827 7.11824V7.41198C13.5763 7.70007 13.5763 7.70007 13.3004 7.80034C12.9845 7.89057 12.7053 8.07878 12.503 8.33788C12.3007 8.59698 12.1858 8.91362 12.1749 9.24221C12.1605 9.53298 12.232 9.82155 12.3805 10.0719C12.5289 10.3223 12.7478 10.5234 13.0097 10.6502C13.3473 10.8274 13.6956 10.9833 14.0527 11.1169C14.1881 11.1746 14.3151 11.2504 14.4302 11.3422C14.5072 11.397 14.5677 11.4719 14.6052 11.5587C14.6426 11.6454 14.6557 11.7408 14.6429 11.8345C14.6301 11.9281 14.592 12.0165 14.5326 12.0901C14.4732 12.1636 14.3949 12.2195 14.306 12.2516C14.097 12.3434 13.8664 12.3745 13.6406 12.3413C13.2857 12.3025 12.9407 12.1999 12.6223 12.0384C12.5736 12.0093 12.5192 11.9913 12.4628 11.9854C12.3922 11.9812 12.3576 12.0391 12.3139 12.1683L12.3089 12.1648ZM14.7569 3.77764C14.7569 3.75646 14.752 3.7381 14.752 3.71833C14.7527 3.04618 14.9352 2.38674 15.2803 1.81005C15.6253 1.23335 16.12 0.760914 16.7118 0.442907C17.3036 0.1249 17.9705 -0.026811 18.6415 0.00388352C19.3126 0.034578 19.9628 0.246532 20.5231 0.61724C21.0835 0.987948 21.533 1.50357 21.8241 2.10937C22.1151 2.71516 22.2368 3.38851 22.1761 4.05792C22.1155 4.72733 21.8748 5.36781 21.4796 5.91136C21.0845 6.45491 20.5496 6.88123 19.9317 7.14507C19.3939 6.21674 18.6452 5.42815 17.7462 4.84313C16.8472 4.25811 15.8231 3.8931 14.7569 3.77764Z" fill="white"/>
</svg>
