<svg width="40" height="40" viewBox="0 0 40 40" fill="none" xmlns="http://www.w3.org/2000/svg">
<mask id="mask0_438_15159" style="mask-type:alpha" maskUnits="userSpaceOnUse" x="8" y="8" width="24" height="24">
<path fill-rule="evenodd" clip-rule="evenodd" d="M20.537 8C10.9253 8 5.5188 17.0071 9.12323 25.4138C13.3283 33.22 23.5407 34.4208 29.548 27.2152C32.5517 23.6124 31.951 17.6077 31.951 17.6077H25.9436H19.9363V20.0096V22.4115H23.5407H26.7515C24.7702 28.1826 16.57 28.8977 13.8733 23.8092C12.3048 21.7737 12.2047 16.7908 15.1391 14.5672C20.2574 10.6889 24.44 14.3747 24.44 14.3747L27.8522 10.9365C27.8522 10.9365 24.2794 8 20.537 8Z" fill="#CECECE"/>
</mask>
<g mask="url(#mask0_438_15159)">
<path d="M8.82617 9.2207L22.0703 -1.17745L30.9651 10.1422L24.343 15.3413L15.4972 17.7105L13.2735 14.8805L8.82617 9.2207Z" fill="#EA4235"/>
<path d="M28.2422 33.9305L41.4864 23.5324L30.9649 10.1425L24.5375 16.5781L17.7207 16.5781L17.7207 20.5406L28.2422 33.9305Z" fill="#4385F5"/>
<rect width="14.6507" height="14.3962" transform="matrix(-0.786549 0.617528 0.617852 0.786294 8.82617 9.2207)" fill="#FABC05"/>
<rect width="14.6507" height="17.4828" transform="matrix(-0.786549 0.617528 -0.617852 -0.786294 28.5229 34.2874)" fill="#34A853"/>
</g>
</svg>
