<svg width="16" height="16" viewBox="0 0 16 16" fill="none" xmlns="http://www.w3.org/2000/svg">
<g filter="url(#filter0_d_2_52669)">
<path d="M10.326 4.19363L9.39716 4.41778C9.32564 4.43732 9.23392 4.49587 9.12201 4.59345C9.00838 4.68597 8.89401 4.74362 8.77891 4.76639C8.60626 4.80054 8.48202 4.70658 8.40621 4.4845C8.27541 4.51037 8.2169 4.5435 8.23069 4.58388C8.23413 4.59397 8.24278 4.61112 8.25663 4.63532C8.27398 4.65344 8.28438 4.66755 8.28783 4.67764C8.29989 4.71297 8.2536 4.74099 8.14896 4.76169C7.85074 4.82068 7.67826 5.03531 7.63152 5.40556C7.59555 5.69286 7.6327 5.99803 7.74298 6.32106C7.78261 6.43715 7.83726 6.49907 7.90694 6.50684C7.98184 6.51358 8.09516 6.50194 8.24689 6.47192L8.45093 6.43156C8.67067 6.38809 8.79984 6.3329 8.83844 6.266L8.89634 6.16564C8.90687 6.14739 8.91819 6.14785 8.93032 6.167C8.94767 6.18512 8.95721 6.1967 8.95893 6.20175C8.96059 6.22297 8.96659 6.24873 8.97693 6.27901L9.08384 6.34677C9.08384 6.34677 9.08467 6.35738 9.08633 6.3786C9.0915 6.39375 9.09322 6.39879 9.0915 6.39375C9.10012 6.41898 9.12618 6.43807 9.1697 6.45102C9.21672 6.45788 9.24719 6.46532 9.2611 6.47335C9.34481 6.45679 9.39544 6.4333 9.41298 6.40289C9.40628 6.33417 9.44386 6.30518 9.52572 6.31593C9.60586 6.32163 9.66686 6.32034 9.70871 6.31206C9.73487 6.30689 9.75494 6.30022 9.76891 6.29207L9.75388 6.12532C9.74711 6.07277 9.76284 6.06158 9.80106 6.09174C9.83405 6.12293 9.85051 6.14661 9.85045 6.16279C9.85389 6.17288 9.84949 6.18453 9.83724 6.19773C9.83022 6.20989 9.82059 6.22258 9.80834 6.23578C9.79609 6.24898 9.79427 6.26819 9.80289 6.29343C9.8184 6.33886 9.85209 6.41301 9.90397 6.5159C9.95936 6.61271 9.99739 6.6914 10.0181 6.75196C9.96039 6.7957 9.93934 6.8322 9.95491 6.86145C9.97048 6.8907 10.0035 6.9138 10.054 6.93076C10.1027 6.94266 10.1567 6.94545 10.216 6.93911C10.2805 6.93174 10.3311 6.91634 10.3678 6.89292C10.4009 7.33358 10.1503 7.70376 9.61589 8.00345C9.44649 8.09623 9.21259 8.19639 8.91418 8.30391C8.61577 8.41144 8.26514 8.50505 7.86228 8.58474C7.73671 8.60958 7.6598 8.67059 7.63154 8.76778C7.60679 8.85889 7.59767 8.96307 7.60419 9.08032C7.6107 9.19757 7.61546 9.31787 7.61847 9.4412C7.61975 9.55948 7.58974 9.65972 7.52843 9.74189C7.56634 9.85293 7.53432 10.0209 7.43237 10.2458C7.41476 10.2924 7.40768 10.3208 7.41113 10.3309C7.40941 10.3258 7.45034 10.3312 7.53392 10.347C7.62102 10.3567 7.71768 10.3699 7.82392 10.3866C7.93016 10.4033 8.03291 10.418 8.1322 10.4307C8.23148 10.4434 8.2942 10.4471 8.32036 10.442C8.35175 10.4357 8.38493 10.4184 8.41989 10.3899C8.45836 10.3554 8.47071 10.3179 8.45692 10.2775C8.44658 10.2473 8.42923 10.2291 8.40485 10.2232C8.38048 10.2172 8.35435 10.2143 8.32647 10.2144C8.30382 10.2135 8.28203 10.2151 8.2611 10.2193C8.24017 10.2234 8.22799 10.2205 8.22454 10.2104C8.22109 10.2003 8.24122 10.1774 8.28493 10.1418C8.32691 10.1012 8.34359 10.0683 8.33497 10.043L8.71886 10.1368L8.84998 10.0301C8.93037 9.97105 8.99149 9.9374 9.03335 9.92912C9.04904 9.92602 9.05246 9.9442 9.04359 9.98367C9.033 10.0181 9.0189 10.0586 9.00129 10.1052C8.98369 10.1518 8.96522 10.1958 8.94589 10.2374C8.93179 10.2779 8.9256 10.3007 8.92733 10.3057C8.94973 10.3713 9.05245 10.3941 9.23551 10.3741C9.26696 10.3517 9.27934 10.3061 9.27263 10.2374C9.26944 10.1626 9.27221 10.1216 9.28095 10.1145C9.40398 10.2949 9.53613 10.3712 9.67739 10.3432C9.73494 10.3318 9.79 10.2886 9.84257 10.2136C9.89865 10.1324 9.98163 10.081 10.0915 10.0593C10.1543 10.0468 10.2152 10.0617 10.2743 10.1039C10.3369 10.14 10.3787 10.156 10.3996 10.1519C10.4205 10.1477 10.412 10.0901 10.3741 9.9791C10.4577 9.99489 10.509 10.0306 10.5279 10.0861C10.5503 10.1517 10.53 10.2231 10.467 10.3002C10.4022 10.3723 10.3332 10.4156 10.26 10.43C10.2456 10.5514 10.2302 10.6784 10.214 10.8109C10.2031 10.9424 10.1496 11.0392 10.0535 11.1013L10.0411 10.9179C10.0427 10.9553 9.99103 11.0248 9.88608 11.1263C9.78464 11.2218 9.66134 11.3351 9.51619 11.4662L8.84733 12.0592L6.99522 12.4256L6.54216 12.6446C6.48454 12.6721 6.40865 12.6952 6.31447 12.7138C6.02148 12.7718 5.73592 12.7124 5.45778 12.5358C5.26655 12.4174 5.09902 12.2538 4.95519 12.0452C4.80964 11.8315 4.70154 11.6212 4.63089 11.4143C4.59471 11.3083 4.56034 11.1831 4.52779 11.0386C4.49352 10.8892 4.44451 10.721 4.38075 10.5343C4.39122 10.5322 4.39498 10.4614 4.39203 10.3219C4.3926 10.1763 4.38886 10.0181 4.38081 9.84729C4.37276 9.67646 4.36378 9.51928 4.35388 9.37576C4.34922 9.2312 4.34516 9.15388 4.34171 9.14378L4.39176 9.04498L4.41089 8.83105C4.4181 8.77036 4.41739 8.72739 4.40878 8.70216C4.40539 8.67588 4.41416 8.66068 4.43509 8.65654L4.96144 5.04471C4.96859 5.00019 4.97133 4.96732 4.96967 4.94609C4.96629 4.91982 4.96804 4.91678 4.97493 4.93697C4.97149 4.92687 4.96629 4.91982 4.95933 4.91581L5.04354 4.76983C5.06663 4.6575 5.11856 4.5233 5.19933 4.36723C5.28361 4.20508 5.37745 4.04642 5.48087 3.89126C5.58257 3.73105 5.68595 3.58397 5.79103 3.45003C5.89611 3.3161 5.98275 3.21813 6.05095 3.15615C6.14366 3.06776 6.2214 3.01736 6.28418 3.00494L8.22605 2.41066C8.51917 2.32035 8.68403 2.27157 8.72066 2.26432C8.84099 2.24052 8.92202 2.24065 8.96375 2.26473C9.09098 2.26111 9.22957 2.24986 9.37951 2.23098C9.53296 2.20601 9.67939 2.19321 9.8188 2.19257C9.95822 2.19193 10.0836 2.21562 10.1949 2.26364C10.3046 2.30662 10.3835 2.39877 10.4317 2.54009C10.4386 2.56028 10.4438 2.58351 10.4471 2.60978C10.4558 2.63502 10.4618 2.66077 10.4651 2.68704C10.4755 2.70115 10.5111 2.748 10.5718 2.8276C10.6307 2.90214 10.6958 2.98627 10.7668 3.07997C10.8432 3.17264 10.8822 3.22149 10.8839 3.22654C10.8908 3.24673 10.8977 3.26692 10.9046 3.28711C10.9115 3.3073 10.9166 3.33053 10.92 3.3568L11.0114 3.37913C11.0183 3.38314 11.027 3.40029 11.0373 3.43057C11.0512 3.45478 11.059 3.4694 11.0607 3.47445C11.0693 3.49968 11.0629 3.57908 11.0415 3.71264L10.9965 3.85085C10.9303 3.837 10.885 3.84327 10.8605 3.86967C10.8395 3.88999 10.8237 3.91736 10.8131 3.95178C10.8025 3.98621 10.7946 4.02011 10.7892 4.0535C10.7821 4.08184 10.7603 4.09964 10.7236 4.10688C10.6923 4.11309 10.6522 4.11024 10.6034 4.09833C10.5547 4.08642 10.5015 4.08616 10.444 4.09754C10.3812 4.10996 10.3419 4.14199 10.326 4.19363ZM9.52187 5.96107C9.57572 6.0043 9.60262 6.034 9.60256 6.05018C9.60077 6.06131 9.58418 6.06998 9.55279 6.07619C9.52491 6.07632 9.49093 6.07496 9.45086 6.07211C9.41079 6.06926 9.37506 6.07094 9.34367 6.07715C9.28772 6.12593 9.23881 6.15447 9.19696 6.16275C9.1708 6.16792 9.15513 6.16294 9.14996 6.1478C9.13962 6.11751 9.15982 6.07849 9.21054 6.03074C9.26126 5.98299 9.30755 5.95498 9.3494 5.9467C9.40172 5.93635 9.45921 5.94114 9.52187 5.96107ZM9.48065 6.47841C9.45449 6.48358 9.44228 6.4887 9.444 6.49374C9.44572 6.49879 9.45006 6.50332 9.45702 6.50733C9.46748 6.50526 9.47536 6.49562 9.48065 6.47841ZM9.60377 7.08447C9.51464 7.1506 9.47438 7.19628 9.483 7.22152C9.49334 7.2518 9.57089 7.24993 9.71566 7.2159C9.79765 7.19429 9.86484 7.17023 9.91722 7.1437C9.96788 7.11213 9.9889 7.08372 9.98028 7.05848C9.9665 7.0181 9.90387 6.99008 9.7924 6.97442C9.74883 6.97765 9.70959 6.98541 9.67469 6.9977C9.63806 7.00495 9.61442 7.03387 9.60377 7.08447ZM8.97298 7.29816C8.89807 7.29143 8.8692 7.32138 8.88637 7.38803C8.88452 7.41534 8.91237 7.4233 8.96992 7.41192C9.03271 7.3995 9.09026 7.38811 9.14258 7.37776C9.25768 7.35499 9.30317 7.30828 9.27905 7.23761C9.26009 7.18209 9.21661 7.16106 9.14859 7.17452C9.08581 7.18694 9.02727 7.22815 8.97298 7.29816ZM6.09452 9.44362C6.00558 9.46122 5.9723 9.50282 5.9947 9.56844C6.02744 9.66434 6.07782 9.70556 6.14583 9.6921C6.17199 9.68693 6.18166 9.66616 6.17483 9.62979C6.16972 9.59847 6.14295 9.53642 6.09452 9.44362ZM8.57417 10.3756C8.51317 10.3769 8.48089 10.3886 8.47732 10.4109C8.47725 10.4271 8.48765 10.4412 8.50852 10.4532C8.52938 10.4653 8.54942 10.4667 8.56862 10.4575C8.58783 10.4483 8.58968 10.421 8.57417 10.3756ZM8.32219 10.6436C8.34496 10.6122 8.35377 10.5889 8.3486 10.5738C8.33137 10.5233 8.27567 10.5074 8.18149 10.526C8.1501 10.5322 8.14133 10.5474 8.15517 10.5716C8.17253 10.5897 8.19598 10.6093 8.22552 10.6304C8.25858 10.6455 8.28553 10.659 8.3064 10.671C8.3325 10.682 8.33511 10.6815 8.31425 10.6695C8.32471 10.6674 8.32736 10.6588 8.32219 10.6436ZM8.97357 10.5148C8.99973 10.5096 9.01108 10.502 9.00764 10.4919C8.99379 10.4677 8.9712 10.4506 8.93987 10.4406C8.90854 10.4307 8.88241 10.4278 8.86149 10.4319C8.84579 10.435 8.8388 10.4391 8.84053 10.4441C8.83696 10.4664 8.85256 10.4875 8.88733 10.5076C8.92734 10.5266 8.95519 10.5346 8.97089 10.5315C8.97612 10.5305 8.97701 10.5249 8.97357 10.5148ZM8.45494 10.7871C8.50892 10.798 8.5525 10.7948 8.58568 10.7774C8.61886 10.7601 8.63723 10.7403 8.6408 10.718C8.64788 10.6897 8.64188 10.6639 8.62281 10.6408C8.602 10.6125 8.56981 10.6 8.52623 10.6033C8.43206 10.6219 8.39789 10.6691 8.42374 10.7448C8.42719 10.7549 8.43759 10.769 8.45494 10.7871ZM10.1081 10.5005C10.068 10.4976 10.0497 10.5094 10.0531 10.5356C10.0547 10.5569 10.0739 10.5638 10.1105 10.5566C10.1209 10.5545 10.1201 10.5358 10.1081 10.5005Z" fill="url(#paint0_linear_2_52669)"/>
</g>
<defs>
<filter id="filter0_d_2_52669" x="1.96387" y="1.90723" width="11.751" height="12.5364" filterUnits="userSpaceOnUse" color-interpolation-filters="sRGB">
<feFlood flood-opacity="0" result="BackgroundImageFix"/>
<feColorMatrix in="SourceAlpha" type="matrix" values="0 0 0 0 0 0 0 0 0 0 0 0 0 0 0 0 0 0 127 0" result="hardAlpha"/>
<feOffset dy="1.5"/>
<feComposite in2="hardAlpha" operator="out"/>
<feColorMatrix type="matrix" values="0 0 0 0 0.827451 0 0 0 0 0.172549 0 0 0 0 0.901961 0 0 0 1 0"/>
<feBlend mode="normal" in2="BackgroundImageFix" result="effect1_dropShadow_2_52669"/>
<feBlend mode="normal" in="SourceGraphic" in2="effect1_dropShadow_2_52669" result="shape"/>
</filter>
<linearGradient id="paint0_linear_2_52669" x1="7.58885" y1="6.79562" x2="8.32314" y2="10.5075" gradientUnits="userSpaceOnUse">
<stop stop-color="white"/>
<stop offset="1" stop-color="#F9C0FF"/>
</linearGradient>
</defs>
</svg>
