<svg width="16" height="16" viewBox="0 0 16 16" fill="none" xmlns="http://www.w3.org/2000/svg">
<path d="M8 1.34375C7.08333 1.34375 6.21875 1.52083 5.40625 1.875C4.59375 2.20833 3.88542 2.6875 3.28125 3.3125C2.67708 3.91667 2.19792 4.625 1.84375 5.4375C1.51042 6.22917 1.34375 7.08333 1.34375 8C1.34375 8.91667 1.51042 9.78125 1.84375 10.5938C2.19792 11.3854 2.67708 12.0938 3.28125 12.7188C3.88542 13.3229 4.59375 13.8021 5.40625 14.1562C6.21875 14.4896 7.08333 14.6562 8 14.6562C8.91667 14.6562 9.77083 14.4896 10.5625 14.1562C11.375 13.8021 12.0833 13.3229 12.6875 12.7188C13.3125 12.0938 13.7917 11.3854 14.125 10.5938C14.4792 9.78125 14.6562 8.91667 14.6562 8C14.6562 7.08333 14.4792 6.22917 14.125 5.4375C13.7917 4.625 13.3125 3.91667 12.6875 3.3125C12.0833 2.6875 11.375 2.20833 10.5625 1.875C9.77083 1.52083 8.91667 1.34375 8 1.34375ZM10.1875 11.125L7.34375 8.28125V4.65625H8.65625V7.71875L11.125 10.1875L10.1875 11.125Z" fill="#FEF2C8"/>
<path d="M5.40625 1.875L5.78581 2.80017L5.79587 2.79604L5.80584 2.7917L5.40625 1.875ZM3.28125 3.3125L3.98836 4.01961L3.99435 4.01361L4.00024 4.00752L3.28125 3.3125ZM1.84375 5.4375L0.926982 5.03788L0.922115 5.04944L1.84375 5.4375ZM1.84375 10.5938L0.918581 10.9733L0.924531 10.9878L0.930932 11.0021L1.84375 10.5938ZM3.28125 12.7188L2.56226 13.4138L2.56815 13.4199L2.57414 13.4259L3.28125 12.7188ZM5.40625 14.1562L5.00666 15.0729L5.01663 15.0773L5.02669 15.0814L5.40625 14.1562ZM10.5625 14.1562L10.9506 15.078L10.9621 15.0729L10.5625 14.1562ZM12.6875 12.7188L11.9804 12.0116L12.6875 12.7188ZM14.125 10.5938L13.2082 10.1941L13.2034 10.2057L14.125 10.5938ZM14.125 5.4375L13.1998 5.81706L13.2058 5.83156L13.2122 5.84587L14.125 5.4375ZM12.6875 3.3125L11.9685 4.00752L11.9803 4.01971L11.9925 4.03149L12.6875 3.3125ZM10.5625 1.875L10.1541 2.78782L10.1684 2.79422L10.1829 2.80017L10.5625 1.875ZM10.1875 11.125L9.48039 11.8321L10.1875 12.5392L10.8946 11.8321L10.1875 11.125ZM7.34375 8.28125H6.34375V8.69546L6.63664 8.98836L7.34375 8.28125ZM7.34375 4.65625V3.65625H6.34375V4.65625H7.34375ZM8.65625 4.65625H9.65625V3.65625H8.65625V4.65625ZM8.65625 7.71875H7.65625V8.13296L7.94914 8.42586L8.65625 7.71875ZM11.125 10.1875L11.8321 10.8946L12.5392 10.1875L11.8321 9.48039L11.125 10.1875ZM8 0.34375C6.95064 0.34375 5.94956 0.547299 5.00666 0.958304L5.80584 2.7917C6.48794 2.49437 7.21602 2.34375 8 2.34375V0.34375ZM5.02669 0.949831C4.08772 1.33505 3.26347 1.89209 2.56226 2.61748L4.00024 4.00752C4.50736 3.48291 5.09978 3.08162 5.78581 2.80017L5.02669 0.949831ZM2.57414 2.60539C1.87819 3.30135 1.32933 4.11506 0.927054 5.03791L2.76045 5.83709C3.06651 5.13494 3.47598 4.53198 3.98836 4.01961L2.57414 2.60539ZM0.922115 5.04944C0.533654 5.97204 0.34375 6.95912 0.34375 8H2.34375C2.34375 7.20755 2.48718 6.4863 2.76539 5.82556L0.922115 5.04944ZM0.34375 8C0.34375 9.04105 0.533681 10.0351 0.918581 10.9733L2.76892 10.2142C2.48715 9.52739 2.34375 8.79228 2.34375 8H0.34375ZM0.930932 11.0021C1.33267 11.9001 1.87751 12.7054 2.56226 13.4138L4.00024 12.0237C3.47666 11.4821 3.06316 10.8707 2.75657 10.1854L0.930932 11.0021ZM2.57414 13.4259C3.2701 14.1218 4.08381 14.6707 5.00666 15.0729L5.80584 13.2396C5.10369 12.9335 4.50073 12.524 3.98836 12.0116L2.57414 13.4259ZM5.02669 15.0814C5.96489 15.4663 6.95895 15.6562 8 15.6562V13.6562C7.20772 13.6562 6.47261 13.5128 5.78581 13.2311L5.02669 15.0814ZM8 15.6562C9.04088 15.6562 10.028 15.4663 10.9506 15.0779L10.1744 13.2346C9.5137 13.5128 8.79245 13.6562 8 13.6562V15.6562ZM10.9621 15.0729C11.8849 14.6707 12.6986 14.1218 13.3946 13.4259L11.9804 12.0116C11.468 12.524 10.8651 12.9335 10.1629 13.2396L10.9621 15.0729ZM13.3946 13.4259C14.1084 12.7121 14.6616 11.8962 15.0466 10.9818L13.2034 10.2057C12.9217 10.8747 12.5166 11.4754 11.9804 12.0116L13.3946 13.4259ZM15.0417 10.9933C15.4527 10.0504 15.6562 9.04936 15.6562 8H13.6562C13.6562 8.78398 13.5056 9.51206 13.2083 10.1942L15.0417 10.9933ZM15.6562 8C15.6562 6.95076 15.4527 5.95652 15.0378 5.02913L13.2122 5.84587C13.5056 6.50181 13.6562 7.2159 13.6562 8H15.6562ZM15.0502 5.05794C14.6649 4.11897 14.1079 3.29472 13.3825 2.59351L11.9925 4.03149C12.5171 4.53861 12.9184 5.13103 13.1998 5.81706L15.0502 5.05794ZM13.4065 2.61748C12.7053 1.89209 11.881 1.33505 10.9421 0.949831L10.1829 2.80017C10.869 3.08162 11.4614 3.48291 11.9685 4.00752L13.4065 2.61748ZM10.9709 0.962182C10.0435 0.547296 9.04924 0.34375 8 0.34375V2.34375C8.7841 2.34375 9.49819 2.49437 10.1541 2.78782L10.9709 0.962182ZM10.8946 10.4179L8.05086 7.57414L6.63664 8.98836L9.48039 11.8321L10.8946 10.4179ZM8.34375 8.28125V4.65625H6.34375V8.28125H8.34375ZM7.34375 5.65625H8.65625V3.65625H7.34375V5.65625ZM7.65625 4.65625V7.71875H9.65625V4.65625H7.65625ZM7.94914 8.42586L10.4179 10.8946L11.8321 9.48039L9.36336 7.01164L7.94914 8.42586ZM10.4179 9.48039L9.48039 10.4179L10.8946 11.8321L11.8321 10.8946L10.4179 9.48039Z" fill="#FF2C3B"/>
</svg>
